G04 Layer: InnerLayer2*
G04 EasyEDA Pro v2.2.46.11, 2026-03-19 10:49:02*
G04 Gerber Generator version 0.3*
G04 Scale: 100 percent, Rotated: No, Reflected: No*
G04 Dimensions in millimeters*
G04 Leading zeros omitted, absolute positions, 4 integers and 5 decimals*
G04 Generated by one-click*
%FSLAX45Y45*%
%MOMM*%
%ADD10C,4.0*%
%ADD11C,1.8*%
%ADD12C,2.0*%
%ADD13R,1.5X1.4*%
%ADD14C,1.4*%
%ADD15O,1.0X1.8*%
%ADD16O,1.0X2.1*%
%ADD17R,1.8X1.8*%
%ADD18C,0.61*%
%ADD19C,0.2536*%
%ADD20C,0.254*%
G75*


G04 Copper Start*
G36*
G01X900983Y3864703D02*
G01X928203Y3889373D01*
G01X957710Y3911257D01*
G01X989220Y3930144D01*
G01X1022429Y3945851D01*
G01X1057019Y3958227D01*
G01X1092654Y3967153D01*
G01X1128993Y3972543D01*
G01X1165685Y3974346D01*
G01X8834315Y3974346D01*
G01X8871007Y3972543D01*
G01X8907346Y3967153D01*
G01X8942981Y3958227D01*
G01X8977571Y3945851D01*
G01X9010780Y3930144D01*
G01X9042290Y3911257D01*
G01X9071797Y3889373D01*
G01X9099017Y3864703D01*
G01X9864703Y3099017D01*
G01X9889373Y3071797D01*
G01X9911257Y3042290D01*
G01X9930144Y3010780D01*
G01X9945851Y2977571D01*
G01X9958227Y2942982D01*
G01X9967153Y2907346D01*
G01X9972543Y2871007D01*
G01X9974346Y2834315D01*
G01X9974346Y1000000D01*
G01X9972423Y938820D01*
G01X9966663Y877882D01*
G01X9957088Y817426D01*
G01X9943735Y757690D01*
G01X9926658Y698911D01*
G01X9905924Y641319D01*
G01X9881615Y585144D01*
G01X9853826Y530605D01*
G01X9822668Y477919D01*
G01X9788263Y427294D01*
G01X9750747Y378928D01*
G01X9710268Y333014D01*
G01X9666986Y289732D01*
G01X9621072Y249254D01*
G01X9572706Y211738D01*
G01X9522081Y177332D01*
G01X9469395Y146174D01*
G01X9414856Y118385D01*
G01X9358681Y94076D01*
G01X9301090Y73342D01*
G01X9242310Y56265D01*
G01X9182574Y42912D01*
G01X9122118Y33337D01*
G01X9061180Y27577D01*
G01X9000000Y25654D01*
G01X1000000Y25654D01*
G01X938820Y27577D01*
G01X877882Y33337D01*
G01X817426Y42912D01*
G01X757690Y56265D01*
G01X698911Y73342D01*
G01X641319Y94076D01*
G01X585144Y118385D01*
G01X530605Y146174D01*
G01X477919Y177332D01*
G01X427294Y211738D01*
G01X378928Y249254D01*
G01X372411Y254999D01*
G01X2925597Y254999D01*
G01X2927510Y240466D01*
G01X2933120Y226922D01*
G01X2942044Y215293D01*
G01X2953674Y206369D01*
G01X2967217Y200759D01*
G01X2981751Y198845D01*
G01X2996284Y200759D01*
G01X3009828Y206369D01*
G01X3021458Y215293D01*
G01X3030382Y226922D01*
G01X3035991Y240466D01*
G01X3037905Y254999D01*
G01X3035991Y269533D01*
G01X3030382Y283077D01*
G01X3021458Y294706D01*
G01X3009828Y303630D01*
G01X2996284Y309240D01*
G01X2981751Y311154D01*
G01X2967217Y309240D01*
G01X2953674Y303630D01*
G01X2942044Y294706D01*
G01X2933120Y283077D01*
G01X2927510Y269533D01*
G01X2925597Y254999D01*
G01X2925597Y254999D01*
G01X372411Y254999D01*
G01X333014Y289732D01*
G01X289732Y333014D01*
G01X249254Y378928D01*
G01X240666Y390000D01*
G01X8557346Y390000D01*
G01X8557346Y210000D01*
G01X8559299Y200183D01*
G01X8564860Y191860D01*
G01X8573183Y186299D01*
G01X8583000Y184346D01*
G01X8763000Y184346D01*
G01X8763000Y184346D01*
G01X8772817Y186299D01*
G01X8781140Y191860D01*
G01X8786701Y200183D01*
G01X8788654Y210000D01*
G01X8788654Y300000D01*
G01X8811346Y300000D01*
G01X8813315Y278749D01*
G01X8819156Y258221D01*
G01X8828669Y239116D01*
G01X8841531Y222084D01*
G01X8857303Y207706D01*
G01X8875449Y196471D01*
G01X8895350Y188761D01*
G01X8916329Y184839D01*
G01X8937671Y184839D01*
G01X8958650Y188761D01*
G01X8978551Y196471D01*
G01X8996697Y207706D01*
G01X9012469Y222084D01*
G01X9025331Y239116D01*
G01X9034844Y258221D01*
G01X9040685Y278749D01*
G01X9042654Y300000D01*
G01X9040685Y321251D01*
G01X9034844Y341779D01*
G01X9025331Y360884D01*
G01X9012469Y377915D01*
G01X8996697Y392294D01*
G01X8978551Y403529D01*
G01X8958650Y411239D01*
G01X8937671Y415160D01*
G01X8916329Y415160D01*
G01X8895350Y411239D01*
G01X8875449Y403529D01*
G01X8857303Y392294D01*
G01X8841531Y377915D01*
G01X8828669Y360884D01*
G01X8819156Y341779D01*
G01X8813315Y321251D01*
G01X8811346Y300000D01*
G01X8811346Y300000D01*
G01X8788654Y300000D01*
G01X8788654Y390000D01*
G01X8786701Y399817D01*
G01X8781140Y408140D01*
G01X8772817Y413701D01*
G01X8763000Y415654D01*
G01X8583000Y415654D01*
G01X8573183Y413701D01*
G01X8564860Y408140D01*
G01X8559299Y399817D01*
G01X8557346Y390000D01*
G01X240666Y390000D01*
G01X211738Y427294D01*
G01X177332Y477919D01*
G01X146174Y530605D01*
G01X118385Y585144D01*
G01X94076Y641319D01*
G01X73342Y698911D01*
G01X68668Y714999D01*
G01X3613839Y714999D01*
G01X3615752Y700465D01*
G01X3621362Y686922D01*
G01X3630286Y675292D01*
G01X3641916Y666368D01*
G01X3655459Y660758D01*
G01X3669993Y658845D01*
G01X3684526Y660758D01*
G01X3698070Y666368D01*
G01X3709700Y675292D01*
G01X3718624Y686922D01*
G01X3724233Y700465D01*
G01X3726147Y714999D01*
G01X3724233Y729532D01*
G01X3718624Y743076D01*
G01X3709700Y754705D01*
G01X3698070Y763629D01*
G01X3684526Y769239D01*
G01X3669993Y771153D01*
G01X3655459Y769239D01*
G01X3641916Y763629D01*
G01X3630286Y754705D01*
G01X3621362Y743076D01*
G01X3615752Y729532D01*
G01X3613839Y714999D01*
G01X3613839Y714999D01*
G01X68668Y714999D01*
G01X56265Y757690D01*
G01X50161Y784998D01*
G01X9078828Y784998D01*
G01X9080707Y770591D01*
G01X9086220Y757149D01*
G01X9094997Y745571D01*
G01X9106451Y736632D01*
G01X9119815Y730931D01*
G01X9134194Y728850D01*
G01X9148626Y730527D01*
G01X9162145Y735851D01*
G01X9173845Y744465D01*
G01X9185545Y735851D01*
G01X9199063Y730527D01*
G01X9213495Y728850D01*
G01X9227874Y730931D01*
G01X9241238Y736632D01*
G01X9252692Y745571D01*
G01X9261469Y757149D01*
G01X9266982Y770591D01*
G01X9268862Y784998D01*
G01X9266982Y799405D01*
G01X9261469Y812848D01*
G01X9252692Y824426D01*
G01X9241238Y833365D01*
G01X9227874Y839066D01*
G01X9213495Y841147D01*
G01X9199063Y839470D01*
G01X9185545Y834146D01*
G01X9173845Y825532D01*
G01X9162145Y834146D01*
G01X9148626Y839470D01*
G01X9134194Y841147D01*
G01X9119815Y839066D01*
G01X9106451Y833365D01*
G01X9094997Y824426D01*
G01X9086220Y812848D01*
G01X9080707Y799405D01*
G01X9078828Y784998D01*
G01X9078828Y784998D01*
G01X50161Y784998D01*
G01X42912Y817426D01*
G01X33337Y877882D01*
G01X32664Y884998D01*
G01X394345Y884998D01*
G01X396183Y866337D01*
G01X401626Y848393D01*
G01X410466Y831856D01*
G01X422362Y817361D01*
G01X436857Y805465D01*
G01X453394Y796626D01*
G01X471338Y791182D01*
G01X489999Y789344D01*
G01X508660Y791182D01*
G01X526604Y796626D01*
G01X543141Y805465D01*
G01X557637Y817361D01*
G01X569532Y831856D01*
G01X578372Y848393D01*
G01X583815Y866337D01*
G01X585653Y884998D01*
G01X585653Y884998D01*
G01X583815Y903659D01*
G01X578372Y921603D01*
G01X569532Y938141D01*
G01X557637Y952636D01*
G01X543141Y964532D01*
G01X526604Y973371D01*
G01X508660Y978814D01*
G01X489999Y980652D01*
G01X471338Y978814D01*
G01X453394Y973371D01*
G01X436857Y964532D01*
G01X422362Y952636D01*
G01X410466Y938141D01*
G01X401626Y921603D01*
G01X396183Y903659D01*
G01X394345Y884998D01*
G01X32664Y884998D01*
G01X27577Y938820D01*
G01X25654Y1000000D01*
G01X25654Y1064998D01*
G01X58846Y1064998D01*
G01X60759Y1050464D01*
G01X66369Y1036921D01*
G01X75293Y1025291D01*
G01X86923Y1016367D01*
G01X100466Y1010757D01*
G01X115000Y1008844D01*
G01X129534Y1010757D01*
G01X143077Y1016367D01*
G01X154707Y1025291D01*
G01X158318Y1029998D01*
G01X2953840Y1029998D01*
G01X2955753Y1015464D01*
G01X2961363Y1001921D01*
G01X2970287Y990291D01*
G01X2981917Y981367D01*
G01X2995460Y975757D01*
G01X3009994Y973844D01*
G01X3024528Y975757D01*
G01X3038071Y981367D01*
G01X3049701Y990291D01*
G01X3058625Y1001921D01*
G01X3064235Y1015464D01*
G01X3066148Y1029998D01*
G01X6158834Y1029998D01*
G01X6160747Y1015464D01*
G01X6166357Y1001921D01*
G01X6175281Y990291D01*
G01X6186911Y981367D01*
G01X6200454Y975757D01*
G01X6214988Y973844D01*
G01X6229521Y975757D01*
G01X6243065Y981367D01*
G01X6254694Y990291D01*
G01X6263618Y1001921D01*
G01X6269228Y1015464D01*
G01X6271142Y1029998D01*
G01X6269228Y1044532D01*
G01X6263618Y1058075D01*
G01X6254694Y1069705D01*
G01X6243065Y1078629D01*
G01X6229521Y1084239D01*
G01X6214988Y1086152D01*
G01X6200454Y1084239D01*
G01X6186911Y1078629D01*
G01X6175281Y1069705D01*
G01X6166357Y1058075D01*
G01X6160747Y1044532D01*
G01X6158834Y1029998D01*
G01X6158834Y1029998D01*
G01X3066148Y1029998D01*
G01X3064235Y1044532D01*
G01X3058625Y1058075D01*
G01X3049701Y1069705D01*
G01X3038071Y1078629D01*
G01X3024528Y1084239D01*
G01X3009994Y1086152D01*
G01X2995460Y1084239D01*
G01X2981917Y1078629D01*
G01X2970287Y1069705D01*
G01X2961363Y1058075D01*
G01X2955753Y1044532D01*
G01X2953840Y1029998D01*
G01X2953840Y1029998D01*
G01X158318Y1029998D01*
G01X163631Y1036921D01*
G01X169240Y1050464D01*
G01X171154Y1064998D01*
G01X169240Y1079532D01*
G01X163631Y1093075D01*
G01X154707Y1104705D01*
G01X143077Y1113629D01*
G01X129534Y1119239D01*
G01X115000Y1121152D01*
G01X100466Y1119239D01*
G01X86923Y1113629D01*
G01X75293Y1104705D01*
G01X66369Y1093075D01*
G01X60759Y1079532D01*
G01X58846Y1064998D01*
G01X58846Y1064998D01*
G01X25654Y1064998D01*
G01X25654Y1134998D01*
G01X1138844Y1134998D01*
G01X1140757Y1120464D01*
G01X1146367Y1106921D01*
G01X1155291Y1095291D01*
G01X1166921Y1086367D01*
G01X1180464Y1080757D01*
G01X1194998Y1078844D01*
G01X1209531Y1080757D01*
G01X1223075Y1086367D01*
G01X1234705Y1095291D01*
G01X1242153Y1104998D01*
G01X3078840Y1104998D01*
G01X3080753Y1090464D01*
G01X3086363Y1076921D01*
G01X3095287Y1065291D01*
G01X3106917Y1056367D01*
G01X3120460Y1050757D01*
G01X3134994Y1048844D01*
G01X3149527Y1050757D01*
G01X3163071Y1056367D01*
G01X3174701Y1065291D01*
G01X3183625Y1076921D01*
G01X3189234Y1090464D01*
G01X3191148Y1104998D01*
G01X6343833Y1104998D01*
G01X6345747Y1090464D01*
G01X6351356Y1076921D01*
G01X6360280Y1065291D01*
G01X6371910Y1056367D01*
G01X6385453Y1050757D01*
G01X6399987Y1048844D01*
G01X6414521Y1050757D01*
G01X6428064Y1056367D01*
G01X6439694Y1065291D01*
G01X6448618Y1076921D01*
G01X6454228Y1090464D01*
G01X6456141Y1104998D01*
G01X6454228Y1119532D01*
G01X6448618Y1133075D01*
G01X6439694Y1144705D01*
G01X6428064Y1153629D01*
G01X6414521Y1159238D01*
G01X6399987Y1161152D01*
G01X6385453Y1159238D01*
G01X6371910Y1153629D01*
G01X6360280Y1144705D01*
G01X6351356Y1133075D01*
G01X6345747Y1119532D01*
G01X6343833Y1104998D01*
G01X6343833Y1104998D01*
G01X3191148Y1104998D01*
G01X3189234Y1119532D01*
G01X3183625Y1133075D01*
G01X3174701Y1144705D01*
G01X3163071Y1153629D01*
G01X3149527Y1159238D01*
G01X3134994Y1161152D01*
G01X3120460Y1159238D01*
G01X3106917Y1153629D01*
G01X3095287Y1144705D01*
G01X3086363Y1133075D01*
G01X3080753Y1119532D01*
G01X3078840Y1104998D01*
G01X3078840Y1104998D01*
G01X1242153Y1104998D01*
G01X1243628Y1106921D01*
G01X1249238Y1120464D01*
G01X1251152Y1134998D01*
G01X1249238Y1149531D01*
G01X1243628Y1163075D01*
G01X1234705Y1174705D01*
G01X1223075Y1183629D01*
G01X1209531Y1189238D01*
G01X1194998Y1191152D01*
G01X1180464Y1189238D01*
G01X1166921Y1183629D01*
G01X1155291Y1174705D01*
G01X1146367Y1163075D01*
G01X1140757Y1149531D01*
G01X1138844Y1134998D01*
G01X1138844Y1134998D01*
G01X25654Y1134998D01*
G01X25654Y1204998D01*
G01X3208839Y1204998D01*
G01X3210753Y1190464D01*
G01X3216363Y1176921D01*
G01X3225287Y1165291D01*
G01X3236916Y1156367D01*
G01X3250460Y1150757D01*
G01X3264993Y1148844D01*
G01X3279527Y1150757D01*
G01X3293071Y1156367D01*
G01X3304700Y1165291D01*
G01X3313624Y1176921D01*
G01X3319234Y1190464D01*
G01X3321148Y1204998D01*
G01X5818834Y1204998D01*
G01X5820748Y1190464D01*
G01X5826357Y1176921D01*
G01X5835281Y1165291D01*
G01X5846911Y1156367D01*
G01X5860455Y1150757D01*
G01X5874988Y1148844D01*
G01X5889522Y1150757D01*
G01X5903065Y1156367D01*
G01X5914695Y1165291D01*
G01X5923619Y1176921D01*
G01X5929229Y1190464D01*
G01X5931142Y1204998D01*
G01X5929229Y1219531D01*
G01X5923619Y1233075D01*
G01X5914695Y1244705D01*
G01X5903065Y1253628D01*
G01X5889522Y1259238D01*
G01X5874988Y1261152D01*
G01X5860455Y1259238D01*
G01X5846911Y1253628D01*
G01X5835281Y1244705D01*
G01X5826357Y1233075D01*
G01X5820748Y1219531D01*
G01X5818834Y1204998D01*
G01X5818834Y1204998D01*
G01X3321148Y1204998D01*
G01X3319234Y1219531D01*
G01X3313624Y1233075D01*
G01X3304700Y1244705D01*
G01X3293071Y1253628D01*
G01X3279527Y1259238D01*
G01X3264993Y1261152D01*
G01X3250460Y1259238D01*
G01X3236916Y1253628D01*
G01X3225287Y1244705D01*
G01X3216363Y1233075D01*
G01X3210753Y1219531D01*
G01X3208839Y1204998D01*
G01X3208839Y1204998D01*
G01X25654Y1204998D01*
G01X25654Y1264997D01*
G01X2828840Y1264997D01*
G01X2830754Y1250464D01*
G01X2836363Y1236920D01*
G01X2845287Y1225291D01*
G01X2856917Y1216367D01*
G01X2870460Y1210757D01*
G01X2884994Y1208843D01*
G01X2899528Y1210757D01*
G01X2913071Y1216367D01*
G01X2924701Y1225291D01*
G01X2933625Y1236920D01*
G01X2939235Y1250464D01*
G01X2941148Y1264997D01*
G01X2939235Y1279531D01*
G01X2933625Y1293075D01*
G01X2924701Y1304704D01*
G01X2913071Y1313628D01*
G01X2899528Y1319238D01*
G01X2884994Y1321152D01*
G01X2870460Y1319238D01*
G01X2856917Y1313628D01*
G01X2845287Y1304704D01*
G01X2836363Y1293075D01*
G01X2830754Y1279531D01*
G01X2828840Y1264997D01*
G01X2828840Y1264997D01*
G01X25654Y1264997D01*
G01X25654Y1329997D01*
G01X2698840Y1329997D01*
G01X2700754Y1315464D01*
G01X2706364Y1301920D01*
G01X2715288Y1290290D01*
G01X2726917Y1281366D01*
G01X2740461Y1275757D01*
G01X2754994Y1273843D01*
G01X2769528Y1275757D01*
G01X2783072Y1281366D01*
G01X2794701Y1290290D01*
G01X2803625Y1301920D01*
G01X2809235Y1315464D01*
G01X2811149Y1329997D01*
G01X5748834Y1329997D01*
G01X5750748Y1315464D01*
G01X5756358Y1301920D01*
G01X5765281Y1290290D01*
G01X5776911Y1281366D01*
G01X5790455Y1275757D01*
G01X5804988Y1273843D01*
G01X5819522Y1275757D01*
G01X5833065Y1281366D01*
G01X5844695Y1290290D01*
G01X5853619Y1301920D01*
G01X5859229Y1315464D01*
G01X5859826Y1319997D01*
G01X6288833Y1319997D01*
G01X6290747Y1305464D01*
G01X6296356Y1291920D01*
G01X6305280Y1280290D01*
G01X6316910Y1271367D01*
G01X6330454Y1265757D01*
G01X6344987Y1263843D01*
G01X6359521Y1265757D01*
G01X6373064Y1271367D01*
G01X6384694Y1280290D01*
G01X6393618Y1291920D01*
G01X6399228Y1305464D01*
G01X6401141Y1319997D01*
G01X6399228Y1334531D01*
G01X6393618Y1348074D01*
G01X6384694Y1359704D01*
G01X6373064Y1368628D01*
G01X6359521Y1374238D01*
G01X6344987Y1376151D01*
G01X6330454Y1374238D01*
G01X6316910Y1368628D01*
G01X6305280Y1359704D01*
G01X6296356Y1348074D01*
G01X6290747Y1334531D01*
G01X6288833Y1319997D01*
G01X6288833Y1319997D01*
G01X5859826Y1319997D01*
G01X5861142Y1329997D01*
G01X5859229Y1344531D01*
G01X5853619Y1358074D01*
G01X5844695Y1369704D01*
G01X5833065Y1378628D01*
G01X5819522Y1384238D01*
G01X5804988Y1386151D01*
G01X5790455Y1384238D01*
G01X5776911Y1378628D01*
G01X5765281Y1369704D01*
G01X5756358Y1358074D01*
G01X5750748Y1344531D01*
G01X5748834Y1329997D01*
G01X5748834Y1329997D01*
G01X2811149Y1329997D01*
G01X2809235Y1344531D01*
G01X2803625Y1358074D01*
G01X2794701Y1369704D01*
G01X2783072Y1378628D01*
G01X2769528Y1384238D01*
G01X2754994Y1386151D01*
G01X2740461Y1384238D01*
G01X2726917Y1378628D01*
G01X2715288Y1369704D01*
G01X2706364Y1358074D01*
G01X2700754Y1344531D01*
G01X2698840Y1329997D01*
G01X2698840Y1329997D01*
G01X25654Y1329997D01*
G01X25654Y1469997D01*
G01X58846Y1469997D01*
G01X60759Y1455463D01*
G01X66369Y1441920D01*
G01X75293Y1430290D01*
G01X86923Y1421366D01*
G01X100466Y1415756D01*
G01X115000Y1413843D01*
G01X129534Y1415756D01*
G01X143077Y1421366D01*
G01X154707Y1430290D01*
G01X163631Y1441920D01*
G01X169240Y1455463D01*
G01X171154Y1469997D01*
G01X178845Y1469997D01*
G01X180759Y1455463D01*
G01X186369Y1441920D01*
G01X195293Y1430290D01*
G01X206922Y1421366D01*
G01X220466Y1415756D01*
G01X235000Y1413843D01*
G01X249533Y1415756D01*
G01X263077Y1421366D01*
G01X274706Y1430290D01*
G01X283630Y1441920D01*
G01X286976Y1449997D01*
G01X618845Y1449997D01*
G01X620758Y1435463D01*
G01X626368Y1421920D01*
G01X635292Y1410290D01*
G01X646922Y1401366D01*
G01X660465Y1395756D01*
G01X674999Y1393843D01*
G01X689532Y1395756D01*
G01X703076Y1401366D01*
G01X714324Y1409997D01*
G01X4098838Y1409997D01*
G01X4100751Y1395463D01*
G01X4106361Y1381920D01*
G01X4115285Y1370290D01*
G01X4126915Y1361366D01*
G01X4140458Y1355757D01*
G01X4154992Y1353843D01*
G01X4169525Y1355757D01*
G01X4183069Y1361366D01*
G01X4194699Y1370290D01*
G01X4203623Y1381920D01*
G01X4209232Y1395463D01*
G01X4211146Y1409997D01*
G01X4210487Y1414997D01*
G01X7863830Y1414997D01*
G01X7865743Y1400463D01*
G01X7871353Y1386920D01*
G01X7880277Y1375290D01*
G01X7891907Y1366366D01*
G01X7905450Y1360757D01*
G01X7919984Y1358843D01*
G01X7934518Y1360757D01*
G01X7948061Y1366366D01*
G01X7959691Y1375290D01*
G01X7968615Y1386920D01*
G01X7974225Y1400463D01*
G01X7976138Y1414997D01*
G01X7974225Y1429531D01*
G01X7968615Y1443074D01*
G01X7959691Y1454704D01*
G01X7948061Y1463628D01*
G01X7934518Y1469238D01*
G01X7919984Y1471151D01*
G01X7905450Y1469238D01*
G01X7891907Y1463628D01*
G01X7880277Y1454704D01*
G01X7871353Y1443074D01*
G01X7865743Y1429531D01*
G01X7863830Y1414997D01*
G01X7863830Y1414997D01*
G01X4210487Y1414997D01*
G01X4209232Y1424531D01*
G01X4203623Y1438074D01*
G01X4194699Y1449704D01*
G01X4183069Y1458628D01*
G01X4169525Y1464238D01*
G01X4154992Y1466151D01*
G01X4140458Y1464238D01*
G01X4126915Y1458628D01*
G01X4115285Y1449704D01*
G01X4106361Y1438074D01*
G01X4100751Y1424531D01*
G01X4098838Y1409997D01*
G01X4098838Y1409997D01*
G01X714324Y1409997D01*
G01X714706Y1410290D01*
G01X723629Y1421920D01*
G01X729239Y1435463D01*
G01X731153Y1449997D01*
G01X729239Y1464531D01*
G01X724904Y1474997D01*
G01X2263841Y1474997D01*
G01X2265755Y1460463D01*
G01X2271365Y1446920D01*
G01X2280288Y1435290D01*
G01X2291918Y1426366D01*
G01X2305462Y1420756D01*
G01X2319995Y1418843D01*
G01X2334529Y1420756D01*
G01X2348072Y1426366D01*
G01X2359702Y1435290D01*
G01X2368626Y1446920D01*
G01X2374236Y1460463D01*
G01X2376149Y1474997D01*
G01X2374236Y1489531D01*
G01X2368626Y1503074D01*
G01X2359702Y1514704D01*
G01X2348072Y1523628D01*
G01X2334529Y1529238D01*
G01X2319995Y1531151D01*
G01X2305462Y1529238D01*
G01X2291918Y1523628D01*
G01X2280288Y1514704D01*
G01X2271365Y1503074D01*
G01X2265755Y1489531D01*
G01X2263841Y1474997D01*
G01X2263841Y1474997D01*
G01X724904Y1474997D01*
G01X723629Y1478074D01*
G01X714706Y1489704D01*
G01X703076Y1498628D01*
G01X689532Y1504238D01*
G01X674999Y1506151D01*
G01X660465Y1504238D01*
G01X646922Y1498628D01*
G01X635292Y1489704D01*
G01X626368Y1478074D01*
G01X620758Y1464531D01*
G01X618845Y1449997D01*
G01X618845Y1449997D01*
G01X286976Y1449997D01*
G01X289240Y1455463D01*
G01X291154Y1469997D01*
G01X289240Y1484531D01*
G01X283630Y1498074D01*
G01X274706Y1509704D01*
G01X274325Y1509997D01*
G01X328845Y1509997D01*
G01X330759Y1495463D01*
G01X336368Y1481920D01*
G01X345292Y1470290D01*
G01X356922Y1461366D01*
G01X370465Y1455756D01*
G01X384999Y1453843D01*
G01X399533Y1455756D01*
G01X413076Y1461366D01*
G01X424706Y1470290D01*
G01X433630Y1481920D01*
G01X439240Y1495463D01*
G01X441153Y1509997D01*
G01X439240Y1524531D01*
G01X434905Y1534997D01*
G01X1873842Y1534997D01*
G01X1875755Y1520463D01*
G01X1881365Y1506920D01*
G01X1890289Y1495290D01*
G01X1901919Y1486366D01*
G01X1915462Y1480756D01*
G01X1929996Y1478843D01*
G01X1944530Y1480756D01*
G01X1958073Y1486366D01*
G01X1969703Y1495290D01*
G01X1978627Y1506920D01*
G01X1984237Y1520463D01*
G01X1986150Y1534997D01*
G01X1984237Y1549531D01*
G01X1978627Y1563074D01*
G01X1969703Y1574704D01*
G01X1958073Y1583628D01*
G01X1954768Y1584997D01*
G01X3713838Y1584997D01*
G01X3715752Y1570463D01*
G01X3721362Y1556920D01*
G01X3730286Y1545290D01*
G01X3741915Y1536366D01*
G01X3755459Y1530756D01*
G01X3769992Y1528843D01*
G01X3784526Y1530756D01*
G01X3798069Y1536366D01*
G01X3809699Y1545290D01*
G01X3818623Y1556920D01*
G01X3824233Y1570463D01*
G01X3826147Y1584997D01*
G01X3824233Y1599531D01*
G01X3818623Y1613074D01*
G01X3809699Y1624704D01*
G01X3798069Y1633628D01*
G01X3784526Y1639237D01*
G01X3769992Y1641151D01*
G01X3755459Y1639237D01*
G01X3741915Y1633628D01*
G01X3730286Y1624704D01*
G01X3721362Y1613074D01*
G01X3715752Y1599531D01*
G01X3713838Y1584997D01*
G01X3713838Y1584997D01*
G01X1954768Y1584997D01*
G01X1944530Y1589238D01*
G01X1929996Y1591151D01*
G01X1915462Y1589238D01*
G01X1901919Y1583628D01*
G01X1890289Y1574704D01*
G01X1881365Y1563074D01*
G01X1875755Y1549531D01*
G01X1873842Y1534997D01*
G01X1873842Y1534997D01*
G01X434905Y1534997D01*
G01X433630Y1538074D01*
G01X424706Y1549704D01*
G01X413076Y1558628D01*
G01X399533Y1564238D01*
G01X384999Y1566151D01*
G01X370465Y1564238D01*
G01X356922Y1558628D01*
G01X345292Y1549704D01*
G01X336368Y1538074D01*
G01X330759Y1524531D01*
G01X328845Y1509997D01*
G01X328845Y1509997D01*
G01X274325Y1509997D01*
G01X263077Y1518628D01*
G01X249533Y1524238D01*
G01X235000Y1526151D01*
G01X220466Y1524238D01*
G01X206922Y1518628D01*
G01X195293Y1509704D01*
G01X186369Y1498074D01*
G01X180759Y1484531D01*
G01X178845Y1469997D01*
G01X178845Y1469997D01*
G01X171154Y1469997D01*
G01X169240Y1484531D01*
G01X163631Y1498074D01*
G01X154707Y1509704D01*
G01X143077Y1518628D01*
G01X129534Y1524238D01*
G01X115000Y1526151D01*
G01X100466Y1524238D01*
G01X86923Y1518628D01*
G01X75293Y1509704D01*
G01X66369Y1498074D01*
G01X60759Y1484531D01*
G01X58846Y1469997D01*
G01X58846Y1469997D01*
G01X25654Y1469997D01*
G01X25654Y1679997D01*
G01X798844Y1679997D01*
G01X800758Y1665463D01*
G01X806367Y1651920D01*
G01X815291Y1640290D01*
G01X826921Y1631366D01*
G01X840465Y1625756D01*
G01X854998Y1623843D01*
G01X869532Y1625756D01*
G01X883075Y1631366D01*
G01X894705Y1640290D01*
G01X903629Y1651920D01*
G01X909239Y1665463D01*
G01X910495Y1675007D01*
G01X1873842Y1675007D01*
G01X1875755Y1660473D01*
G01X1881365Y1646930D01*
G01X1890289Y1635300D01*
G01X1901919Y1626376D01*
G01X1915462Y1620766D01*
G01X1929996Y1618853D01*
G01X1944530Y1620766D01*
G01X1958073Y1626376D01*
G01X1969703Y1635300D01*
G01X1978627Y1646930D01*
G01X1984237Y1660473D01*
G01X1986150Y1675007D01*
G01X1984237Y1689541D01*
G01X1978627Y1703084D01*
G01X1969703Y1714714D01*
G01X1958073Y1723638D01*
G01X1944530Y1729248D01*
G01X1929996Y1731161D01*
G01X1915462Y1729248D01*
G01X1901919Y1723638D01*
G01X1890289Y1714714D01*
G01X1881365Y1703084D01*
G01X1875755Y1689541D01*
G01X1873842Y1675007D01*
G01X1873842Y1675007D01*
G01X910495Y1675007D01*
G01X911152Y1679997D01*
G01X909239Y1694530D01*
G01X903629Y1708074D01*
G01X894705Y1719704D01*
G01X883075Y1728627D01*
G01X869532Y1734237D01*
G01X854998Y1736151D01*
G01X840465Y1734237D01*
G01X826921Y1728627D01*
G01X815291Y1719704D01*
G01X806367Y1708074D01*
G01X800758Y1694530D01*
G01X798844Y1679997D01*
G01X798844Y1679997D01*
G01X25654Y1679997D01*
G01X25654Y1849988D01*
G01X109348Y1849988D01*
G01X111120Y1834265D01*
G01X116345Y1819332D01*
G01X124763Y1805935D01*
G01X135951Y1794747D01*
G01X149347Y1786330D01*
G01X164281Y1781104D01*
G01X180003Y1779332D01*
G01X195726Y1781104D01*
G01X210660Y1786330D01*
G01X224056Y1794747D01*
G01X234305Y1804996D01*
G01X463845Y1804996D01*
G01X465758Y1790463D01*
G01X471368Y1776919D01*
G01X480292Y1765289D01*
G01X491922Y1756366D01*
G01X505465Y1750756D01*
G01X519999Y1748842D01*
G01X534533Y1750756D01*
G01X548076Y1756366D01*
G01X552808Y1759996D01*
G01X2498841Y1759996D01*
G01X2500754Y1745463D01*
G01X2506364Y1731919D01*
G01X2515288Y1720290D01*
G01X2526918Y1711366D01*
G01X2540461Y1705756D01*
G01X2554995Y1703842D01*
G01X2569529Y1705756D01*
G01X2579767Y1709997D01*
G01X3728838Y1709997D01*
G01X3730752Y1695463D01*
G01X3736362Y1681920D01*
G01X3745286Y1670290D01*
G01X3756915Y1661366D01*
G01X3770459Y1655756D01*
G01X3784992Y1653843D01*
G01X3799526Y1655756D01*
G01X3813069Y1661366D01*
G01X3824699Y1670290D01*
G01X3833623Y1681920D01*
G01X3839233Y1695463D01*
G01X3841146Y1709997D01*
G01X3839233Y1724530D01*
G01X3833623Y1738074D01*
G01X3824699Y1749704D01*
G01X3813069Y1758627D01*
G01X3799526Y1764237D01*
G01X3784992Y1766151D01*
G01X3770459Y1764237D01*
G01X3756915Y1758627D01*
G01X3745286Y1749704D01*
G01X3736362Y1738074D01*
G01X3730752Y1724530D01*
G01X3728838Y1709997D01*
G01X3728838Y1709997D01*
G01X2579767Y1709997D01*
G01X2583072Y1711366D01*
G01X2594702Y1720290D01*
G01X2603626Y1731919D01*
G01X2609236Y1745463D01*
G01X2611149Y1759996D01*
G01X2609236Y1774530D01*
G01X2603626Y1788074D01*
G01X2594702Y1799703D01*
G01X2583072Y1808627D01*
G01X2569529Y1814237D01*
G01X2554995Y1816151D01*
G01X2540461Y1814237D01*
G01X2526918Y1808627D01*
G01X2515288Y1799703D01*
G01X2506364Y1788074D01*
G01X2500754Y1774530D01*
G01X2498841Y1759996D01*
G01X2498841Y1759996D01*
G01X552808Y1759996D01*
G01X559706Y1765289D01*
G01X568630Y1776919D01*
G01X574240Y1790463D01*
G01X576153Y1804996D01*
G01X574240Y1819530D01*
G01X568630Y1833073D01*
G01X559706Y1844703D01*
G01X548076Y1853627D01*
G01X534533Y1859237D01*
G01X519999Y1861150D01*
G01X505465Y1859237D01*
G01X491922Y1853627D01*
G01X480292Y1844703D01*
G01X471368Y1833073D01*
G01X465758Y1819530D01*
G01X463845Y1804996D01*
G01X463845Y1804996D01*
G01X234305Y1804996D01*
G01X235244Y1805935D01*
G01X243662Y1819332D01*
G01X248887Y1834265D01*
G01X250659Y1849988D01*
G01X248887Y1865710D01*
G01X243888Y1879996D01*
G01X2498841Y1879996D01*
G01X2500754Y1865462D01*
G01X2506364Y1851919D01*
G01X2515288Y1840289D01*
G01X2526918Y1831365D01*
G01X2540461Y1825756D01*
G01X2554995Y1823842D01*
G01X2569529Y1825756D01*
G01X2583072Y1831365D01*
G01X2594702Y1840289D01*
G01X2603626Y1851919D01*
G01X2609236Y1865462D01*
G01X2611149Y1879996D01*
G01X2609236Y1894530D01*
G01X2603626Y1908073D01*
G01X2594702Y1919703D01*
G01X2583072Y1928627D01*
G01X2569529Y1934237D01*
G01X2554995Y1936150D01*
G01X2540461Y1934237D01*
G01X2526918Y1928627D01*
G01X2515288Y1919703D01*
G01X2506364Y1908073D01*
G01X2500754Y1894530D01*
G01X2498841Y1879996D01*
G01X2498841Y1879996D01*
G01X243888Y1879996D01*
G01X243662Y1880644D01*
G01X235244Y1894040D01*
G01X224056Y1905228D01*
G01X210660Y1913646D01*
G01X195726Y1918871D01*
G01X180003Y1920643D01*
G01X164281Y1918871D01*
G01X149347Y1913646D01*
G01X135951Y1905228D01*
G01X124763Y1894040D01*
G01X116345Y1880644D01*
G01X111120Y1865710D01*
G01X109348Y1849988D01*
G01X109348Y1849988D01*
G01X25654Y1849988D01*
G01X25654Y2149987D01*
G01X109348Y2149987D01*
G01X111120Y2134265D01*
G01X116345Y2119331D01*
G01X124763Y2105934D01*
G01X135951Y2094747D01*
G01X149347Y2086329D01*
G01X164281Y2081103D01*
G01X180003Y2079332D01*
G01X195726Y2081103D01*
G01X210660Y2086329D01*
G01X214717Y2088878D01*
G01X897727Y2088878D01*
G01X899640Y2074345D01*
G01X905250Y2060801D01*
G01X914174Y2049172D01*
G01X925804Y2040248D01*
G01X939347Y2034638D01*
G01X953881Y2032724D01*
G01X968414Y2034638D01*
G01X979349Y2039167D01*
G01X1874147Y2039167D01*
G01X1877519Y2025022D01*
G01X1884411Y2012217D01*
G01X1894360Y2001611D01*
G01X1906698Y1993916D01*
G01X1920599Y1989647D01*
G01X1935130Y1989090D01*
G01X1949317Y1992283D01*
G01X1949312Y1977742D01*
G01X1953042Y1963686D01*
G01X1960256Y1951060D01*
G01X1970470Y1940710D01*
G01X1983000Y1933329D01*
G01X1997004Y1929414D01*
G01X2011545Y1929225D01*
G01X2025646Y1932777D01*
G01X2038362Y1939830D01*
G01X2048841Y1949912D01*
G01X2048841Y1949912D01*
G01X2056380Y1962347D01*
G01X2060473Y1976301D01*
G01X2060845Y1990838D01*
G01X2057473Y2004983D01*
G01X2057466Y2004996D01*
G01X3593839Y2004996D01*
G01X3595752Y1990462D01*
G01X3601362Y1976919D01*
G01X3610286Y1965289D01*
G01X3621916Y1956365D01*
G01X3635459Y1950755D01*
G01X3649993Y1948842D01*
G01X3664526Y1950755D01*
G01X3678070Y1956365D01*
G01X3678499Y1956694D01*
G01X4148935Y1956694D01*
G01X4151552Y1942749D01*
G01X4157581Y1929904D01*
G01X4166638Y1918981D01*
G01X4166638Y1794996D01*
G01X4167944Y1785070D01*
G01X4171776Y1775819D01*
G01X4177871Y1767876D01*
G01X4317871Y1627876D01*
G01X4325814Y1621781D01*
G01X4335065Y1617950D01*
G01X4344991Y1616643D01*
G01X8218596Y1616643D01*
G01X8212382Y1604654D01*
G01X8209211Y1591528D01*
G01X8209264Y1578025D01*
G01X8212539Y1564925D01*
G01X8218847Y1552985D01*
G01X8227823Y1542897D01*
G01X8238948Y1535243D01*
G01X8251578Y1530466D01*
G01X8264983Y1528843D01*
G01X8278389Y1530466D01*
G01X8291019Y1535243D01*
G01X8302144Y1542897D01*
G01X8311120Y1552985D01*
G01X8317428Y1564925D01*
G01X8320703Y1578025D01*
G01X8320756Y1591528D01*
G01X8317585Y1604654D01*
G01X8311371Y1616643D01*
G01X8604096Y1616643D01*
G01X8761659Y1459080D01*
G01X8761659Y1196013D01*
G01X8754287Y1187593D01*
G01X8748731Y1177878D01*
G01X8739640Y1189758D01*
G01X8727735Y1198817D01*
G01X8713861Y1204411D01*
G01X8699002Y1206143D01*
G01X8684213Y1203891D01*
G01X8670543Y1197813D01*
G01X8658963Y1188342D01*
G01X8650295Y1176150D01*
G01X8645153Y1162102D01*
G01X8643903Y1147194D01*
G01X8646634Y1132486D01*
G01X8653151Y1119020D01*
G01X8662992Y1107753D01*
G01X8675458Y1099484D01*
G01X8689666Y1094800D01*
G01X8704606Y1094034D01*
G01X8719218Y1097239D01*
G01X8732465Y1104189D01*
G01X8743408Y1114390D01*
G01X8751269Y1127117D01*
G01X8759517Y1116095D01*
G01X8770200Y1107411D01*
G01X8782674Y1101587D01*
G01X8796191Y1098974D01*
G01X8809937Y1099728D01*
G01X8823087Y1103803D01*
G01X8834850Y1110956D01*
G01X8844519Y1120756D01*
G01X8851513Y1132614D01*
G01X8855411Y1145818D01*
G01X8855980Y1159573D01*
G01X8853185Y1173053D01*
G01X8847194Y1185448D01*
G01X8838367Y1196013D01*
G01X8838367Y1474967D01*
G01X8837060Y1484894D01*
G01X8833228Y1494144D01*
G01X8827133Y1502087D01*
G01X8687629Y1641591D01*
G01X8701065Y1638979D01*
G01X8714733Y1639696D01*
G01X8727822Y1643697D01*
G01X8739554Y1650747D01*
G01X8749233Y1660425D01*
G01X8756282Y1672157D01*
G01X8760284Y1685246D01*
G01X8761000Y1698915D01*
G01X8758388Y1712350D01*
G01X8871628Y1599110D01*
G01X8871628Y1221013D01*
G01X8862209Y1209511D01*
G01X8856139Y1195940D01*
G01X8853842Y1181252D01*
G01X8855480Y1166476D01*
G01X8860938Y1152648D01*
G01X8869834Y1140737D01*
G01X8881544Y1131577D01*
G01X8895247Y1125811D01*
G01X8909982Y1123844D01*
G01X8924718Y1125811D01*
G01X8938421Y1131577D01*
G01X8950130Y1140737D01*
G01X8959026Y1152648D01*
G01X8964484Y1166476D01*
G01X8966122Y1181252D01*
G01X8963826Y1195940D01*
G01X8957755Y1209511D01*
G01X8948336Y1221013D01*
G01X8948336Y1474997D01*
G01X9138828Y1474997D01*
G01X9140741Y1460463D01*
G01X9146351Y1446920D01*
G01X9155275Y1435290D01*
G01X9166905Y1426366D01*
G01X9180448Y1420756D01*
G01X9194982Y1418843D01*
G01X9209515Y1420756D01*
G01X9223059Y1426366D01*
G01X9234689Y1435290D01*
G01X9243612Y1446920D01*
G01X9249222Y1460463D01*
G01X9251136Y1474997D01*
G01X9249222Y1489531D01*
G01X9243612Y1503074D01*
G01X9234689Y1514704D01*
G01X9223059Y1523628D01*
G01X9209515Y1529238D01*
G01X9194982Y1531151D01*
G01X9180448Y1529238D01*
G01X9166905Y1523628D01*
G01X9155275Y1514704D01*
G01X9146351Y1503074D01*
G01X9140741Y1489531D01*
G01X9138828Y1474997D01*
G01X9138828Y1474997D01*
G01X8948336Y1474997D01*
G01X8948336Y1614997D01*
G01X8947029Y1624924D01*
G01X8943198Y1634174D01*
G01X8937103Y1642117D01*
G01X8884223Y1694997D01*
G01X9534347Y1694997D01*
G01X9536219Y1677188D01*
G01X9541753Y1660158D01*
G01X9550706Y1644651D01*
G01X9562688Y1631344D01*
G01X9577174Y1620818D01*
G01X9593533Y1613535D01*
G01X9611048Y1609812D01*
G01X9628955Y1609812D01*
G01X9646470Y1613535D01*
G01X9662828Y1620818D01*
G01X9677315Y1631344D01*
G01X9689297Y1644651D01*
G01X9698250Y1660158D01*
G01X9703783Y1677188D01*
G01X9705655Y1694997D01*
G01X9703783Y1712805D01*
G01X9698250Y1729835D01*
G01X9689297Y1745343D01*
G01X9677315Y1758650D01*
G01X9662828Y1769175D01*
G01X9646470Y1776459D01*
G01X9628955Y1780182D01*
G01X9611048Y1780182D01*
G01X9593533Y1776459D01*
G01X9577174Y1769175D01*
G01X9562688Y1758650D01*
G01X9550706Y1745343D01*
G01X9541753Y1729835D01*
G01X9536219Y1712805D01*
G01X9534347Y1694997D01*
G01X9534347Y1694997D01*
G01X8884223Y1694997D01*
G01X8672103Y1907117D01*
G01X8664160Y1913212D01*
G01X8654909Y1917043D01*
G01X8644983Y1918350D01*
G01X4321007Y1918350D01*
G01X4311382Y1926557D01*
G01X4300164Y1932402D01*
G01X4287922Y1935587D01*
G01X4275279Y1935952D01*
G01X4262874Y1933478D01*
G01X4251338Y1928290D01*
G01X4251338Y1928290D01*
G01X4257806Y1940919D01*
G01X4260902Y1954766D01*
G01X4260428Y1968948D01*
G01X4257169Y1979999D01*
G01X5553835Y1979999D01*
G01X5555748Y1965465D01*
G01X5561358Y1951922D01*
G01X5570282Y1940292D01*
G01X5581912Y1931368D01*
G01X5595455Y1925758D01*
G01X5609989Y1923845D01*
G01X5624523Y1925758D01*
G01X5638066Y1931368D01*
G01X5649696Y1940292D01*
G01X5658620Y1951922D01*
G01X5664229Y1965465D01*
G01X5666143Y1979999D01*
G01X5664229Y1994532D01*
G01X5658620Y2008076D01*
G01X5649696Y2019706D01*
G01X5638066Y2028629D01*
G01X5624523Y2034239D01*
G01X5609989Y2036153D01*
G01X5595455Y2034239D01*
G01X5581912Y2028629D01*
G01X5570282Y2019706D01*
G01X5561358Y2008076D01*
G01X5555748Y1994532D01*
G01X5553835Y1979999D01*
G01X5553835Y1979999D01*
G01X4257169Y1979999D01*
G01X4256414Y1982557D01*
G01X4249117Y1994727D01*
G01X4239003Y2004678D01*
G01X4226717Y2011777D01*
G01X4213044Y2015570D01*
G01X4198857Y2015814D01*
G01X4185062Y2012494D01*
G01X4172539Y2005823D01*
G01X4162088Y1996225D01*
G01X4154376Y1984314D01*
G01X4149897Y1970851D01*
G01X4148935Y1956694D01*
G01X3678499Y1956694D01*
G01X3689700Y1965289D01*
G01X3698624Y1976919D01*
G01X3704233Y1990462D01*
G01X3706147Y2004996D01*
G01X3704233Y2019530D01*
G01X3698624Y2033073D01*
G01X3689700Y2044703D01*
G01X3678070Y2053627D01*
G01X3664526Y2059237D01*
G01X3649993Y2061150D01*
G01X3635459Y2059237D01*
G01X3621916Y2053627D01*
G01X3610286Y2044703D01*
G01X3601362Y2033073D01*
G01X3595752Y2019530D01*
G01X3593839Y2004996D01*
G01X3593839Y2004996D01*
G01X2057466Y2004996D01*
G01X2050581Y2017788D01*
G01X2040632Y2028393D01*
G01X2028294Y2036089D01*
G01X2014393Y2040358D01*
G01X1999862Y2040915D01*
G01X1985675Y2037722D01*
G01X1985680Y2052263D01*
G01X1981950Y2066318D01*
G01X1974736Y2078945D01*
G01X1968764Y2084996D01*
G01X4203837Y2084996D01*
G01X4205805Y2070260D01*
G01X4211571Y2056557D01*
G01X4220731Y2044848D01*
G01X4232642Y2035952D01*
G01X4246470Y2030494D01*
G01X4261246Y2028856D01*
G01X4275934Y2031152D01*
G01X4289505Y2037223D01*
G01X4301007Y2046642D01*
G01X7798969Y2046642D01*
G01X7810471Y2037223D01*
G01X7824042Y2031152D01*
G01X7838730Y2028856D01*
G01X7853506Y2030494D01*
G01X7867334Y2035952D01*
G01X7879245Y2044848D01*
G01X7888405Y2056557D01*
G01X7894170Y2070260D01*
G01X7896138Y2084996D01*
G01X7894170Y2099731D01*
G01X7894059Y2099996D01*
G01X8613829Y2099996D01*
G01X8615742Y2085462D01*
G01X8621352Y2071919D01*
G01X8630276Y2060289D01*
G01X8641906Y2051365D01*
G01X8655449Y2045755D01*
G01X8669983Y2043842D01*
G01X8684516Y2045755D01*
G01X8698060Y2051365D01*
G01X8709690Y2060289D01*
G01X8718614Y2071919D01*
G01X8724223Y2085462D01*
G01X8726137Y2099996D01*
G01X8724223Y2114530D01*
G01X8718614Y2128073D01*
G01X8709690Y2139703D01*
G01X8698060Y2148627D01*
G01X8684516Y2154236D01*
G01X8669983Y2156150D01*
G01X8655449Y2154236D01*
G01X8641906Y2148627D01*
G01X8630276Y2139703D01*
G01X8621352Y2128073D01*
G01X8615742Y2114530D01*
G01X8613829Y2099996D01*
G01X8613829Y2099996D01*
G01X7894059Y2099996D01*
G01X7888405Y2113434D01*
G01X7879245Y2125144D01*
G01X7867334Y2134040D01*
G01X7853506Y2139498D01*
G01X7838730Y2141136D01*
G01X7824042Y2138839D01*
G01X7810471Y2132769D01*
G01X7798969Y2123350D01*
G01X4301007Y2123350D01*
G01X4289505Y2132769D01*
G01X4275934Y2138839D01*
G01X4261246Y2141136D01*
G01X4246470Y2139498D01*
G01X4232642Y2134040D01*
G01X4220731Y2125144D01*
G01X4211571Y2113434D01*
G01X4205805Y2099731D01*
G01X4203837Y2084996D01*
G01X4203837Y2084996D01*
G01X1968764Y2084996D01*
G01X1964522Y2089295D01*
G01X1951992Y2096676D01*
G01X1937988Y2100591D01*
G01X1923448Y2100780D01*
G01X1909346Y2097228D01*
G01X1896630Y2090175D01*
G01X1886151Y2080093D01*
G01X1878612Y2067658D01*
G01X1874519Y2053704D01*
G01X1874147Y2039167D01*
G01X979349Y2039167D01*
G01X981958Y2040248D01*
G01X993588Y2049172D01*
G01X1002512Y2060801D01*
G01X1008121Y2074345D01*
G01X1010035Y2088878D01*
G01X1008121Y2103412D01*
G01X1002512Y2116956D01*
G01X993588Y2128585D01*
G01X981958Y2137509D01*
G01X968414Y2143119D01*
G01X953881Y2145033D01*
G01X939347Y2143119D01*
G01X925804Y2137509D01*
G01X914174Y2128585D01*
G01X905250Y2116956D01*
G01X899640Y2103412D01*
G01X897727Y2088878D01*
G01X897727Y2088878D01*
G01X214717Y2088878D01*
G01X224056Y2094747D01*
G01X235244Y2105934D01*
G01X243662Y2119331D01*
G01X248887Y2134265D01*
G01X250659Y2149987D01*
G01X248887Y2165709D01*
G01X243662Y2180643D01*
G01X235244Y2194040D01*
G01X234288Y2194996D01*
G01X1113844Y2194996D01*
G01X1115757Y2180462D01*
G01X1121367Y2166919D01*
G01X1130291Y2155289D01*
G01X1141921Y2146365D01*
G01X1155464Y2140755D01*
G01X1169998Y2138842D01*
G01X1184531Y2140755D01*
G01X1198075Y2146365D01*
G01X1209705Y2155289D01*
G01X1218629Y2166919D01*
G01X1224045Y2179996D01*
G01X1443843Y2179996D01*
G01X1445756Y2165462D01*
G01X1451366Y2151919D01*
G01X1460290Y2140289D01*
G01X1471920Y2131365D01*
G01X1485463Y2125755D01*
G01X1499997Y2123842D01*
G01X1514531Y2125755D01*
G01X1528074Y2131365D01*
G01X1539704Y2140289D01*
G01X1548628Y2151919D01*
G01X1554238Y2165462D01*
G01X1556151Y2179996D01*
G01X1554238Y2194529D01*
G01X1548628Y2208073D01*
G01X1543316Y2214996D01*
G01X2103842Y2214996D01*
G01X2105755Y2200462D01*
G01X2111365Y2186919D01*
G01X2120289Y2175289D01*
G01X2131919Y2166365D01*
G01X2145462Y2160755D01*
G01X2159996Y2158842D01*
G01X2174529Y2160755D01*
G01X2188073Y2166365D01*
G01X2199703Y2175289D01*
G01X2208627Y2186919D01*
G01X2214236Y2200462D01*
G01X2216150Y2214996D01*
G01X2214236Y2229529D01*
G01X2211972Y2234996D01*
G01X2518841Y2234996D01*
G01X2520754Y2220462D01*
G01X2526364Y2206918D01*
G01X2535288Y2195289D01*
G01X2546918Y2186365D01*
G01X2560461Y2180755D01*
G01X2574995Y2178841D01*
G01X2589529Y2180755D01*
G01X2603072Y2186365D01*
G01X2614702Y2195289D01*
G01X2623626Y2206918D01*
G01X2626967Y2214986D01*
G01X4203837Y2214986D01*
G01X4205805Y2200250D01*
G01X4211571Y2186547D01*
G01X4220731Y2174838D01*
G01X4232642Y2165942D01*
G01X4246470Y2160484D01*
G01X4261246Y2158846D01*
G01X4275934Y2161142D01*
G01X4289505Y2167213D01*
G01X4301007Y2176632D01*
G01X8138968Y2176632D01*
G01X8150470Y2167213D01*
G01X8164041Y2161142D01*
G01X8178729Y2158846D01*
G01X8193505Y2160484D01*
G01X8207333Y2165942D01*
G01X8219244Y2174838D01*
G01X8228404Y2186547D01*
G01X8234170Y2200250D01*
G01X8236138Y2214986D01*
G01X8234170Y2229721D01*
G01X8228404Y2243424D01*
G01X8219244Y2255134D01*
G01X8207333Y2264029D01*
G01X8193505Y2269488D01*
G01X8178729Y2271126D01*
G01X8164041Y2268829D01*
G01X8150470Y2262759D01*
G01X8138968Y2253340D01*
G01X4301007Y2253340D01*
G01X4289505Y2262759D01*
G01X4275934Y2268829D01*
G01X4261246Y2271126D01*
G01X4246470Y2269488D01*
G01X4232642Y2264029D01*
G01X4220731Y2255134D01*
G01X4211571Y2243424D01*
G01X4205805Y2229721D01*
G01X4203837Y2214986D01*
G01X4203837Y2214986D01*
G01X2626967Y2214986D01*
G01X2629236Y2220462D01*
G01X2631149Y2234996D01*
G01X2629236Y2249529D01*
G01X2623626Y2263073D01*
G01X2614702Y2274702D01*
G01X2603072Y2283626D01*
G01X2589529Y2289236D01*
G01X2583762Y2289995D01*
G01X3463839Y2289995D01*
G01X3465752Y2275462D01*
G01X3471362Y2261918D01*
G01X3480286Y2250288D01*
G01X3491916Y2241365D01*
G01X3505459Y2235755D01*
G01X3519993Y2233841D01*
G01X3534527Y2235755D01*
G01X3548070Y2241365D01*
G01X3559700Y2250288D01*
G01X3568624Y2261918D01*
G01X3574234Y2275462D01*
G01X3576147Y2289995D01*
G01X3574234Y2304529D01*
G01X3568624Y2318072D01*
G01X3559700Y2329702D01*
G01X3548070Y2338626D01*
G01X3544765Y2339995D01*
G01X4203837Y2339995D01*
G01X4205805Y2325260D01*
G01X4211571Y2311557D01*
G01X4220731Y2299847D01*
G01X4232642Y2290952D01*
G01X4246470Y2285493D01*
G01X4261246Y2283855D01*
G01X4275934Y2286152D01*
G01X4289505Y2292222D01*
G01X4301007Y2301641D01*
G01X4339991Y2301641D01*
G01X4349918Y2302948D01*
G01X4359168Y2306780D01*
G01X4367112Y2312875D01*
G01X4379232Y2324995D01*
G01X4723836Y2324995D01*
G01X4725750Y2310462D01*
G01X4731360Y2296918D01*
G01X4740284Y2285288D01*
G01X4751913Y2276365D01*
G01X4765457Y2270755D01*
G01X4779990Y2268841D01*
G01X4794524Y2270755D01*
G01X4808067Y2276365D01*
G01X4819697Y2285288D01*
G01X4828621Y2296918D01*
G01X4834231Y2310462D01*
G01X4836145Y2324995D01*
G01X4834231Y2339529D01*
G01X4828621Y2353072D01*
G01X4819697Y2364702D01*
G01X4808067Y2373626D01*
G01X4794524Y2379236D01*
G01X4779990Y2381149D01*
G01X4765457Y2379236D01*
G01X4751913Y2373626D01*
G01X4740284Y2364702D01*
G01X4731360Y2353072D01*
G01X4725750Y2339529D01*
G01X4723836Y2324995D01*
G01X4723836Y2324995D01*
G01X4379232Y2324995D01*
G01X4450878Y2396641D01*
G01X8913967Y2396641D01*
G01X8925469Y2387222D01*
G01X8939039Y2381152D01*
G01X8953727Y2378855D01*
G01X8968503Y2380493D01*
G01X8982332Y2385951D01*
G01X8994243Y2394847D01*
G01X9003402Y2406557D01*
G01X9009168Y2420259D01*
G01X9011136Y2434995D01*
G01X9009168Y2449731D01*
G01X9003402Y2463434D01*
G01X8994243Y2475143D01*
G01X8982332Y2484039D01*
G01X8968503Y2489497D01*
G01X8953727Y2491135D01*
G01X8939039Y2488839D01*
G01X8925469Y2482768D01*
G01X8913967Y2473349D01*
G01X4434991Y2473349D01*
G01X4425064Y2472042D01*
G01X4415814Y2468211D01*
G01X4407871Y2462116D01*
G01X4324105Y2378349D01*
G01X4324105Y2378349D01*
G01X4301007Y2378349D01*
G01X4289505Y2387768D01*
G01X4275934Y2393839D01*
G01X4261246Y2396135D01*
G01X4246470Y2394497D01*
G01X4232642Y2389039D01*
G01X4220731Y2380143D01*
G01X4211571Y2368434D01*
G01X4205805Y2354731D01*
G01X4203837Y2339995D01*
G01X3544765Y2339995D01*
G01X3534527Y2344236D01*
G01X3519993Y2346149D01*
G01X3505459Y2344236D01*
G01X3491916Y2338626D01*
G01X3480286Y2329702D01*
G01X3471362Y2318072D01*
G01X3465752Y2304529D01*
G01X3463839Y2289995D01*
G01X3463839Y2289995D01*
G01X2583762Y2289995D01*
G01X2574995Y2291150D01*
G01X2560461Y2289236D01*
G01X2546918Y2283626D01*
G01X2535288Y2274702D01*
G01X2526364Y2263073D01*
G01X2520754Y2249529D01*
G01X2518841Y2234996D01*
G01X2518841Y2234996D01*
G01X2211972Y2234996D01*
G01X2208627Y2243073D01*
G01X2199703Y2254702D01*
G01X2188073Y2263626D01*
G01X2174529Y2269236D01*
G01X2159996Y2271150D01*
G01X2145462Y2269236D01*
G01X2131919Y2263626D01*
G01X2120289Y2254702D01*
G01X2111365Y2243073D01*
G01X2105755Y2229529D01*
G01X2103842Y2214996D01*
G01X2103842Y2214996D01*
G01X1543316Y2214996D01*
G01X1539704Y2219703D01*
G01X1528074Y2228626D01*
G01X1514531Y2234236D01*
G01X1499997Y2236150D01*
G01X1485463Y2234236D01*
G01X1471920Y2228626D01*
G01X1460290Y2219703D01*
G01X1451366Y2208073D01*
G01X1445756Y2194529D01*
G01X1443843Y2179996D01*
G01X1443843Y2179996D01*
G01X1224045Y2179996D01*
G01X1224238Y2180462D01*
G01X1226152Y2194996D01*
G01X1224238Y2209529D01*
G01X1218629Y2223073D01*
G01X1209705Y2234703D01*
G01X1198075Y2243626D01*
G01X1184531Y2249236D01*
G01X1169998Y2251150D01*
G01X1155464Y2249236D01*
G01X1141921Y2243626D01*
G01X1130291Y2234703D01*
G01X1121367Y2223073D01*
G01X1115757Y2209529D01*
G01X1113844Y2194996D01*
G01X1113844Y2194996D01*
G01X234288Y2194996D01*
G01X224056Y2205228D01*
G01X210660Y2213645D01*
G01X195726Y2218871D01*
G01X180003Y2220642D01*
G01X164281Y2218871D01*
G01X149347Y2213645D01*
G01X135951Y2205228D01*
G01X124763Y2194040D01*
G01X116345Y2180643D01*
G01X111120Y2165709D01*
G01X109348Y2149987D01*
G01X109348Y2149987D01*
G01X25654Y2149987D01*
G01X25654Y2324993D01*
G01X1873842Y2324993D01*
G01X1875755Y2310459D01*
G01X1881365Y2296916D01*
G01X1890289Y2285286D01*
G01X1901919Y2276362D01*
G01X1915462Y2270752D01*
G01X1929996Y2268839D01*
G01X1944530Y2270752D01*
G01X1958073Y2276362D01*
G01X1969703Y2285286D01*
G01X1978627Y2296916D01*
G01X1984237Y2310459D01*
G01X1986150Y2324993D01*
G01X1984237Y2339527D01*
G01X1978627Y2353070D01*
G01X1969703Y2364700D01*
G01X1958073Y2373624D01*
G01X1944530Y2379234D01*
G01X1929996Y2381147D01*
G01X1915462Y2379234D01*
G01X1901919Y2373624D01*
G01X1890289Y2364700D01*
G01X1881365Y2353070D01*
G01X1875755Y2339527D01*
G01X1873842Y2324993D01*
G01X1873842Y2324993D01*
G01X25654Y2324993D01*
G01X25654Y2464995D01*
G01X2498841Y2464995D01*
G01X2500754Y2450461D01*
G01X2506364Y2436918D01*
G01X2515288Y2425288D01*
G01X2526918Y2416364D01*
G01X2540461Y2410754D01*
G01X2554995Y2408841D01*
G01X2569529Y2410754D01*
G01X2583072Y2416364D01*
G01X2594702Y2425288D01*
G01X2603626Y2436918D01*
G01X2609236Y2450461D01*
G01X2611149Y2464995D01*
G01X2611066Y2465622D01*
G01X4203841Y2465622D01*
G01X4205644Y2450866D01*
G01X4211256Y2437099D01*
G01X4220285Y2425288D01*
G01X4232096Y2416260D01*
G01X4245862Y2410648D01*
G01X4260619Y2408845D01*
G01X4275332Y2410977D01*
G01X4288969Y2416895D01*
G01X4300576Y2426185D01*
G01X4309338Y2438195D01*
G01X4314641Y2452084D01*
G01X4316114Y2466877D01*
G01X4355878Y2506641D01*
G01X9003967Y2506641D01*
G01X9015469Y2497222D01*
G01X9029039Y2491152D01*
G01X9043727Y2488855D01*
G01X9058503Y2490493D01*
G01X9069910Y2494995D01*
G01X9534347Y2494995D01*
G01X9536219Y2477187D01*
G01X9541753Y2460157D01*
G01X9550706Y2444649D01*
G01X9562688Y2431342D01*
G01X9577174Y2420817D01*
G01X9593533Y2413534D01*
G01X9611048Y2409811D01*
G01X9628955Y2409811D01*
G01X9646470Y2413534D01*
G01X9662828Y2420817D01*
G01X9677315Y2431342D01*
G01X9689297Y2444649D01*
G01X9698250Y2460157D01*
G01X9703783Y2477187D01*
G01X9705655Y2494995D01*
G01X9703783Y2512804D01*
G01X9698250Y2529834D01*
G01X9689297Y2545341D01*
G01X9677315Y2558649D01*
G01X9662828Y2569174D01*
G01X9646470Y2576457D01*
G01X9628955Y2580180D01*
G01X9611048Y2580180D01*
G01X9593533Y2576457D01*
G01X9577174Y2569174D01*
G01X9562688Y2558649D01*
G01X9550706Y2545341D01*
G01X9541753Y2529834D01*
G01X9536219Y2512804D01*
G01X9534347Y2494995D01*
G01X9534347Y2494995D01*
G01X9069910Y2494995D01*
G01X9072331Y2495951D01*
G01X9084243Y2504847D01*
G01X9093402Y2516556D01*
G01X9099168Y2530259D01*
G01X9101136Y2544995D01*
G01X9099168Y2559731D01*
G01X9093402Y2573433D01*
G01X9084243Y2585143D01*
G01X9072331Y2594039D01*
G01X9058503Y2599497D01*
G01X9043727Y2601135D01*
G01X9029039Y2598838D01*
G01X9015469Y2592768D01*
G01X9003967Y2583349D01*
G01X4339991Y2583349D01*
G01X4330860Y2582246D01*
G01X4322255Y2579001D01*
G01X4314669Y2573801D01*
G01X4316123Y2588202D01*
G01X4313847Y2602496D01*
G01X4307994Y2615733D01*
G01X4298951Y2627035D01*
G01X4287321Y2635650D01*
G01X4273874Y2641005D01*
G01X4259506Y2642746D01*
G01X4245169Y2640757D01*
G01X4231817Y2635169D01*
G01X4220338Y2626354D01*
G01X4220338Y2626354D01*
G01X4211492Y2614898D01*
G01X4205869Y2601561D01*
G01X4203841Y2587230D01*
G01X4205544Y2572857D01*
G01X4210864Y2559396D01*
G01X4219448Y2547743D01*
G01X4230725Y2538670D01*
G01X4243947Y2532781D01*
G01X4258234Y2530468D01*
G01X4272639Y2531883D01*
G01X4261873Y2521118D01*
G01X4247080Y2519645D01*
G01X4233192Y2514341D01*
G01X4221182Y2505579D01*
G01X4211892Y2493973D01*
G01X4205973Y2480335D01*
G01X4203841Y2465622D01*
G01X2611066Y2465622D01*
G01X2609236Y2479529D01*
G01X2603626Y2493072D01*
G01X2594702Y2504702D01*
G01X2583072Y2513626D01*
G01X2569529Y2519236D01*
G01X2554995Y2521149D01*
G01X2540461Y2519236D01*
G01X2526918Y2513626D01*
G01X2515288Y2504702D01*
G01X2506364Y2493072D01*
G01X2500754Y2479529D01*
G01X2498841Y2464995D01*
G01X2498841Y2464995D01*
G01X25654Y2464995D01*
G01X25654Y2629995D01*
G01X1978842Y2629995D01*
G01X1980755Y2615461D01*
G01X1986365Y2601918D01*
G01X1995289Y2590288D01*
G01X2006919Y2581364D01*
G01X2020462Y2575754D01*
G01X2034996Y2573841D01*
G01X2049530Y2575754D01*
G01X2063073Y2581364D01*
G01X2074703Y2590288D01*
G01X2083627Y2601918D01*
G01X2089237Y2615461D01*
G01X2091150Y2629995D01*
G01X2089237Y2644528D01*
G01X2089043Y2644995D01*
G01X2628841Y2644995D01*
G01X2630754Y2630461D01*
G01X2636364Y2616918D01*
G01X2645288Y2605288D01*
G01X2656918Y2596364D01*
G01X2670461Y2590754D01*
G01X2684995Y2588841D01*
G01X2699528Y2590754D01*
G01X2713072Y2596364D01*
G01X2724702Y2605288D01*
G01X2733625Y2616918D01*
G01X2739235Y2630461D01*
G01X2741149Y2644995D01*
G01X2739235Y2659528D01*
G01X2733625Y2673072D01*
G01X2724702Y2684702D01*
G01X2713072Y2693626D01*
G01X2699528Y2699235D01*
G01X2684995Y2701149D01*
G01X2670461Y2699235D01*
G01X2656918Y2693626D01*
G01X2645288Y2684702D01*
G01X2636364Y2673072D01*
G01X2630754Y2659528D01*
G01X2628841Y2644995D01*
G01X2628841Y2644995D01*
G01X2089043Y2644995D01*
G01X2083627Y2658072D01*
G01X2074703Y2669702D01*
G01X2063073Y2678626D01*
G01X2049530Y2684235D01*
G01X2034996Y2686149D01*
G01X2020462Y2684235D01*
G01X2006919Y2678626D01*
G01X1995289Y2669702D01*
G01X1986365Y2658072D01*
G01X1980755Y2644528D01*
G01X1978842Y2629995D01*
G01X1978842Y2629995D01*
G01X25654Y2629995D01*
G01X25654Y2834315D01*
G01X27457Y2871007D01*
G01X32847Y2907346D01*
G01X40826Y2939200D01*
G01X1564000Y2939200D01*
G01X1564694Y2925254D01*
G01X1568807Y2911911D01*
G01X1576085Y2899994D01*
G01X1568807Y2888078D01*
G01X1564694Y2874734D01*
G01X1564000Y2860788D01*
G01X1566769Y2847102D01*
G01X1572829Y2834522D01*
G01X1581806Y2823827D01*
G01X1593144Y2815677D01*
G01X1606142Y2810576D01*
G01X1619997Y2808840D01*
G01X1619997Y2808840D01*
G01X1633852Y2810576D01*
G01X1646850Y2815677D01*
G01X1658188Y2823827D01*
G01X1667164Y2834522D01*
G01X1673224Y2847102D01*
G01X1673833Y2850112D01*
G01X1758842Y2850112D01*
G01X1760529Y2836336D01*
G01X1765542Y2823395D01*
G01X1773575Y2812079D01*
G01X1784139Y2803078D01*
G01X1796588Y2796943D01*
G01X1810161Y2794049D01*
G01X1824029Y2794571D01*
G01X1824616Y2780706D01*
G01X1828585Y2767407D01*
G01X1835695Y2755489D01*
G01X1845510Y2745677D01*
G01X1857432Y2738573D01*
G01X1870732Y2734610D01*
G01X1884598Y2734029D01*
G01X1898183Y2736867D01*
G01X1904597Y2739995D01*
G01X2568841Y2739995D01*
G01X2570754Y2725461D01*
G01X2576364Y2711917D01*
G01X2585288Y2700288D01*
G01X2596918Y2691364D01*
G01X2610461Y2685754D01*
G01X2624995Y2683840D01*
G01X2639528Y2685754D01*
G01X2653072Y2691364D01*
G01X2664702Y2700288D01*
G01X2673626Y2711917D01*
G01X2679235Y2725461D01*
G01X2681149Y2739995D01*
G01X2679235Y2754528D01*
G01X2673626Y2768072D01*
G01X2664702Y2779701D01*
G01X2653072Y2788625D01*
G01X2649767Y2789994D01*
G01X4943846Y2789994D01*
G01X4945759Y2775461D01*
G01X4951369Y2761917D01*
G01X4960293Y2750287D01*
G01X4971923Y2741364D01*
G01X4985466Y2735754D01*
G01X5000000Y2733840D01*
G01X5014534Y2735754D01*
G01X5028077Y2741364D01*
G01X5039707Y2750287D01*
G01X5048631Y2761917D01*
G01X5054241Y2775461D01*
G01X5056154Y2789994D01*
G01X5054241Y2804528D01*
G01X5048631Y2818071D01*
G01X5039707Y2829701D01*
G01X5028077Y2838625D01*
G01X5014534Y2844235D01*
G01X5000000Y2846148D01*
G01X4985466Y2844235D01*
G01X4971923Y2838625D01*
G01X4960293Y2829701D01*
G01X4951369Y2818071D01*
G01X4945759Y2804528D01*
G01X4943846Y2789994D01*
G01X4943846Y2789994D01*
G01X2649767Y2789994D01*
G01X2639528Y2794235D01*
G01X2624995Y2796149D01*
G01X2610461Y2794235D01*
G01X2596918Y2788625D01*
G01X2585288Y2779701D01*
G01X2576364Y2768072D01*
G01X2570754Y2754528D01*
G01X2568841Y2739995D01*
G01X2568841Y2739995D01*
G01X1904597Y2739995D01*
G01X1910657Y2742950D01*
G01X1921258Y2751906D01*
G01X1921258Y2751906D01*
G01X1929339Y2763189D01*
G01X1934406Y2776109D01*
G01X1936150Y2789877D01*
G01X1934464Y2803653D01*
G01X1929451Y2816594D01*
G01X1921417Y2827910D01*
G01X1910853Y2836910D01*
G01X1898405Y2843045D01*
G01X1884832Y2845940D01*
G01X1870964Y2845417D01*
G01X1870770Y2849994D01*
G01X4168837Y2849994D01*
G01X4170751Y2835461D01*
G01X4176361Y2821917D01*
G01X4185285Y2810287D01*
G01X4196915Y2801363D01*
G01X4210458Y2795754D01*
G01X4224992Y2793840D01*
G01X4239525Y2795754D01*
G01X4253069Y2801363D01*
G01X4264698Y2810287D01*
G01X4273622Y2821917D01*
G01X4279232Y2835461D01*
G01X4281146Y2849994D01*
G01X6158834Y2849994D01*
G01X6160747Y2835461D01*
G01X6166357Y2821917D01*
G01X6175281Y2810287D01*
G01X6186911Y2801363D01*
G01X6200454Y2795754D01*
G01X6214988Y2793840D01*
G01X6229521Y2795754D01*
G01X6243065Y2801363D01*
G01X6254694Y2810287D01*
G01X6263618Y2821917D01*
G01X6269228Y2835461D01*
G01X6271142Y2849994D01*
G01X6269228Y2864528D01*
G01X6264949Y2874860D01*
G01X7638831Y2874860D01*
G01X7640744Y2860326D01*
G01X7646354Y2846783D01*
G01X7655278Y2835153D01*
G01X7666908Y2826229D01*
G01X7680451Y2820619D01*
G01X7694985Y2818706D01*
G01X7709518Y2820619D01*
G01X7723062Y2826229D01*
G01X7734692Y2835153D01*
G01X7743615Y2846783D01*
G01X7749225Y2860326D01*
G01X7751139Y2874860D01*
G01X7749225Y2889393D01*
G01X7743615Y2902937D01*
G01X7734692Y2914567D01*
G01X7723062Y2923490D01*
G01X7709518Y2929100D01*
G01X7694985Y2931014D01*
G01X7680451Y2929100D01*
G01X7666908Y2923490D01*
G01X7655278Y2914567D01*
G01X7646354Y2902937D01*
G01X7640744Y2889393D01*
G01X7638831Y2874860D01*
G01X7638831Y2874860D01*
G01X6264949Y2874860D01*
G01X6263618Y2878071D01*
G01X6254694Y2889701D01*
G01X6243065Y2898625D01*
G01X6229521Y2904235D01*
G01X6214988Y2906148D01*
G01X6200454Y2904235D01*
G01X6186911Y2898625D01*
G01X6175281Y2889701D01*
G01X6166357Y2878071D01*
G01X6160747Y2864528D01*
G01X6158834Y2849994D01*
G01X6158834Y2849994D01*
G01X4281146Y2849994D01*
G01X4279232Y2864528D01*
G01X4273622Y2878071D01*
G01X4264698Y2889701D01*
G01X4253069Y2898625D01*
G01X4239525Y2904235D01*
G01X4224992Y2906148D01*
G01X4210458Y2904235D01*
G01X4196915Y2898625D01*
G01X4185285Y2889701D01*
G01X4176361Y2878071D01*
G01X4170751Y2864528D01*
G01X4168837Y2849994D01*
G01X4168837Y2849994D01*
G01X1870770Y2849994D01*
G01X1870377Y2859283D01*
G01X1866407Y2872581D01*
G01X1859298Y2884500D01*
G01X1849482Y2894311D01*
G01X1837560Y2901415D01*
G01X1824260Y2905379D01*
G01X1810394Y2905959D01*
G01X1796809Y2903122D01*
G01X1784335Y2897039D01*
G01X1773734Y2888082D01*
G01X1765653Y2876800D01*
G01X1760586Y2863880D01*
G01X1758842Y2850112D01*
G01X1673833Y2850112D01*
G01X1675993Y2860788D01*
G01X1675300Y2874734D01*
G01X1671187Y2888078D01*
G01X1663909Y2899994D01*
G01X1671187Y2911911D01*
G01X1675300Y2925254D01*
G01X1675993Y2939200D01*
G01X1673224Y2952886D01*
G01X1667164Y2965466D01*
G01X1659167Y2974994D01*
G01X2423841Y2974994D01*
G01X2425754Y2960460D01*
G01X2431364Y2946917D01*
G01X2440288Y2935287D01*
G01X2451918Y2926363D01*
G01X2465461Y2920753D01*
G01X2479995Y2918840D01*
G01X2494529Y2920753D01*
G01X2508072Y2926363D01*
G01X2519702Y2935287D01*
G01X2528626Y2946917D01*
G01X2534236Y2960460D01*
G01X2536149Y2974994D01*
G01X2534236Y2989528D01*
G01X2529900Y2999994D01*
G01X5248835Y2999994D01*
G01X5250749Y2985460D01*
G01X5256359Y2971917D01*
G01X5265282Y2960287D01*
G01X5276912Y2951363D01*
G01X5290456Y2945753D01*
G01X5304989Y2943840D01*
G01X5319523Y2945753D01*
G01X5333066Y2951363D01*
G01X5344314Y2959994D01*
G01X8813828Y2959994D01*
G01X8815742Y2945460D01*
G01X8821351Y2931917D01*
G01X8830275Y2920287D01*
G01X8841905Y2911363D01*
G01X8855449Y2905753D01*
G01X8869982Y2903840D01*
G01X8884516Y2905753D01*
G01X8898059Y2911363D01*
G01X8909689Y2920287D01*
G01X8918613Y2931917D01*
G01X8924223Y2945460D01*
G01X8926136Y2959994D01*
G01X8924223Y2974528D01*
G01X8918613Y2988071D01*
G01X8909689Y2999701D01*
G01X8898059Y3008625D01*
G01X8884516Y3014235D01*
G01X8869982Y3016148D01*
G01X8855449Y3014235D01*
G01X8841905Y3008625D01*
G01X8830275Y2999701D01*
G01X8821351Y2988071D01*
G01X8815742Y2974528D01*
G01X8813828Y2959994D01*
G01X8813828Y2959994D01*
G01X5344314Y2959994D01*
G01X5344696Y2960287D01*
G01X5353620Y2971917D01*
G01X5359230Y2985460D01*
G01X5361143Y2999994D01*
G01X5359230Y3014528D01*
G01X5353620Y3028071D01*
G01X5344696Y3039701D01*
G01X5333066Y3048625D01*
G01X5319523Y3054235D01*
G01X5304989Y3056148D01*
G01X5290456Y3054235D01*
G01X5276912Y3048625D01*
G01X5265282Y3039701D01*
G01X5256359Y3028071D01*
G01X5250749Y3014528D01*
G01X5248835Y2999994D01*
G01X5248835Y2999994D01*
G01X2529900Y2999994D01*
G01X2528626Y3003071D01*
G01X2519702Y3014701D01*
G01X2508072Y3023625D01*
G01X2494529Y3029235D01*
G01X2479995Y3031148D01*
G01X2465461Y3029235D01*
G01X2451918Y3023625D01*
G01X2440288Y3014701D01*
G01X2431364Y3003071D01*
G01X2425754Y2989528D01*
G01X2423841Y2974994D01*
G01X2423841Y2974994D01*
G01X1659167Y2974994D01*
G01X1658188Y2976161D01*
G01X1646850Y2984311D01*
G01X1633852Y2989412D01*
G01X1619997Y2991148D01*
G01X1606142Y2989412D01*
G01X1593144Y2984311D01*
G01X1581806Y2976161D01*
G01X1572829Y2965466D01*
G01X1566769Y2952886D01*
G01X1564000Y2939200D01*
G01X40826Y2939200D01*
G01X41773Y2942982D01*
G01X54149Y2977571D01*
G01X69856Y3010780D01*
G01X88743Y3042290D01*
G01X110627Y3071797D01*
G01X131651Y3094994D01*
G01X789555Y3094994D01*
G01X791468Y3080460D01*
G01X797078Y3066917D01*
G01X806002Y3055287D01*
G01X817632Y3046363D01*
G01X831175Y3040753D01*
G01X845709Y3038840D01*
G01X860243Y3040753D01*
G01X873786Y3046363D01*
G01X885416Y3055287D01*
G01X894340Y3066917D01*
G01X899950Y3080460D01*
G01X901863Y3094994D01*
G01X1314180Y3094994D01*
G01X1316093Y3080460D01*
G01X1321703Y3066917D01*
G01X1330627Y3055287D01*
G01X1342257Y3046363D01*
G01X1355800Y3040753D01*
G01X1370334Y3038840D01*
G01X1384868Y3040753D01*
G01X1398411Y3046363D01*
G01X1410041Y3055287D01*
G01X1418965Y3066917D01*
G01X1424574Y3080460D01*
G01X1426488Y3094994D01*
G01X1425171Y3104994D01*
G01X3463839Y3104994D01*
G01X3465752Y3090460D01*
G01X3471362Y3076917D01*
G01X3480286Y3065287D01*
G01X3491916Y3056363D01*
G01X3505459Y3050753D01*
G01X3519993Y3048840D01*
G01X3534527Y3050753D01*
G01X3548070Y3056363D01*
G01X3559700Y3065287D01*
G01X3563312Y3069994D01*
G01X5428835Y3069994D01*
G01X5430748Y3055460D01*
G01X5436358Y3041917D01*
G01X5445282Y3030287D01*
G01X5456912Y3021363D01*
G01X5470455Y3015753D01*
G01X5484989Y3013840D01*
G01X5499523Y3015753D01*
G01X5513066Y3021363D01*
G01X5524696Y3030287D01*
G01X5533620Y3041917D01*
G01X5539230Y3055460D01*
G01X5541143Y3069994D01*
G01X5539230Y3084528D01*
G01X5533620Y3098071D01*
G01X5524696Y3109701D01*
G01X5513066Y3118625D01*
G01X5499523Y3124235D01*
G01X5484989Y3126148D01*
G01X5470455Y3124235D01*
G01X5456912Y3118625D01*
G01X5445282Y3109701D01*
G01X5436358Y3098071D01*
G01X5430748Y3084528D01*
G01X5428835Y3069994D01*
G01X5428835Y3069994D01*
G01X3563312Y3069994D01*
G01X3568624Y3076917D01*
G01X3574234Y3090460D01*
G01X3576147Y3104994D01*
G01X3574234Y3119528D01*
G01X3568624Y3133071D01*
G01X3559700Y3144701D01*
G01X3548070Y3153625D01*
G01X3534527Y3159234D01*
G01X3519993Y3161148D01*
G01X3505459Y3159234D01*
G01X3491916Y3153625D01*
G01X3480286Y3144701D01*
G01X3471362Y3133071D01*
G01X3465752Y3119528D01*
G01X3463839Y3104994D01*
G01X3463839Y3104994D01*
G01X1425171Y3104994D01*
G01X1424574Y3109528D01*
G01X1418965Y3123071D01*
G01X1410041Y3134701D01*
G01X1398411Y3143625D01*
G01X1384868Y3149234D01*
G01X1370334Y3151148D01*
G01X1355800Y3149234D01*
G01X1342257Y3143625D01*
G01X1330627Y3134701D01*
G01X1321703Y3123071D01*
G01X1316093Y3109528D01*
G01X1314180Y3094994D01*
G01X1314180Y3094994D01*
G01X901863Y3094994D01*
G01X899950Y3109528D01*
G01X894340Y3123071D01*
G01X885416Y3134701D01*
G01X873786Y3143625D01*
G01X860243Y3149234D01*
G01X845709Y3151148D01*
G01X831175Y3149234D01*
G01X817632Y3143625D01*
G01X806002Y3134701D01*
G01X797078Y3123071D01*
G01X791468Y3109528D01*
G01X789555Y3094994D01*
G01X789555Y3094994D01*
G01X131651Y3094994D01*
G01X135297Y3099017D01*
G01X206274Y3169994D01*
G01X1798842Y3169994D01*
G01X1800756Y3155460D01*
G01X1806365Y3141917D01*
G01X1815289Y3130287D01*
G01X1826919Y3121363D01*
G01X1840463Y3115753D01*
G01X1854996Y3113840D01*
G01X1869530Y3115753D01*
G01X1883073Y3121363D01*
G01X1894703Y3130287D01*
G01X1903627Y3141917D01*
G01X1909237Y3155460D01*
G01X1911150Y3169994D01*
G01X1909237Y3184527D01*
G01X1906973Y3189994D01*
G01X6438833Y3189994D01*
G01X6440746Y3175460D01*
G01X6446356Y3161917D01*
G01X6455280Y3150287D01*
G01X6466910Y3141363D01*
G01X6480453Y3135753D01*
G01X6494987Y3133840D01*
G01X6509521Y3135753D01*
G01X6523064Y3141363D01*
G01X6534694Y3150287D01*
G01X6543618Y3161917D01*
G01X6549228Y3175460D01*
G01X6551141Y3189994D01*
G01X8823828Y3189994D01*
G01X8825742Y3175460D01*
G01X8831351Y3161917D01*
G01X8840275Y3150287D01*
G01X8851905Y3141363D01*
G01X8865448Y3135753D01*
G01X8879982Y3133840D01*
G01X8894516Y3135753D01*
G01X8908059Y3141363D01*
G01X8919689Y3150287D01*
G01X8928613Y3161917D01*
G01X8934223Y3175460D01*
G01X8936136Y3189994D01*
G01X8934223Y3204527D01*
G01X8928613Y3218071D01*
G01X8919689Y3229701D01*
G01X8908059Y3238624D01*
G01X8894516Y3244234D01*
G01X8879982Y3246148D01*
G01X8865448Y3244234D01*
G01X8851905Y3238624D01*
G01X8840275Y3229701D01*
G01X8831351Y3218071D01*
G01X8825742Y3204527D01*
G01X8823828Y3189994D01*
G01X8823828Y3189994D01*
G01X6551141Y3189994D01*
G01X6549228Y3204527D01*
G01X6543618Y3218071D01*
G01X6534694Y3229701D01*
G01X6523064Y3238624D01*
G01X6509521Y3244234D01*
G01X6494987Y3246148D01*
G01X6480453Y3244234D01*
G01X6466910Y3238624D01*
G01X6455280Y3229701D01*
G01X6446356Y3218071D01*
G01X6440746Y3204527D01*
G01X6438833Y3189994D01*
G01X6438833Y3189994D01*
G01X1906973Y3189994D01*
G01X1903627Y3198071D01*
G01X1894703Y3209701D01*
G01X1883073Y3218625D01*
G01X1869530Y3224234D01*
G01X1854996Y3226148D01*
G01X1840463Y3224234D01*
G01X1826919Y3218625D01*
G01X1815289Y3209701D01*
G01X1806365Y3198071D01*
G01X1800756Y3184527D01*
G01X1798842Y3169994D01*
G01X1798842Y3169994D01*
G01X206274Y3169994D01*
G01X306280Y3270000D01*
G01X4703836Y3270000D01*
G01X4705750Y3255466D01*
G01X4711360Y3241923D01*
G01X4720284Y3230293D01*
G01X4731913Y3221369D01*
G01X4745457Y3215759D01*
G01X4759990Y3213846D01*
G01X4774524Y3215759D01*
G01X4788068Y3221369D01*
G01X4799697Y3230293D01*
G01X4808621Y3241923D01*
G01X4814231Y3255466D01*
G01X4816144Y3269993D01*
G01X5183835Y3269993D01*
G01X5185749Y3255460D01*
G01X5191359Y3241916D01*
G01X5200283Y3230287D01*
G01X5211912Y3221363D01*
G01X5225456Y3215753D01*
G01X5239990Y3213839D01*
G01X5254523Y3215753D01*
G01X5268067Y3221363D01*
G01X5279696Y3230287D01*
G01X5288620Y3241916D01*
G01X5294230Y3255460D01*
G01X5296144Y3269993D01*
G01X6523833Y3269993D01*
G01X6525746Y3255460D01*
G01X6531356Y3241916D01*
G01X6540280Y3230287D01*
G01X6551910Y3221363D01*
G01X6565453Y3215753D01*
G01X6579987Y3213839D01*
G01X6594521Y3215753D01*
G01X6608064Y3221363D01*
G01X6619694Y3230287D01*
G01X6628618Y3241916D01*
G01X6634228Y3255460D01*
G01X6636141Y3269993D01*
G01X6634228Y3284527D01*
G01X6628618Y3298070D01*
G01X6619694Y3309700D01*
G01X6608064Y3318624D01*
G01X6594521Y3324234D01*
G01X6579987Y3326148D01*
G01X6565453Y3324234D01*
G01X6551910Y3318624D01*
G01X6540280Y3309700D01*
G01X6531356Y3298070D01*
G01X6525746Y3284527D01*
G01X6523833Y3269993D01*
G01X6523833Y3269993D01*
G01X5296144Y3269993D01*
G01X5294230Y3284527D01*
G01X5288620Y3298070D01*
G01X5279696Y3309700D01*
G01X5268067Y3318624D01*
G01X5254523Y3324234D01*
G01X5239990Y3326148D01*
G01X5225456Y3324234D01*
G01X5211912Y3318624D01*
G01X5200283Y3309700D01*
G01X5191359Y3298070D01*
G01X5185749Y3284527D01*
G01X5183835Y3269993D01*
G01X5183835Y3269993D01*
G01X4816144Y3269993D01*
G01X4816145Y3270000D01*
G01X4814231Y3284534D01*
G01X4808621Y3298077D01*
G01X4799697Y3309707D01*
G01X4788068Y3318631D01*
G01X4774524Y3324241D01*
G01X4759990Y3326154D01*
G01X4745457Y3324241D01*
G01X4731913Y3318631D01*
G01X4720284Y3309707D01*
G01X4711360Y3298077D01*
G01X4705750Y3284534D01*
G01X4703836Y3270000D01*
G01X4703836Y3270000D01*
G01X306280Y3270000D01*
G01X536273Y3499993D01*
G01X1348843Y3499993D01*
G01X1350757Y3485459D01*
G01X1356366Y3471916D01*
G01X1365290Y3460286D01*
G01X1376920Y3451362D01*
G01X1390463Y3445752D01*
G01X1404997Y3443839D01*
G01X1419531Y3445752D01*
G01X1433074Y3451362D01*
G01X1444704Y3460286D01*
G01X1453628Y3471916D01*
G01X1459238Y3485459D01*
G01X1461151Y3499993D01*
G01X1459238Y3514527D01*
G01X1453628Y3528070D01*
G01X1444704Y3539700D01*
G01X1433074Y3548624D01*
G01X1419531Y3554234D01*
G01X1404997Y3556147D01*
G01X1390463Y3554234D01*
G01X1376920Y3548624D01*
G01X1365290Y3539700D01*
G01X1356366Y3528070D01*
G01X1350757Y3514527D01*
G01X1348843Y3499993D01*
G01X1348843Y3499993D01*
G01X536273Y3499993D01*
G01X763280Y3727000D01*
G01X1059299Y3727000D01*
G01X1061269Y3705749D01*
G01X1067109Y3685221D01*
G01X1076622Y3666116D01*
G01X1089484Y3649084D01*
G01X1105256Y3634706D01*
G01X1123402Y3623471D01*
G01X1143303Y3615761D01*
G01X1164282Y3611839D01*
G01X1185624Y3611839D01*
G01X1206603Y3615761D01*
G01X1226505Y3623471D01*
G01X1244650Y3634706D01*
G01X1260422Y3649084D01*
G01X1273284Y3666116D01*
G01X1282797Y3685221D01*
G01X1288638Y3705749D01*
G01X1290607Y3727000D01*
G01X1290607Y3727000D01*
G01X1509387Y3727000D01*
G01X1511357Y3705749D01*
G01X1517197Y3685221D01*
G01X1526710Y3666116D01*
G01X1539572Y3649084D01*
G01X1555344Y3634706D01*
G01X1573490Y3623471D01*
G01X1593391Y3615761D01*
G01X1614370Y3611839D01*
G01X1635712Y3611839D01*
G01X1656691Y3615761D01*
G01X1676593Y3623471D01*
G01X1694738Y3634706D01*
G01X1710510Y3649084D01*
G01X1723372Y3666116D01*
G01X1732885Y3685221D01*
G01X1738726Y3705749D01*
G01X1740695Y3727000D01*
G01X1740695Y3727000D01*
G01X1738726Y3748251D01*
G01X1732885Y3768779D01*
G01X1723372Y3787884D01*
G01X1710510Y3804915D01*
G01X1694738Y3819294D01*
G01X1685522Y3825000D01*
G01X2280984Y3825000D01*
G01X2280984Y3474993D01*
G01X2282910Y3455435D01*
G01X2288615Y3436628D01*
G01X2297879Y3419295D01*
G01X2310347Y3404103D01*
G01X2325539Y3391635D01*
G01X2342872Y3382371D01*
G01X2361679Y3376666D01*
G01X2381238Y3374739D01*
G01X4024992Y3374739D01*
G01X4044550Y3376666D01*
G01X4063357Y3382371D01*
G01X4080690Y3391635D01*
G01X4090882Y3400000D01*
G01X5653835Y3400000D01*
G01X5655748Y3385466D01*
G01X5661358Y3371923D01*
G01X5670282Y3360293D01*
G01X5681912Y3351369D01*
G01X5695455Y3345759D01*
G01X5709989Y3343846D01*
G01X5724522Y3345759D01*
G01X5738066Y3351369D01*
G01X5749696Y3360293D01*
G01X5758619Y3371923D01*
G01X5761962Y3379993D01*
G01X7638834Y3379993D01*
G01X7640748Y3365459D01*
G01X7646358Y3351916D01*
G01X7655281Y3340286D01*
G01X7666911Y3331362D01*
G01X7680455Y3325753D01*
G01X7694988Y3323839D01*
G01X7709522Y3325753D01*
G01X7723065Y3331362D01*
G01X7734695Y3340286D01*
G01X7743619Y3351916D01*
G01X7749229Y3365459D01*
G01X7751142Y3379993D01*
G01X7749229Y3394527D01*
G01X7743619Y3408070D01*
G01X7734695Y3419700D01*
G01X7723065Y3428624D01*
G01X7709522Y3434234D01*
G01X7694988Y3436147D01*
G01X7680455Y3434234D01*
G01X7666911Y3428624D01*
G01X7655281Y3419700D01*
G01X7646358Y3408070D01*
G01X7640748Y3394527D01*
G01X7638834Y3379993D01*
G01X7638834Y3379993D01*
G01X5761962Y3379993D01*
G01X5764229Y3385466D01*
G01X5766143Y3400000D01*
G01X5764229Y3414534D01*
G01X5758619Y3428077D01*
G01X5749696Y3439707D01*
G01X5738066Y3448631D01*
G01X5734776Y3449993D01*
G01X9108828Y3449993D01*
G01X9110741Y3435459D01*
G01X9116351Y3421916D01*
G01X9125275Y3410286D01*
G01X9136905Y3401362D01*
G01X9150448Y3395752D01*
G01X9164982Y3393839D01*
G01X9179515Y3395752D01*
G01X9193059Y3401362D01*
G01X9204689Y3410286D01*
G01X9213613Y3421916D01*
G01X9219222Y3435459D01*
G01X9221136Y3449993D01*
G01X9219222Y3464527D01*
G01X9213613Y3478070D01*
G01X9204689Y3489700D01*
G01X9193059Y3498624D01*
G01X9179515Y3504234D01*
G01X9164982Y3506147D01*
G01X9150448Y3504234D01*
G01X9136905Y3498624D01*
G01X9125275Y3489700D01*
G01X9116351Y3478070D01*
G01X9110741Y3464527D01*
G01X9108828Y3449993D01*
G01X9108828Y3449993D01*
G01X5734776Y3449993D01*
G01X5724522Y3454240D01*
G01X5709989Y3456154D01*
G01X5695455Y3454240D01*
G01X5681912Y3448631D01*
G01X5670282Y3439707D01*
G01X5661358Y3428077D01*
G01X5655748Y3414534D01*
G01X5653835Y3400000D01*
G01X5653835Y3400000D01*
G01X4090882Y3400000D01*
G01X4095882Y3404103D01*
G01X4108350Y3419295D01*
G01X4117614Y3436628D01*
G01X4123319Y3455435D01*
G01X4124675Y3469203D01*
G01X4652845Y3469203D01*
G01X4654827Y3454151D01*
G01X4660636Y3440126D01*
G01X4669878Y3428082D01*
G01X4681922Y3418840D01*
G01X4695948Y3413031D01*
G01X4710999Y3411049D01*
G01X4726050Y3413031D01*
G01X4740075Y3418840D01*
G01X4752119Y3428082D01*
G01X4761361Y3440126D01*
G01X4767170Y3454151D01*
G01X4769152Y3469203D01*
G01X5230848Y3469203D01*
G01X5232829Y3454151D01*
G01X5238639Y3440126D01*
G01X5247881Y3428082D01*
G01X5259924Y3418840D01*
G01X5273950Y3413031D01*
G01X5289001Y3411049D01*
G01X5304052Y3413031D01*
G01X5318078Y3418840D01*
G01X5330122Y3428082D01*
G01X5339363Y3440126D01*
G01X5345173Y3454151D01*
G01X5347154Y3469203D01*
G01X5345173Y3484254D01*
G01X5339363Y3498279D01*
G01X5330122Y3510323D01*
G01X5318078Y3519565D01*
G01X5304052Y3525374D01*
G01X5289001Y3527356D01*
G01X5273950Y3525374D01*
G01X5259924Y3519565D01*
G01X5247881Y3510323D01*
G01X5238639Y3498279D01*
G01X5232829Y3484254D01*
G01X5230848Y3469203D01*
G01X5230848Y3469203D01*
G01X4769152Y3469203D01*
G01X4767170Y3484254D01*
G01X4761361Y3498279D01*
G01X4752119Y3510323D01*
G01X4740075Y3519565D01*
G01X4726050Y3525374D01*
G01X4710999Y3527356D01*
G01X4695948Y3525374D01*
G01X4681922Y3519565D01*
G01X4669878Y3510323D01*
G01X4660636Y3498279D01*
G01X4654827Y3484254D01*
G01X4652845Y3469203D01*
G01X4652845Y3469203D01*
G01X4124675Y3469203D01*
G01X4125246Y3474993D01*
G01X4125246Y3679993D01*
G01X8118830Y3679993D01*
G01X8120743Y3665459D01*
G01X8126353Y3651916D01*
G01X8135277Y3640286D01*
G01X8146907Y3631362D01*
G01X8160450Y3625752D01*
G01X8174984Y3623839D01*
G01X8189517Y3625752D01*
G01X8203061Y3631362D01*
G01X8214691Y3640286D01*
G01X8223614Y3651916D01*
G01X8229224Y3665459D01*
G01X8231138Y3679993D01*
G01X8229224Y3694526D01*
G01X8223614Y3708070D01*
G01X8214691Y3719700D01*
G01X8205177Y3727000D01*
G01X8259302Y3727000D01*
G01X8261271Y3705749D01*
G01X8267112Y3685221D01*
G01X8276625Y3666116D01*
G01X8289487Y3649084D01*
G01X8305259Y3634706D01*
G01X8323405Y3623471D01*
G01X8343306Y3615761D01*
G01X8364285Y3611839D01*
G01X8385627Y3611839D01*
G01X8406606Y3615761D01*
G01X8426507Y3623471D01*
G01X8444653Y3634706D01*
G01X8460425Y3649084D01*
G01X8473287Y3666116D01*
G01X8482800Y3685221D01*
G01X8488641Y3705749D01*
G01X8490610Y3727000D01*
G01X8490610Y3727000D01*
G01X8709390Y3727000D01*
G01X8711359Y3705749D01*
G01X8717200Y3685221D01*
G01X8726713Y3666116D01*
G01X8739575Y3649084D01*
G01X8755347Y3634706D01*
G01X8773493Y3623471D01*
G01X8793394Y3615761D01*
G01X8814373Y3611839D01*
G01X8835715Y3611839D01*
G01X8856694Y3615761D01*
G01X8876595Y3623471D01*
G01X8894741Y3634706D01*
G01X8910513Y3649084D01*
G01X8923375Y3666116D01*
G01X8932888Y3685221D01*
G01X8938729Y3705749D01*
G01X8940698Y3727000D01*
G01X8940698Y3727000D01*
G01X8938729Y3748251D01*
G01X8932888Y3768779D01*
G01X8923375Y3787884D01*
G01X8910513Y3804915D01*
G01X8894741Y3819294D01*
G01X8876595Y3830529D01*
G01X8856694Y3838239D01*
G01X8835715Y3842160D01*
G01X8814373Y3842160D01*
G01X8793394Y3838239D01*
G01X8773493Y3830529D01*
G01X8755347Y3819294D01*
G01X8739575Y3804915D01*
G01X8726713Y3787884D01*
G01X8717200Y3768779D01*
G01X8711359Y3748251D01*
G01X8709390Y3727000D01*
G01X8490610Y3727000D01*
G01X8488641Y3748251D01*
G01X8482800Y3768779D01*
G01X8473287Y3787884D01*
G01X8460425Y3804915D01*
G01X8444653Y3819294D01*
G01X8426507Y3830529D01*
G01X8406606Y3838239D01*
G01X8385627Y3842160D01*
G01X8364285Y3842160D01*
G01X8343306Y3838239D01*
G01X8323405Y3830529D01*
G01X8305259Y3819294D01*
G01X8289487Y3804915D01*
G01X8276625Y3787884D01*
G01X8267112Y3768779D01*
G01X8261271Y3748251D01*
G01X8259302Y3727000D01*
G01X8205177Y3727000D01*
G01X8203061Y3728623D01*
G01X8189517Y3734233D01*
G01X8174984Y3736147D01*
G01X8160450Y3734233D01*
G01X8146907Y3728623D01*
G01X8135277Y3719700D01*
G01X8126353Y3708070D01*
G01X8120743Y3694526D01*
G01X8118830Y3679993D01*
G01X8118830Y3679993D01*
G01X4125246Y3679993D01*
G01X4125246Y3825000D01*
G01X4125246Y3825000D01*
G01X4123319Y3844559D01*
G01X4117614Y3863366D01*
G01X4108350Y3880698D01*
G01X4095882Y3895890D01*
G01X4080690Y3908358D01*
G01X4063357Y3917623D01*
G01X4044550Y3923328D01*
G01X4024992Y3925254D01*
G01X2381238Y3925254D01*
G01X2361679Y3923328D01*
G01X2342872Y3917623D01*
G01X2325539Y3908358D01*
G01X2310347Y3895890D01*
G01X2297879Y3880698D01*
G01X2288615Y3863366D01*
G01X2282910Y3844559D01*
G01X2280984Y3825000D01*
G01X1685522Y3825000D01*
G01X1676593Y3830529D01*
G01X1656691Y3838239D01*
G01X1635712Y3842160D01*
G01X1614370Y3842160D01*
G01X1593391Y3838239D01*
G01X1573490Y3830529D01*
G01X1555344Y3819294D01*
G01X1539572Y3804915D01*
G01X1526710Y3787884D01*
G01X1517197Y3768779D01*
G01X1511357Y3748251D01*
G01X1509387Y3727000D01*
G01X1290607Y3727000D01*
G01X1288638Y3748251D01*
G01X1282797Y3768779D01*
G01X1273284Y3787884D01*
G01X1260422Y3804915D01*
G01X1244650Y3819294D01*
G01X1226505Y3830529D01*
G01X1206603Y3838239D01*
G01X1185624Y3842160D01*
G01X1164282Y3842160D01*
G01X1143303Y3838239D01*
G01X1123402Y3830529D01*
G01X1105256Y3819294D01*
G01X1089484Y3804915D01*
G01X1076622Y3787884D01*
G01X1067109Y3768779D01*
G01X1061269Y3748251D01*
G01X1059299Y3727000D01*
G01X763280Y3727000D01*
G01X900983Y3864703D01*
G37*
G36*
G01X4243346Y1810883D02*
G01X4243346Y1837448D01*
G01X4255263Y1829580D01*
G01X4268779Y1824973D01*
G01X4283020Y1823924D01*
G01X4297065Y1826501D01*
G01X4310006Y1832537D01*
G01X4321007Y1841642D01*
G01X8629096Y1841642D01*
G01X8722336Y1748402D01*
G01X8708901Y1751014D01*
G01X8695232Y1750298D01*
G01X8682143Y1746296D01*
G01X8670411Y1739247D01*
G01X8660733Y1729568D01*
G01X8653683Y1717836D01*
G01X8649682Y1704747D01*
G01X8648965Y1691079D01*
G01X8651577Y1677643D01*
G01X8647103Y1682117D01*
G01X8639160Y1688212D01*
G01X8629910Y1692044D01*
G01X8619983Y1693351D01*
G01X4360878Y1693351D01*
G01X4243346Y1810883D01*
G37*
G04 Copper End*

G04 Pad Start*
G54D10*
G01X500000Y500000D03*
G01X9500000Y500000D03*
G01X300000Y2700000D03*
G01X9300000Y3200000D03*
G54D11*
G01X1625041Y3727000D03*
G01X1174953Y3727000D03*
G54D12*
G01X1040079Y3473000D03*
G01X1759915Y3473000D03*
G54D11*
G01X8825044Y3727000D03*
G01X8374956Y3727000D03*
G54D12*
G01X8240082Y3473000D03*
G01X8959918Y3473000D03*
G54D13*
G01X289999Y884998D03*
G54D14*
G01X489999Y884998D03*
G54D15*
G01X4567997Y3837249D03*
G54D16*
G01X4567997Y3419241D03*
G54D15*
G01X5432003Y3837249D03*
G54D16*
G01X5432003Y3419241D03*
G54D17*
G01X8673000Y300000D03*
G54D11*
G01X8927000Y300000D03*
G04 Pad End*

G04 Via Start*
G54D18*
G01X2981751Y254999D03*
G01X3669993Y714999D03*
G01X1929996Y2324993D03*
G01X3519993Y2289995D03*
G01X1929996Y2045009D03*
G01X3649993Y2004996D03*
G01X1929996Y1675007D03*
G01X3784992Y1709997D03*
G01X854998Y1679997D03*
G01X3519993Y3104994D03*
G01X1929996Y1534997D03*
G01X3769992Y1584997D03*
G01X1619997Y2934994D03*
G01X1619997Y2864994D03*
G01X1370334Y3094994D03*
G01X8699987Y1149998D03*
G01X9134982Y784998D03*
G01X9212708Y784998D03*
G01X9194982Y1474997D03*
G01X2319995Y1474997D03*
G01X2554995Y1759996D03*
G01X8264983Y1584997D03*
G01X1854996Y3169994D03*
G01X2554995Y1879996D03*
G01X4279991Y1879996D03*
G01X4204992Y1959996D03*
G01X2554995Y2464995D03*
G01X5709989Y3400000D03*
G01X6214988Y2849994D03*
G01X4224992Y2849994D03*
G01X5304989Y2999994D03*
G01X6494987Y3189994D03*
G01X5484989Y3069994D03*
G01X6579987Y3269993D03*
G01X5000000Y2789994D03*
G01X4759990Y3270000D03*
G01X5239990Y3269993D03*
G01X7694985Y2874860D03*
G01X2479995Y2974994D03*
G01X7694988Y3379993D03*
G01X8174984Y3679993D03*
G01X7919984Y1414997D03*
G01X4154992Y1409997D03*
G01X8800013Y1154998D03*
G01X8909982Y1179998D03*
G01X5609989Y1979999D03*
G01X5804988Y1329997D03*
G01X2754994Y1329997D03*
G01X2884994Y1264997D03*
G01X6344987Y1319997D03*
G01X5874988Y1204998D03*
G01X3264993Y1204998D03*
G01X6399987Y1104998D03*
G01X3134994Y1104998D03*
G01X6214988Y1029998D03*
G01X3009994Y1029998D03*
G01X115000Y1064998D03*
G01X235000Y1469997D03*
G01X1499997Y2179996D03*
G01X384999Y1509997D03*
G01X2159996Y2214996D03*
G01X2574995Y2234996D03*
G01X674999Y1449997D03*
G01X2684995Y2644995D03*
G01X7839984Y2084996D03*
G01X4259991Y2084996D03*
G01X8179984Y2214986D03*
G01X4259991Y2214986D03*
G01X8954982Y2434995D03*
G01X4259991Y2339995D03*
G01X9044982Y2544995D03*
G01X4259991Y2464995D03*
G01X4259991Y2586595D03*
G01X519999Y1804996D03*
G01X1194998Y1134998D03*
G01X953881Y2088878D03*
G01X1169998Y2194996D03*
G01X1814996Y2849994D03*
G01X1404997Y3499993D03*
G01X1879996Y2789994D03*
G01X2624995Y2739995D03*
G01X8869982Y2959994D03*
G01X8669983Y2099996D03*
G01X8879982Y3189994D03*
G01X9164982Y3449993D03*
G01X115000Y1469997D03*
G01X2034996Y2629995D03*
G01X4779990Y2324995D03*
G01X8704983Y1694997D03*
G01X2004996Y1984996D03*
G01X533654Y2565654D03*
G01X533654Y3073654D03*
G01X1041654Y2057654D03*
G01X1041654Y2565654D03*
G01X1549654Y3581654D03*
G01X1549654Y533654D03*
G01X2057654Y3581654D03*
G01X2565654Y1041654D03*
G01X2565654Y2565654D03*
G01X3581654Y2565654D03*
G01X4089654Y533654D03*
G01X4597654Y533654D03*
G01X4597654Y3073654D03*
G01X5105654Y533654D03*
G01X5105654Y1549654D03*
G01X5613654Y533654D03*
G01X5613654Y1549654D03*
G01X6121654Y533654D03*
G01X6629654Y533654D03*
G01X6629654Y1549654D03*
G01X7137654Y533654D03*
G01X7137654Y1041654D03*
G01X7137654Y1549654D03*
G01X7137654Y3581654D03*
G01X7645654Y533654D03*
G01X7645654Y1041654D03*
G01X7645654Y1549654D03*
G01X7645654Y3581654D03*
G01X8153654Y533654D03*
G01X8153654Y1041654D03*
G01X8153654Y1549654D03*
G01X8153654Y3073654D03*
G01X8661654Y3073654D03*
G01X8661654Y3581654D03*
G01X9169654Y2057654D03*
G01X9677654Y3073654D03*
G01X845709Y3094994D03*
G01X1869996Y1914996D03*
G01X1379997Y2359995D03*
G01X2144996Y2784994D03*
G01X7374985Y1713397D03*
G01X6847755Y1714997D03*
G01X5354989Y1719997D03*
G04 Via End*

G04 Track Start*
G54D20*
G01X8909982Y1179998D02*
G01X8909982Y1614997D01*
G01X8644983Y1879996D02*
G01X4279991Y1879996D01*
G01X8909982Y1614997D02*
G01X8644983Y1879996D01*
G01X8800013Y1154998D02*
G01X8800013Y1474967D01*
G01X8619983Y1654997D01*
G01X4344991Y1654997D01*
G01X4204992Y1794996D02*
G01X4204992Y1959996D01*
G01X4344991Y1654997D02*
G01X4204992Y1794996D01*
G01X7839984Y2084996D02*
G01X4259991Y2084996D01*
G01X8179984Y2214986D02*
G01X4259991Y2214986D01*
G01X4339991Y2339995D02*
G01X4259991Y2339995D01*
G01X9044982Y2544995D02*
G01X4339991Y2544995D01*
G01X4259991Y2464995D01*
G01X8954982Y2434995D02*
G01X4434991Y2434995D01*
G01X4339991Y2339995D01*
G04 Track End*

M02*

