G04 Layer: DrillDrawingLayer*
G04 EasyEDA Pro v2.2.46.11, 2026-03-19 10:49:02*
G04 Gerber Generator version 0.3*
G04 Scale: 100 percent, Rotated: No, Reflected: No*
G04 Dimensions in millimeters*
G04 Leading zeros omitted, absolute positions, 4 integers and 5 decimals*
G04 Generated by one-click*
%FSLAX45Y45*%
%MOMM*%
%AMIconRect*4,1,4,0.28,-0.28,-0.28,-0.28,-0.28,0.28,0.28,0.28,0.28,-0.28,0*4,0,4,0.233333,-0.233333,0.233333,0.233333,-0.233333,0.233333,-0.233333,-0.233333,0.233333,-0.233333,0*%
%AMIconTriangle*4,1,3,-0.339593,0.240473,0.339593,0.240473,0,-0.37884,-0.339593,0.240473,0*4,0,3,-0.265673,0.19404,0,-0.27342,0.266233,0.19404,-0.265673,0.19404,0*%
%AMIconStar6*4,1,12,0.12068,0.20888,0.298527,0.172713,0.241313,0,0.298527,-0.17206,0.12068,-0.208227,0,-0.344073,-0.120073,-0.208227,-0.298573,-0.17206,-0.240707,0,-0.298573,0.17206,-0.120073,0.20888,0,0.344073,0.12068,0.20888,0*4,0,12,-0.000467,0.273467,-0.090067,0.171733,-0.237533,0.136733,-0.193667,-0.007467,-0.237533,-0.1372,-0.090067,-0.171733,-0.000467,-0.273933,0.090067,-0.171733,0.237533,-0.1372,0.194133,0.007,0.237533,0.1372,0.090067,0.171267,-0.000467,0.273467,0*%
%AMIconStar4*4,1,8,-0.311733,0.311733,0,0.202533,0.311733,0.311733,0.202533,0,0.311733,-0.311733,0,-0.202533,-0.304407,-0.311733,-0.202533,0,-0.311733,0.311733,0*4,0,8,0.233333,-0.233333,0.1512,0,0.233333,0.233333,0,0.1512,-0.233333,0.233333,-0.1512,0,-0.233333,-0.233333,0,-0.1512,0.233333,-0.233333,0*%
%AMIconPlus*4,1,12,0.1736,-0.28,-0.1736,-0.28,-0.1736,-0.1736,-0.28,-0.1736,-0.28,0.1736,-0.1736,0.1736,-0.1736,0.28,0.1736,0.28,0.1736,0.1736,0.28,0.1736,0.28,-0.1736,0.1736,-0.1736,0.1736,-0.28,0*4,0,12,0.126933,-0.233333,0.126933,-0.126933,0.233333,-0.126933,0.233333,0.126933,0.126933,0.126933,0.126933,0.233333,-0.126933,0.233333,-0.126933,0.126933,-0.233333,0.126933,-0.233333,-0.126933,-0.126933,-0.126933,-0.126933,-0.233333,0.126933,-0.233333,0*%
%AMIconX*4,1,16,0.28,-0.28,0.076347,-0.28,0,-0.203653,-0.076347,-0.28,-0.28,-0.28,-0.28,-0.076347,-0.203653,0,-0.28,0.076347,-0.28,0.28,-0.076347,0.28,0,0.203653,0.076347,0.28,0.28,0.28,0.28,0.076347,0.203653,0,0.28,-0.076347,0.28,-0.28,0*4,0,16,0.23352,-0.23296,0.23352,-0.095853,0.137107,0.000093,0.23352,0.095853,0.23352,0.2331,0.095853,0.2331,0,0.137107,-0.095853,0.2331,-0.23352,0.2331,-0.23352,0.095853,-0.137107,0.000093,-0.23352,-0.095853,-0.23352,-0.23296,-0.095853,-0.23296,0,-0.137107,0.095853,-0.23296,0.23352,-0.23296,0*%
%AMIconDiamond*4,1,4,0,-0.364,-0.364,0,0,0.364,0.364,0,0,-0.364,0*4,0,4,0,-0.284807,0.284807,0,0,0.28504,-0.284807,0,0,-0.284807,0*%
%AMIconRect2*4,1,6,0.28,-0.28,-0.28,-0.28,-0.28,0.28,-0.23352,0.2331,-0.233333,-0.233333,0.23352,-0.233333,0.28,-0.28,0*4,1,6,0.28,-0.28,0.23352,-0.233333,0.23352,0.2331,-0.23352,0.2331,-0.28,0.28,0.28,0.28,0.28,-0.28,0*4,1,6,0.186853,-0.186667,-0.186667,-0.186667,-0.186667,0.186853,-0.14,0.140187,-0.14,-0.14,0.140187,-0.14,0.186853,-0.186667,0*4,1,6,0.186853,-0.186667,0.140187,-0.14,0.140187,0.140187,-0.14,0.140187,-0.186667,0.186853,0.186853,0.186853,0.186853,-0.186667,0*%
%AMCharA*4,1,8,-0.341787,-0.52192,-0.42896,-0.488693,-0.042373,0.52192,0.0448,0.52192,0.42896,-0.488693,0.341787,-0.52192,0.21392,-0.18536,-0.213173,-0.18536,-0.341787,-0.52192,0*4,0,3,-0.177333,-0.092027,0.178267,-0.092027,0.000933,0.37464,-0.177333,-0.092027,0*%
%AMCharB*4,1,17,-0.367173,-0.53032,-0.367173,0.53032,0.093893,0.53032,0.246587,0.482907,0.31192,0.424853,0.367173,0.319573,0.3668,0.186107,0.320133,0.09464,0.265253,0.03584,0.242107,0.02352,0.265253,0.010827,0.320133,-0.047973,0.3668,-0.13944,0.367173,-0.319573,0.31192,-0.424853,0.246587,-0.48328,0.093893,-0.53032,-0.367173,-0.53032,0*4,0,10,-0.27384,-0.436987,0.086427,-0.436987,0.206827,-0.3976,0.240427,-0.364373,0.278693,-0.28784,0.278693,-0.17192,0.240427,-0.096693,0.206827,-0.06328,0.086427,-0.024267,-0.27384,-0.024267,-0.27384,-0.436987,0*4,0,10,-0.27384,0.069067,0.08624,0.069067,0.206827,0.109947,0.240427,0.143547,0.278693,0.218587,0.278693,0.287467,0.240427,0.364373,0.206827,0.3976,0.086427,0.436987,-0.27384,0.436987,-0.27384,0.069067,0*%
%ADD10IconRect*%
%ADD11C,0.616X0.522667*%
%ADD12IconTriangle*%
%ADD13IconStar6*%
%ADD14IconStar4*%
%ADD15IconPlus*%
%ADD16IconX*%
%ADD17IconDiamond*%
%ADD18IconRect2*%
%ADD19CharA*%
%ADD20CharB*%
G75*


G04 Drill Drawing Start*
G54D10*
G01X289999Y884998D03*
G01X489999Y884998D03*
G54D11*
G01X4567997Y3837249D03*
G01X5432003Y3837249D03*
G54D12*
G01X4567997Y3419241D03*
G01X5432003Y3419241D03*
G54D13*
G01X8673000Y300000D03*
G01X8927000Y300000D03*
G54D14*
G01X9620001Y1694997D03*
G01X9620001Y2494995D03*
G54D15*
G01X180003Y2149987D03*
G01X180003Y1849988D03*
G54D16*
G01X4710999Y3469203D03*
G01X5289001Y3469203D03*
G54D17*
G01X300000Y2700000D03*
G01X500000Y500000D03*
G01X9300000Y3200000D03*
G01X9500000Y500000D03*
G54D18*
G01X1174953Y3727000D03*
G01X1625041Y3727000D03*
G01X8374956Y3727000D03*
G01X8825044Y3727000D03*
G54D19*
G01X1040079Y3473000D03*
G01X1759915Y3473000D03*
G01X8240082Y3473000D03*
G01X8959918Y3473000D03*
G54D20*
G01X115000Y1064998D03*
G01X115000Y1469997D03*
G01X235000Y1469997D03*
G01X384999Y1509997D03*
G01X519999Y1804996D03*
G01X533654Y2565654D03*
G01X533654Y3073654D03*
G01X674999Y1449997D03*
G01X845709Y3094994D03*
G01X854998Y1679997D03*
G01X953881Y2088878D03*
G01X1041654Y2057654D03*
G01X1041654Y2565654D03*
G01X1169998Y2194996D03*
G01X1194998Y1134998D03*
G01X1370334Y3094994D03*
G01X1379997Y2359995D03*
G01X1404997Y3499993D03*
G01X1499997Y2179996D03*
G01X1549654Y533654D03*
G01X1549654Y3581654D03*
G01X1619997Y2864994D03*
G01X1619997Y2934994D03*
G01X1814996Y2849994D03*
G01X1854996Y3169994D03*
G01X1869996Y1914996D03*
G01X1879996Y2789994D03*
G01X1929996Y1534997D03*
G01X1929996Y1675007D03*
G01X1929996Y2045009D03*
G01X1929996Y2324993D03*
G01X2004996Y1984996D03*
G01X2034996Y2629995D03*
G01X2057654Y3581654D03*
G01X2144996Y2784994D03*
G01X2159996Y2214996D03*
G01X2319995Y1474997D03*
G01X2479995Y2974994D03*
G01X2554995Y1759996D03*
G01X2554995Y1879996D03*
G01X2554995Y2464995D03*
G01X2565654Y1041654D03*
G01X2565654Y2565654D03*
G01X2574995Y2234996D03*
G01X2624995Y2739995D03*
G01X2684995Y2644995D03*
G01X2754994Y1329997D03*
G01X2884994Y1264997D03*
G01X2981751Y254999D03*
G01X3009994Y1029998D03*
G01X3134994Y1104998D03*
G01X3264993Y1204998D03*
G01X3519993Y2289995D03*
G01X3519993Y3104994D03*
G01X3581654Y2565654D03*
G01X3649993Y2004996D03*
G01X3669993Y714999D03*
G01X3769992Y1584997D03*
G01X3784992Y1709997D03*
G01X4089654Y533654D03*
G01X4154992Y1409997D03*
G01X4204992Y1959996D03*
G01X4224992Y2849994D03*
G01X4259991Y2084996D03*
G01X4259991Y2214986D03*
G01X4259991Y2339995D03*
G01X4259991Y2464995D03*
G01X4259991Y2586595D03*
G01X4279991Y1879996D03*
G01X4597654Y533654D03*
G01X4597654Y3073654D03*
G01X4759990Y3270000D03*
G01X4779990Y2324995D03*
G01X5000000Y2789994D03*
G01X5105654Y533654D03*
G01X5105654Y1549654D03*
G01X5239990Y3269993D03*
G01X5304989Y2999994D03*
G01X5354989Y1719997D03*
G01X5484989Y3069994D03*
G01X5609989Y1979999D03*
G01X5613654Y533654D03*
G01X5613654Y1549654D03*
G01X5709989Y3400000D03*
G01X5804988Y1329997D03*
G01X5874988Y1204998D03*
G01X6121654Y533654D03*
G01X6214988Y1029998D03*
G01X6214988Y2849994D03*
G01X6344987Y1319997D03*
G01X6399987Y1104998D03*
G01X6494987Y3189994D03*
G01X6579987Y3269993D03*
G01X6629654Y533654D03*
G01X6629654Y1549654D03*
G01X6847755Y1714997D03*
G01X7137654Y533654D03*
G01X7137654Y1041654D03*
G01X7137654Y1549654D03*
G01X7137654Y3581654D03*
G01X7374985Y1713397D03*
G01X7645654Y533654D03*
G01X7645654Y1041654D03*
G01X7645654Y1549654D03*
G01X7645654Y3581654D03*
G01X7694985Y2874860D03*
G01X7694988Y3379993D03*
G01X7839984Y2084996D03*
G01X7919984Y1414997D03*
G01X8153654Y533654D03*
G01X8153654Y1041654D03*
G01X8153654Y1549654D03*
G01X8153654Y3073654D03*
G01X8174984Y3679993D03*
G01X8179984Y2214986D03*
G01X8264983Y1584997D03*
G01X8661654Y3073654D03*
G01X8661654Y3581654D03*
G01X8669983Y2099996D03*
G01X8699987Y1149998D03*
G01X8704983Y1694997D03*
G01X8800013Y1154998D03*
G01X8869982Y2959994D03*
G01X8879982Y3189994D03*
G01X8909982Y1179998D03*
G01X8954982Y2434995D03*
G01X9044982Y2544995D03*
G01X9134982Y784998D03*
G01X9164982Y3449993D03*
G01X9169654Y2057654D03*
G01X9194982Y1474997D03*
G01X9212708Y784998D03*
G01X9677654Y3073654D03*
G04 Drill Drawing End*

M02*

