G04 Layer: BottomPasteMaskLayer*
G04 EasyEDA Pro v2.2.46.11, 2026-03-19 10:49:02*
G04 Gerber Generator version 0.3*
G04 Scale: 100 percent, Rotated: No, Reflected: No*
G04 Dimensions in millimeters*
G04 Leading zeros omitted, absolute positions, 4 integers and 5 decimals*
G04 Generated by one-click*
%FSLAX45Y45*%
%MOMM*%
%ADD10R,0.8X0.9*%
%ADD11R,0.9X0.8*%
%ADD12R,1.6X0.7*%
%ADD13R,1.5X1.2*%
%ADD14R,2.2X1.2*%
%ADD15R,1.5X1.6*%
%ADD16R,0.42499X0.28001*%
%ADD17R,0.8034X1.2*%
%ADD18R,0.8X1.2*%
G75*


G04 PolygonModel Start*
G36*
G01X9160320Y830498D02*
G01X9160320Y910498D01*
G01X9165321Y915499D01*
G01X9188117Y915499D01*
G01X9188117Y878499D01*
G01X9221117Y878499D01*
G01X9221117Y915499D01*
G01X9245321Y915499D01*
G01X9250319Y910498D01*
G01X9250319Y830498D01*
G01X9245321Y825499D01*
G01X9165321Y825499D01*
G01X9160320Y830498D01*
G37*
G36*
G01X9250317Y1069502D02*
G01X9250317Y989502D01*
G01X9245316Y984501D01*
G01X9222519Y984501D01*
G01X9222519Y1021501D01*
G01X9189519Y1021501D01*
G01X9189519Y984501D01*
G01X9165316Y984501D01*
G01X9160317Y989502D01*
G01X9160317Y1069502D01*
G01X9165316Y1074501D01*
G01X9245316Y1074501D01*
G01X9250317Y1069502D01*
G37*
G36*
G01X9309983Y830498D02*
G01X9309983Y910498D01*
G01X9314984Y915499D01*
G01X9337780Y915499D01*
G01X9337780Y878499D01*
G01X9370780Y878499D01*
G01X9370780Y915499D01*
G01X9394984Y915499D01*
G01X9399982Y910498D01*
G01X9399982Y830498D01*
G01X9394984Y825499D01*
G01X9314984Y825499D01*
G01X9309983Y830498D01*
G37*
G36*
G01X9399980Y1069502D02*
G01X9399980Y989502D01*
G01X9394979Y984501D01*
G01X9372182Y984501D01*
G01X9372182Y1021501D01*
G01X9339182Y1021501D01*
G01X9339182Y984501D01*
G01X9314979Y984501D01*
G01X9309980Y989502D01*
G01X9309980Y1069502D01*
G01X9314979Y1074501D01*
G01X9394979Y1074501D01*
G01X9399980Y1069502D01*
G37*
G36*
G01X9859982Y830496D02*
G01X9859982Y910496D01*
G01X9864983Y915497D01*
G01X9887779Y915497D01*
G01X9887779Y878497D01*
G01X9920779Y878497D01*
G01X9920779Y915497D01*
G01X9944983Y915497D01*
G01X9949981Y910496D01*
G01X9949981Y830496D01*
G01X9944983Y825497D01*
G01X9864983Y825497D01*
G01X9859982Y830496D01*
G37*
G36*
G01X9949979Y1069500D02*
G01X9949979Y989500D01*
G01X9944978Y984499D01*
G01X9922181Y984499D01*
G01X9922181Y1021499D01*
G01X9889181Y1021499D01*
G01X9889181Y984499D01*
G01X9864978Y984499D01*
G01X9859979Y989500D01*
G01X9859979Y1069500D01*
G01X9864978Y1074499D01*
G01X9944978Y1074499D01*
G01X9949979Y1069500D01*
G37*
G36*
G01X9709982Y830496D02*
G01X9709982Y910496D01*
G01X9714983Y915497D01*
G01X9737780Y915497D01*
G01X9737780Y878497D01*
G01X9770779Y878497D01*
G01X9770779Y915497D01*
G01X9794983Y915497D01*
G01X9799982Y910496D01*
G01X9799982Y830496D01*
G01X9794983Y825497D01*
G01X9714983Y825497D01*
G01X9709982Y830496D01*
G37*
G36*
G01X9799979Y1069500D02*
G01X9799979Y989500D01*
G01X9794978Y984499D01*
G01X9772181Y984499D01*
G01X9772181Y1021499D01*
G01X9739182Y1021499D01*
G01X9739182Y984499D01*
G01X9714978Y984499D01*
G01X9709979Y989500D01*
G01X9709979Y1069500D01*
G01X9714978Y1074499D01*
G01X9794978Y1074499D01*
G01X9799979Y1069500D01*
G37*
G36*
G01X9009983Y830496D02*
G01X9009983Y910496D01*
G01X9014985Y915497D01*
G01X9037781Y915497D01*
G01X9037781Y878497D01*
G01X9070781Y878497D01*
G01X9070781Y915497D01*
G01X9094984Y915497D01*
G01X9099983Y910496D01*
G01X9099983Y830496D01*
G01X9094984Y825497D01*
G01X9014985Y825497D01*
G01X9009983Y830496D01*
G37*
G36*
G01X9099981Y1069500D02*
G01X9099981Y989500D01*
G01X9094979Y984499D01*
G01X9072183Y984499D01*
G01X9072183Y1021499D01*
G01X9039183Y1021499D01*
G01X9039183Y984499D01*
G01X9014979Y984499D01*
G01X9009981Y989500D01*
G01X9009981Y1069500D01*
G01X9014979Y1074499D01*
G01X9094979Y1074499D01*
G01X9099981Y1069500D01*
G37*

G04 Pad Start*
G54D10*
G01X8759985Y3189994D03*
G01X8619980Y3189994D03*
G01X8759985Y2954994D03*
G01X8619980Y2954994D03*
G54D11*
G01X329999Y2074993D03*
G01X329999Y2214998D03*
G54D12*
G01X8520004Y2544982D03*
G01X8520004Y2435000D03*
G01X8520004Y2324993D03*
G01X8520004Y2214986D03*
G01X8520004Y2105004D03*
G01X8520004Y1994996D03*
G01X8520004Y1884989D03*
G01X8520004Y1774981D03*
G01X8520004Y2654990D03*
G54D13*
G01X8620003Y2775005D03*
G54D14*
G01X9579996Y2775005D03*
G01X9579996Y1224995D03*
G54D15*
G01X8620003Y1314987D03*
G54D16*
G01X476247Y1999990D03*
G01X476247Y2050002D03*
G01X476247Y2099989D03*
G01X476247Y2150002D03*
G01X663750Y2150002D03*
G01X663750Y2099989D03*
G01X663750Y2050002D03*
G01X663750Y1999990D03*
G54D18*
G01X569999Y2074996D03*
G04 Pad End*

M02*

