;TYPE=PLATED
;Layer: PTH_Through
;EasyEDA Pro v2.2.46.11, 2026-03-19 10:49:02
;Gerber Generator version 0.3
M48
METRIC,LZ,0000.00000
;Hole size 1 = 0.30500 METRIC
T01C0.30500
;Hole size 2 = 0.60000 METRIC
T02C0.60000
;Hole size 3 = 0.84999 METRIC
T03C0.84999
;Hole size 4 = 1.10002 METRIC
T04C1.10002
;Hole size 5 = 1.19990 METRIC
T05C1.19990
;Hole size 6 = 1.40005 METRIC
T06C1.40005
;Hole size 7 = 2.00000 METRIC
T07C2.00000
%
G05
G90
T01
X29.81751Y2.54999
X36.69993Y7.14999
X19.29996Y23.24993
X35.19993Y22.89995
X19.29996Y20.45009
X36.49993Y20.04996
X19.29996Y16.75007
X37.84992Y17.09997
X8.54998Y16.79997
X35.19993Y31.04994
X19.29996Y15.34997
X37.69992Y15.84997
X16.19997Y29.34994
X16.19997Y28.64994
X13.70334Y30.94994
X86.99987Y11.49998
X91.34982Y7.84998
X92.12708Y7.84998
X91.94982Y14.74997
X23.19995Y14.74997
X25.54995Y17.59996
X82.64983Y15.84997
X18.54996Y31.69994
X25.54995Y18.79996
X42.79991Y18.79996
X42.04992Y19.59996
X25.54995Y24.64995
X57.09989Y34.0
X62.14988Y28.49994
X42.24992Y28.49994
X53.04989Y29.99994
X64.94987Y31.89994
X54.84989Y30.69994
X65.79987Y32.69993
X50.0Y27.89994
X47.5999Y32.7
X52.3999Y32.69993
X76.94985Y28.7486
X24.79995Y29.74994
X76.94988Y33.79993
X81.74984Y36.79993
X79.19984Y14.14997
X41.54992Y14.09997
X88.00013Y11.54998
X89.09982Y11.79998
X56.09989Y19.79999
X58.04988Y13.29997
X27.54994Y13.29997
X28.84994Y12.64997
X63.44987Y13.19997
X58.74988Y12.04998
X32.64993Y12.04998
X63.99987Y11.04998
X31.34994Y11.04998
X62.14988Y10.29998
X30.09994Y10.29998
X1.15Y10.64998
X2.35Y14.69997
X14.99997Y21.79996
X3.84999Y15.09997
X21.59996Y22.14996
X25.74995Y22.34996
X6.74999Y14.49997
X26.84995Y26.44995
X78.39984Y20.84996
X42.59991Y20.84996
X81.79984Y22.14986
X42.59991Y22.14986
X89.54982Y24.34995
X42.59991Y23.39995
X90.44982Y25.44995
X42.59991Y24.64995
X42.59991Y25.86595
X5.19999Y18.04996
X11.94998Y11.34998
X9.53881Y20.88878
X11.69998Y21.94996
X18.14996Y28.49994
X14.04997Y34.99993
X18.79996Y27.89994
X26.24995Y27.39995
X88.69982Y29.59994
X86.69983Y20.99996
X88.79982Y31.89994
X91.64982Y34.49993
X1.15Y14.69997
X20.34996Y26.29995
X47.7999Y23.24995
X87.04983Y16.94997
X20.04996Y19.84996
X5.33654Y25.65654
X5.33654Y30.73654
X10.41654Y20.57654
X10.41654Y25.65654
X15.49654Y35.81654
X15.49654Y5.33654
X20.57654Y35.81654
X25.65654Y10.41654
X25.65654Y25.65654
X35.81654Y25.65654
X40.89654Y5.33654
X45.97654Y5.33654
X45.97654Y30.73654
X51.05654Y5.33654
X51.05654Y15.49654
X56.13654Y5.33654
X56.13654Y15.49654
X61.21654Y5.33654
X66.29654Y5.33654
X66.29654Y15.49654
X71.37654Y5.33654
X71.37654Y10.41654
X71.37654Y15.49654
X71.37654Y35.81654
X76.45654Y5.33654
X76.45654Y10.41654
X76.45654Y15.49654
X76.45654Y35.81654
X81.53654Y5.33654
X81.53654Y10.41654
X81.53654Y15.49654
X81.53654Y30.73654
X86.61654Y30.73654
X86.61654Y35.81654
X91.69654Y20.57654
X96.77654Y30.73654
X8.45709Y30.94994
X18.69996Y19.14996
X13.79997Y23.59995
X21.44996Y27.84994
X73.74985Y17.13397
X68.47755Y17.14997
X53.54989Y17.19997
T02
X45.67997Y37.97247G85X45.67997Y38.7725
X45.67997Y33.64241G85X45.67997Y34.74241
X54.32003Y37.97247G85X54.32003Y38.7725
X54.32003Y33.64241G85X54.32003Y34.74241
T03
X2.89999Y8.84998
X4.89999Y8.84998
T04
X86.73Y3.0
X89.27Y3.0
T05
X16.25041Y37.27
X11.74953Y37.27
X88.25044Y37.27
X83.74956Y37.27
T06
X10.40079Y34.73
X17.59915Y34.73
X82.40082Y34.73
X89.59918Y34.73
T07
X5.0Y5.0
X95.0Y5.0
X3.0Y27.0
X93.0Y32.0
M30