G04 Layer: TopSolderMaskLayer*
G04 EasyEDA Pro v2.2.46.11, 2026-03-19 10:49:02*
G04 Gerber Generator version 0.3*
G04 Scale: 100 percent, Rotated: No, Reflected: No*
G04 Dimensions in millimeters*
G04 Leading zeros omitted, absolute positions, 4 integers and 5 decimals*
G04 Generated by one-click*
%FSLAX45Y45*%
%MOMM*%
%AMRoundRect*1,1,$1,$2,$3*1,1,$1,$4,$5*1,1,$1,0-$2,0-$3*1,1,$1,0-$4,0-$5*20,1,$1,$2,$3,$4,$5,0*20,1,$1,$4,$5,0-$2,0-$3,0*20,1,$1,0-$2,0-$3,0-$4,0-$5,0*20,1,$1,0-$4,0-$5,$2,$3,0*4,1,4,$2,$3,$4,$5,0-$2,0-$3,0-$4,0-$5,$2,$3,0*%
%AMOval*1,1,$1,$2,$3*1,1,$1,$4,$5*20,1,$1,$2,$3,$4,$5,0*%
%ADD10C,4.1016*%
%ADD11C,0.6016*%
%ADD12RoundRect,0.09495X-0.98051X-0.02121X0.02121X0.98051*%
%ADD13RoundRect,0.09495X-0.67833X-0.70833X-0.67833X0.70833*%
%ADD14RoundRect,0.09131X-0.40514X0.45514X0.40514X0.45514*%
%ADD15RoundRect,0.0939X-0.45514X-0.40514X-0.45514X0.40514*%
%ADD16RoundRect,0.09131X-0.45514X-0.40514X-0.45514X0.40514*%
%ADD17RoundRect,0.09131X-0.03536X-0.60832X-0.60832X-0.03536*%
%ADD18RoundRect,0.09495X-0.70833X0.67833X0.70833X0.67833*%
%ADD19RoundRect,0.08756X-0.27302X0.54302X0.27302X0.54302*%
%ADD20RoundRect,0.0944X-0.92079X0.04596X-0.04596X0.92079*%
%ADD21RoundRect,0.08756X-0.27302X-0.52576X-0.27302X0.52576*%
%ADD22RoundRect,0.09138X-0.43711X-0.40835X-0.43711X0.40835*%
%ADD23RoundRect,0.09138X-0.40835X0.43711X0.40835X0.43711*%
%ADD24RoundRect,0.09387X-0.69237X-0.57013X-0.69237X0.57013*%
%ADD25RoundRect,0.09138X-0.02034X-0.59783X-0.59783X-0.02034*%
%ADD26RoundRect,0.09548X-1.00227X1.25227X1.00227X1.25227*%
%ADD27RoundRect,0.09473X-1.10343X0.65343X1.10343X0.65343*%
%ADD28RoundRect,0.09424X0.28284X-1.13657X-1.13657X0.28284*%
%ADD29C,1.9016*%
%ADD30C,2.1016*%
%ADD31RoundRect,0.09017X-0.75571X-0.35571X-0.75571X0.35571*%
%ADD32RoundRect,0.09131X-0.40514X0.50514X0.40514X0.50514*%
%ADD33O,0.66159X1.84661*%
%ADD34RoundRect,0.09093X-0.75455X0.45455X0.75455X0.45455*%
%ADD35RoundRect,0.09093X-0.45455X-0.75455X-0.45455X0.75455*%
%ADD36RoundRect,0.09224X-0.45468X-0.45468X-0.45468X0.45468*%
%ADD37RoundRect,0.07882X-0.31139X-0.13639X-0.31139X0.13639*%
%ADD38RoundRect,0.07882X-0.13639X0.31139X0.13639X0.31139*%
%ADD39RoundRect,0.09554X-0.75303X0.75303X0.75303X0.75303*%
%ADD40RoundRect,0.08136X-0.16032X0.66032X0.16032X0.66032*%
%ADD41O,1.9666X0.7316*%
%ADD42RoundRect,0.09618X-1.20192X-1.65192X-1.20192X1.65192*%
%ADD43Oval,0.38003X-0.18384X0.18384X0.18384X-0.18384*%
%ADD44Oval,0.38003X-0.18384X-0.18384X0.18384X0.18384*%
%ADD45RoundRect,0.09658X-1.91162X0.0X0.0X1.91162*%
%ADD46RoundRect,0.08752X-0.50625X-0.30625X-0.50625X0.30625*%
%ADD47RoundRect,0.09516X-0.75322X0.70322X0.75322X0.70322*%
%ADD48C,1.5016*%
%ADD49RoundRect,0.08002X-0.16X0.58501X0.16X0.58501*%
%ADD50O,1.10002X1.90002*%
%ADD51O,1.10002X2.20002*%
%ADD52RoundRect,0.09645X-0.90257X0.90257X0.90257X0.90257*%
%ADD53RoundRect,0.08692X-1.75734X-0.25734X-1.75734X0.25734*%
G75*


G04 Pad Start*
G54D10*
G01X500000Y500000D03*
G01X9500000Y500000D03*
G01X300000Y2700000D03*
G01X9300000Y3200000D03*
G54D11*
G01X2217443Y1165006D03*
G01X782446Y1165006D03*
G54D12*
G01X845709Y2925705D03*
G01X704288Y2784284D03*
G54D13*
G01X5829988Y3200000D03*
G01X5829988Y3400000D03*
G54D14*
G01X6489990Y2769994D03*
G01X6349985Y2769994D03*
G54D16*
G01X1024998Y3184996D03*
G01X1024998Y3044991D03*
G54D14*
G01X3319996Y944998D03*
G01X3179991Y944998D03*
G54D13*
G01X9174982Y574999D03*
G01X9174982Y374999D03*
G54D16*
G01X1944996Y3304996D03*
G01X1944996Y3164991D03*
G54D13*
G01X2134996Y3134994D03*
G01X2134996Y3334993D03*
G54D17*
G01X5304489Y2200496D03*
G01X5205490Y2299495D03*
G54D16*
G01X4999990Y2404993D03*
G01X4999990Y2544997D03*
G01X5504989Y2134993D03*
G01X5504989Y2274998D03*
G54D17*
G01X4590491Y1894496D03*
G01X4689490Y1795497D03*
G54D13*
G01X1499997Y2900000D03*
G01X1499997Y2700000D03*
G54D14*
G01X9089979Y1049998D03*
G01X9229984Y1049998D03*
G54D18*
G01X8419983Y299999D03*
G01X8219984Y299999D03*
G54D16*
G01X115000Y1000001D03*
G01X115000Y859996D03*
G01X5724989Y1979999D03*
G01X5724989Y1839994D03*
G54D19*
G01X5094996Y3119904D03*
G01X5000000Y3119904D03*
G01X4905004Y3119904D03*
G01X4905004Y2890084D03*
G01X5000000Y2890084D03*
G01X5094996Y2890084D03*
G54D20*
G01X415503Y2995497D03*
G01X724495Y3304490D03*
G54D21*
G01X7884980Y3095128D03*
G01X7694988Y3095128D03*
G01X7789984Y2874860D03*
G01X8079980Y3385128D03*
G01X7889988Y3385128D03*
G01X7984984Y3164859D03*
G01X6689990Y1064863D03*
G01X6879982Y1064863D03*
G01X6784986Y1285132D03*
G54D22*
G01X5609989Y3665329D03*
G01X5609989Y3514656D03*
G01X4389991Y3665329D03*
G01X4389991Y3514656D03*
G54D23*
G01X1365334Y3184994D03*
G01X1214661Y3184994D03*
G54D24*
G01X7804984Y3764992D03*
G01X7804984Y3564993D03*
G01X8029984Y3764992D03*
G01X8029984Y3564993D03*
G54D23*
G01X2775331Y589999D03*
G01X2624658Y589999D03*
G01X2775336Y819998D03*
G01X2624664Y819998D03*
G54D22*
G01X2164996Y2620331D03*
G01X2164996Y2469659D03*
G01X2159996Y1985333D03*
G01X2159996Y1834660D03*
G54D24*
G01X5724989Y2214996D03*
G01X5724989Y2414995D03*
G54D23*
G01X6690323Y849998D03*
G01X6539650Y849998D03*
G54D22*
G01X115000Y1305334D03*
G01X115000Y1154661D03*
G54D23*
G01X2015333Y2504995D03*
G01X1864660Y2504995D03*
G54D25*
G01X8733254Y1846725D03*
G01X8626712Y1953267D03*
G01X9243253Y3526722D03*
G01X9136711Y3633264D03*
G54D26*
G01X2070001Y1165001D03*
G01X929999Y1165001D03*
G01X929999Y295001D03*
G01X2070001Y295001D03*
G54D27*
G01X1749986Y1675007D03*
G01X1749986Y2045009D03*
G01X1749986Y2324993D03*
G01X650014Y2324993D03*
G01X650014Y2045009D03*
G01X650014Y1675007D03*
G54D28*
G01X8133829Y1941954D03*
G01X8741954Y1333829D03*
G01X7858045Y1666171D03*
G01X8466171Y1058046D03*
G01X9183829Y2441954D03*
G01X9791955Y1833829D03*
G01X8908046Y2166171D03*
G01X9516171Y1558046D03*
G54D29*
G01X1625041Y3727000D03*
G01X1174953Y3727000D03*
G54D30*
G01X1040079Y3473000D03*
G01X1759915Y3473000D03*
G54D29*
G01X8825044Y3727000D03*
G01X8374956Y3727000D03*
G54D30*
G01X8240082Y3473000D03*
G01X8959918Y3473000D03*
G54D31*
G01X380003Y2224993D03*
G01X380003Y1924994D03*
G01X380003Y1775007D03*
G54D32*
G01X290011Y2364998D03*
G01X290011Y1635002D03*
G01X69996Y1635002D03*
G01X69996Y2364998D03*
G54D33*
G01X6035487Y3012745D03*
G01X6162487Y3012745D03*
G01X6289487Y3012745D03*
G01X6416487Y3012745D03*
G01X6543487Y3012745D03*
G01X6670487Y3012745D03*
G01X6797487Y3012745D03*
G01X6924487Y3012745D03*
G01X6035487Y3587242D03*
G01X6162487Y3587242D03*
G01X6289487Y3587242D03*
G01X6416487Y3587242D03*
G01X6543487Y3587242D03*
G01X6670487Y3587242D03*
G01X6797487Y3587242D03*
G01X6924487Y3587242D03*
G54D34*
G01X2324995Y3229491D03*
G01X2324995Y3102491D03*
G01X2324995Y2975491D03*
G01X2324995Y2848491D03*
G01X2324995Y2721491D03*
G01X2324995Y2594491D03*
G01X2324995Y2467491D03*
G01X2324995Y2340491D03*
G01X2324995Y2213491D03*
G01X2324995Y2086491D03*
G01X2324995Y1959491D03*
G01X2324995Y1832491D03*
G01X2324995Y1705491D03*
G01X2324995Y1578491D03*
G54D35*
G01X2501500Y1450500D03*
G01X2628500Y1450500D03*
G01X2755500Y1450500D03*
G01X2882500Y1450500D03*
G01X3009500Y1450500D03*
G01X3136500Y1450500D03*
G01X3263500Y1450500D03*
G01X3390500Y1450500D03*
G01X3517500Y1450500D03*
G01X3644500Y1450500D03*
G01X3771500Y1450500D03*
G01X3898500Y1453497D03*
G54D34*
G01X4075005Y1578491D03*
G01X4075005Y1705491D03*
G01X4075005Y1832491D03*
G01X4075005Y1959491D03*
G01X4075005Y2086491D03*
G01X4075005Y2213491D03*
G01X4075005Y2340491D03*
G01X4075005Y2467491D03*
G01X4075005Y2594491D03*
G01X4075005Y2721491D03*
G01X4075005Y2848491D03*
G01X4075005Y2975491D03*
G01X4075005Y3102491D03*
G01X4075005Y3229491D03*
G54D36*
G01X3189992Y2317478D03*
G01X3049988Y2317478D03*
G01X2909983Y2317478D03*
G01X2909983Y2597488D03*
G01X3049988Y2597488D03*
G01X3189992Y2597488D03*
G01X3189992Y2457483D03*
G01X2909983Y2457483D03*
G01X3049988Y2457483D03*
G54D37*
G01X240000Y1304839D03*
G01X240000Y1254851D03*
G01X240000Y1204839D03*
G01X240000Y1154852D03*
G54D38*
G01X315209Y1079998D03*
G01X365196Y1079998D03*
G01X415209Y1079998D03*
G01X465196Y1079998D03*
G54D37*
G01X539999Y1155004D03*
G01X539999Y1204991D03*
G01X539999Y1255004D03*
G01X539999Y1304839D03*
G54D38*
G01X465196Y1379997D03*
G01X415209Y1379997D03*
G01X365196Y1379997D03*
G01X315209Y1379997D03*
G54D39*
G01X389987Y1229985D03*
G54D40*
G01X8899987Y1049999D03*
G01X8850000Y1049999D03*
G01X8800013Y1049999D03*
G01X8750000Y1049999D03*
G01X8699987Y1049999D03*
G01X8700013Y579998D03*
G01X8750000Y579998D03*
G01X8799987Y579998D03*
G01X8850000Y579998D03*
G01X8900012Y579998D03*
G54D41*
G01X3518250Y334499D03*
G01X3518250Y461499D03*
G01X3518250Y588499D03*
G01X3518250Y715499D03*
G01X2981751Y334499D03*
G01X2981751Y461499D03*
G01X2981751Y588499D03*
G01X2981751Y715499D03*
G54D42*
G01X3250000Y524999D03*
G54D43*
G01X5053037Y1770195D03*
G01X5088384Y1805541D03*
G01X5123748Y1840906D03*
G01X5159094Y1876252D03*
G01X5194458Y1911616D03*
G01X5229805Y1946963D03*
G54D44*
G01X5229805Y2053038D03*
G01X5194458Y2088384D03*
G01X5159094Y2123748D03*
G01X5123748Y2159094D03*
G01X5088384Y2194459D03*
G01X5053037Y2229805D03*
G54D43*
G01X4946962Y2229805D03*
G01X4911616Y2194459D03*
G01X4876252Y2159094D03*
G01X4840906Y2123748D03*
G01X4805541Y2088384D03*
G01X4770752Y2053594D03*
G54D44*
G01X4770195Y1946963D03*
G01X4805541Y1911616D03*
G01X4840906Y1876252D03*
G01X4876252Y1840906D03*
G01X4911616Y1805541D03*
G01X4946962Y1770195D03*
G54D45*
G01X5000880Y2000880D03*
G54D46*
G01X1090000Y2800013D03*
G01X1090000Y2705017D03*
G01X1090000Y2894983D03*
G01X1310015Y2704991D03*
G01X1310015Y2895009D03*
G54D47*
G01X289999Y884998D03*
G54D48*
G01X489999Y884998D03*
G54D49*
G01X4664999Y3362751D03*
G01X4694997Y3362751D03*
G01X4745009Y3362751D03*
G01X4775007Y3362751D03*
G01X4824994Y3362751D03*
G01X4875007Y3362751D03*
G01X4924994Y3362751D03*
G01X4975006Y3362751D03*
G01X5024994Y3362751D03*
G01X5075006Y3362751D03*
G01X5124993Y3362751D03*
G01X5175006Y3362751D03*
G01X5224993Y3362751D03*
G01X5254991Y3362751D03*
G01X5305003Y3362751D03*
G01X5335001Y3362751D03*
G54D50*
G01X4567997Y3837249D03*
G54D51*
G01X4567997Y3419241D03*
G54D50*
G01X5432003Y3837249D03*
G54D51*
G01X5432003Y3419241D03*
G54D52*
G01X8673000Y300000D03*
G54D29*
G01X8927000Y300000D03*
G54D53*
G01X6114990Y2455000D03*
G01X6114990Y2374990D03*
G01X6114990Y2295006D03*
G01X6114990Y2214996D03*
G01X6114990Y2134986D03*
G01X6114990Y2055001D03*
G01X6114990Y1974991D03*
G01X6114990Y1895006D03*
G01X6114990Y1814996D03*
G01X6114990Y1734986D03*
G01X6114990Y1655002D03*
G01X6114990Y1574992D03*
G04 Pad End*

M02*

