G04 Layer: BottomLayer*
G04 EasyEDA Pro v2.2.46.11, 2026-03-19 10:49:02*
G04 Gerber Generator version 0.3*
G04 Scale: 100 percent, Rotated: No, Reflected: No*
G04 Dimensions in millimeters*
G04 Leading zeros omitted, absolute positions, 4 integers and 5 decimals*
G04 Generated by one-click*
%FSLAX45Y45*%
%MOMM*%
%ADD10C,4.0*%
%ADD11R,0.8X0.9*%
%ADD12R,0.9X0.8*%
%ADD13R,1.6X0.7*%
%ADD14R,1.5X1.2*%
%ADD15R,2.2X1.2*%
%ADD16R,1.5X1.6*%
%ADD17R,0.86401X0.80648*%
%ADD18C,1.8066*%
%ADD19C,1.8*%
%ADD20C,2.0*%
%ADD21R,0.42499X0.28001*%
%ADD22R,0.8X1.2*%
%ADD23R,1.5X1.4*%
%ADD24C,1.4*%
%ADD25O,1.0X1.8*%
%ADD26O,1.0X2.1*%
%ADD27R,1.8X1.8*%
%ADD28C,0.61*%
%ADD29C,0.5*%
%ADD30C,0.254*%
G75*


G04 Copper Start*
G36*
G01X283507Y2115871D02*
G01X439096Y2115871D01*
G01X446581Y2111768D01*
G01X454998Y2110348D01*
G01X497497Y2110348D01*
G01X499999Y2110470D01*
G01X499999Y2039522D01*
G01X497497Y2039644D01*
G01X454998Y2039644D01*
G01X447276Y2038454D01*
G01X440271Y2034996D01*
G01X283507Y2034996D01*
G01X283507Y2115871D01*
G37*
G36*
G01X9974346Y1000000D02*
G01X9973636Y962805D01*
G01X9971506Y925664D01*
G01X9965872Y933563D01*
G01X9957708Y938805D01*
G01X9948181Y940639D01*
G01X9861780Y940639D01*
G01X9852134Y938757D01*
G01X9843905Y933387D01*
G01X9838298Y925316D01*
G01X9821663Y925316D01*
G01X9816056Y933387D01*
G01X9807826Y938757D01*
G01X9798181Y940639D01*
G01X9711780Y940639D01*
G01X9702135Y938757D01*
G01X9693905Y933387D01*
G01X9688298Y925316D01*
G01X9421665Y925316D01*
G01X9416058Y933387D01*
G01X9407828Y938759D01*
G01X9398182Y940641D01*
G01X9311781Y940641D01*
G01X9302135Y938759D01*
G01X9293905Y933387D01*
G01X9288298Y925316D01*
G01X9272001Y925316D01*
G01X9266395Y933387D01*
G01X9258164Y938759D01*
G01X9248518Y940641D01*
G01X9162118Y940641D01*
G01X9152472Y938759D01*
G01X9144242Y933387D01*
G01X9138635Y925316D01*
G01X9121664Y925316D01*
G01X9116058Y933387D01*
G01X9107828Y938757D01*
G01X9098182Y940639D01*
G01X9011782Y940639D01*
G01X9002136Y938757D01*
G01X8993906Y933387D01*
G01X8988299Y925316D01*
G01X8876300Y925316D01*
G01X8750641Y1050975D01*
G01X8750641Y1125760D01*
G01X8751269Y1127117D01*
G01X8760360Y1115237D01*
G01X8772265Y1106178D01*
G01X8786139Y1100584D01*
G01X8800998Y1098852D01*
G01X8815787Y1101105D01*
G01X8829457Y1107182D01*
G01X8841037Y1116653D01*
G01X8849705Y1128846D01*
G01X8854847Y1142894D01*
G01X8856097Y1157801D01*
G01X8853366Y1172510D01*
G01X8849742Y1179998D01*
G01X8853828Y1179998D01*
G01X8855742Y1165464D01*
G01X8861351Y1151921D01*
G01X8870275Y1140291D01*
G01X8881905Y1131367D01*
G01X8895448Y1125757D01*
G01X8909982Y1123844D01*
G01X8924516Y1125757D01*
G01X8938059Y1131367D01*
G01X8949689Y1140291D01*
G01X8958613Y1151921D01*
G01X8964223Y1165464D01*
G01X8966136Y1179998D01*
G01X8964223Y1194531D01*
G01X8958613Y1208075D01*
G01X8949689Y1219705D01*
G01X8938059Y1228628D01*
G01X8924516Y1234238D01*
G01X8909982Y1236152D01*
G01X8895448Y1234238D01*
G01X8881905Y1228628D01*
G01X8870275Y1219705D01*
G01X8861351Y1208075D01*
G01X8855742Y1194531D01*
G01X8853828Y1179998D01*
G01X8853828Y1179998D01*
G01X8849742Y1179998D01*
G01X8846849Y1185975D01*
G01X8837008Y1197242D01*
G01X8824542Y1205511D01*
G01X8810334Y1210195D01*
G01X8795394Y1210962D01*
G01X8780782Y1207756D01*
G01X8767535Y1200807D01*
G01X8756592Y1190606D01*
G01X8748731Y1177878D01*
G01X8740095Y1189300D01*
G01X8728851Y1198166D01*
G01X8715730Y1203900D01*
G01X8701585Y1206129D01*
G01X8687337Y1204708D01*
G01X8673911Y1199730D01*
G01X8662181Y1191518D01*
G01X8652909Y1180606D01*
G01X8646698Y1167704D01*
G01X8643952Y1153650D01*
G01X8644850Y1139359D01*
G01X8649333Y1125760D01*
G01X8649333Y1029993D01*
G01X8651059Y1016883D01*
G01X8656120Y1004666D01*
G01X8664170Y994175D01*
G01X8819501Y838844D01*
G01X8829992Y830794D01*
G01X8842209Y825734D01*
G01X8855319Y824008D01*
G01X8988299Y824008D01*
G01X8993906Y815937D01*
G01X9002136Y810566D01*
G01X9011782Y808684D01*
G01X9084067Y808684D01*
G01X9079998Y796404D01*
G01X9078847Y783519D01*
G01X9080675Y770713D01*
G01X9085385Y758665D01*
G01X9092727Y748014D01*
G01X9102312Y739326D01*
G01X9113630Y733062D01*
G01X9126082Y729554D01*
G01X9139006Y728989D01*
G01X9151716Y731396D01*
G01X9163538Y736647D01*
G01X9173845Y744465D01*
G01X9184448Y736473D01*
G01X9196631Y731195D01*
G01X9209714Y728924D01*
G01X9222963Y729789D01*
G01X9235639Y733740D01*
G01X9247034Y740557D01*
G01X9256508Y749859D01*
G01X9263535Y761126D01*
G01X9267719Y773727D01*
G01X9268828Y786958D01*
G01X9266799Y800080D01*
G01X9261746Y812359D01*
G01X9267775Y817389D01*
G01X9272000Y824008D01*
G01X9288300Y824008D01*
G01X9293907Y815938D01*
G01X9302136Y810568D01*
G01X9311781Y808686D01*
G01X9398182Y808686D01*
G01X9407826Y810568D01*
G01X9416056Y815938D01*
G01X9421663Y824008D01*
G01X9688298Y824008D01*
G01X9693905Y815937D01*
G01X9702135Y810566D01*
G01X9711780Y808684D01*
G01X9798181Y808684D01*
G01X9807826Y810566D01*
G01X9816056Y815937D01*
G01X9821663Y824008D01*
G01X9838298Y824008D01*
G01X9843905Y815937D01*
G01X9852134Y810566D01*
G01X9861780Y808684D01*
G01X9948181Y808684D01*
G01X9955597Y809779D01*
G01X9941858Y750495D01*
G01X9924445Y692183D01*
G01X9903426Y635072D01*
G01X9878882Y579385D01*
G01X9850910Y525339D01*
G01X9819618Y473145D01*
G01X9785129Y423005D01*
G01X9747577Y375117D01*
G01X9707109Y329666D01*
G01X9663882Y286830D01*
G01X9618065Y246777D01*
G01X9569838Y209661D01*
G01X9519387Y175629D01*
G01X9466910Y144813D01*
G01X9412612Y117333D01*
G01X9356704Y93296D01*
G01X9299405Y72796D01*
G01X9240938Y55914D01*
G01X9181531Y42714D01*
G01X9121415Y33249D01*
G01X9060826Y27554D01*
G01X9000000Y25654D01*
G01X9000000Y25654D01*
G01X1000000Y25654D01*
G01X938820Y27577D01*
G01X877882Y33337D01*
G01X817426Y42912D01*
G01X757690Y56265D01*
G01X698911Y73342D01*
G01X641319Y94076D01*
G01X585144Y118385D01*
G01X530605Y146174D01*
G01X477919Y177332D01*
G01X427294Y211738D01*
G01X378928Y249254D01*
G01X372411Y254999D01*
G01X2925597Y254999D01*
G01X2927372Y240991D01*
G01X2932586Y227867D01*
G01X2940910Y216460D01*
G01X2951815Y207490D01*
G01X2964614Y201524D01*
G01X2978497Y198940D01*
G01X2992585Y199901D01*
G01X3005988Y204346D01*
G01X3349993Y204346D01*
G01X3363104Y206072D01*
G01X3375320Y211132D01*
G01X3385811Y219182D01*
G01X3556629Y390000D01*
G01X8557346Y390000D01*
G01X8557346Y210000D01*
G01X8559299Y200183D01*
G01X8564860Y191860D01*
G01X8573183Y186299D01*
G01X8583000Y184346D01*
G01X8763000Y184346D01*
G01X8763000Y184346D01*
G01X8772817Y186299D01*
G01X8781140Y191860D01*
G01X8786701Y200183D01*
G01X8788654Y210000D01*
G01X8788654Y300000D01*
G01X8811346Y300000D01*
G01X8813315Y278749D01*
G01X8819156Y258221D01*
G01X8828669Y239116D01*
G01X8841531Y222084D01*
G01X8857303Y207706D01*
G01X8875449Y196471D01*
G01X8895350Y188761D01*
G01X8916329Y184839D01*
G01X8937671Y184839D01*
G01X8958650Y188761D01*
G01X8978551Y196471D01*
G01X8996697Y207706D01*
G01X9012469Y222084D01*
G01X9025331Y239116D01*
G01X9034844Y258221D01*
G01X9040685Y278749D01*
G01X9042654Y300000D01*
G01X9040685Y321251D01*
G01X9034844Y341779D01*
G01X9025331Y360884D01*
G01X9012469Y377915D01*
G01X8996697Y392294D01*
G01X8978551Y403529D01*
G01X8958650Y411239D01*
G01X8937671Y415160D01*
G01X8916329Y415160D01*
G01X8895350Y411239D01*
G01X8875449Y403529D01*
G01X8857303Y392294D01*
G01X8841531Y377915D01*
G01X8828669Y360884D01*
G01X8819156Y341779D01*
G01X8813315Y321251D01*
G01X8811346Y300000D01*
G01X8811346Y300000D01*
G01X8788654Y300000D01*
G01X8788654Y390000D01*
G01X8786701Y399817D01*
G01X8781140Y408140D01*
G01X8772817Y413701D01*
G01X8763000Y415654D01*
G01X8583000Y415654D01*
G01X8573183Y413701D01*
G01X8564860Y408140D01*
G01X8559299Y399817D01*
G01X8557346Y390000D01*
G01X3556629Y390000D01*
G01X3705810Y539181D01*
G01X3713860Y549672D01*
G01X3718921Y561889D01*
G01X3720647Y574999D01*
G01X3720647Y690761D01*
G01X3720647Y690761D01*
G01X3725092Y704164D01*
G01X3726052Y718253D01*
G01X3723468Y732135D01*
G01X3717502Y744934D01*
G01X3708532Y755840D01*
G01X3697125Y764163D01*
G01X3684002Y769377D01*
G01X3669993Y771153D01*
G01X3655984Y769377D01*
G01X3642861Y764163D01*
G01X3631453Y755840D01*
G01X3622483Y744934D01*
G01X3616517Y732135D01*
G01X3613933Y718253D01*
G01X3614894Y704164D01*
G01X3619339Y690761D01*
G01X3619339Y595980D01*
G01X3329012Y305653D01*
G01X3005988Y305653D01*
G01X2992585Y310098D01*
G01X2978497Y311059D01*
G01X2964614Y308475D01*
G01X2951815Y302509D01*
G01X2940910Y293539D01*
G01X2932586Y282131D01*
G01X2927372Y269008D01*
G01X2925597Y254999D01*
G01X372411Y254999D01*
G01X333014Y289732D01*
G01X289732Y333014D01*
G01X249254Y378928D01*
G01X211738Y427294D01*
G01X177332Y477919D01*
G01X146174Y530605D01*
G01X118385Y585144D01*
G01X94076Y641319D01*
G01X73342Y698911D01*
G01X56265Y757690D01*
G01X42912Y817426D01*
G01X33337Y877882D01*
G01X32664Y884998D01*
G01X394345Y884998D01*
G01X396157Y866470D01*
G01X401523Y848644D01*
G01X410240Y832195D01*
G01X421979Y817746D01*
G01X436293Y805844D01*
G01X452643Y796941D01*
G01X470407Y791372D01*
G01X488913Y789351D01*
G01X507460Y790952D01*
G01X525346Y796115D01*
G01X541893Y804645D01*
G01X556475Y816218D01*
G01X568538Y830397D01*
G01X577627Y846644D01*
G01X1014998Y846644D01*
G01X1024925Y847951D01*
G01X1034175Y851783D01*
G01X1042118Y857878D01*
G01X1214238Y1029998D01*
G01X2953840Y1029998D01*
G01X2955808Y1015262D01*
G01X2961574Y1001559D01*
G01X2970733Y989850D01*
G01X2982644Y980954D01*
G01X2996473Y975496D01*
G01X3011249Y973858D01*
G01X3025937Y976155D01*
G01X3039507Y982225D01*
G01X3051009Y991644D01*
G01X6173972Y991644D01*
G01X6185134Y982437D01*
G01X6198279Y976387D01*
G01X6212532Y973898D01*
G01X6226949Y975133D01*
G01X6240572Y980011D01*
G01X6252495Y988207D01*
G01X6261929Y999179D01*
G01X6268245Y1012197D01*
G01X6271026Y1026397D01*
G01X6270086Y1040836D01*
G01X6265487Y1054555D01*
G01X6257536Y1066644D01*
G01X6358972Y1066644D01*
G01X6370474Y1057225D01*
G01X6384045Y1051154D01*
G01X6398733Y1048858D01*
G01X6413508Y1050496D01*
G01X6427337Y1055954D01*
G01X6439248Y1064850D01*
G01X6448408Y1076559D01*
G01X6454173Y1090262D01*
G01X6456141Y1104998D01*
G01X6454173Y1119733D01*
G01X6448408Y1133436D01*
G01X6439248Y1145146D01*
G01X6427337Y1154041D01*
G01X6413508Y1159500D01*
G01X6398733Y1161138D01*
G01X6384045Y1158841D01*
G01X6370474Y1152771D01*
G01X6358972Y1143352D01*
G01X3176009Y1143352D01*
G01X3176009Y1143352D01*
G01X3164847Y1152559D01*
G01X3151703Y1158608D01*
G01X3137449Y1161098D01*
G01X3123032Y1159863D01*
G01X3109410Y1154985D01*
G01X3097486Y1146788D01*
G01X3088053Y1135817D01*
G01X3081736Y1122799D01*
G01X3078955Y1108599D01*
G01X3079895Y1094160D01*
G01X3084494Y1080441D01*
G01X3092445Y1068352D01*
G01X3051009Y1068352D01*
G01X3039507Y1077771D01*
G01X3025937Y1083841D01*
G01X3011249Y1086138D01*
G01X2996473Y1084500D01*
G01X2982644Y1079042D01*
G01X2970733Y1070146D01*
G01X2961574Y1058436D01*
G01X2955808Y1044734D01*
G01X2953840Y1029998D01*
G01X1214238Y1029998D01*
G01X1222118Y1037877D01*
G01X1228213Y1045821D01*
G01X1232045Y1055071D01*
G01X1233352Y1064998D01*
G01X1233352Y1093982D01*
G01X1242770Y1105485D01*
G01X1248841Y1119055D01*
G01X1251138Y1133743D01*
G01X1249499Y1148519D01*
G01X1244041Y1162347D01*
G01X1235146Y1174259D01*
G01X1223436Y1183418D01*
G01X1209733Y1189184D01*
G01X1194998Y1191152D01*
G01X1180262Y1189184D01*
G01X1166559Y1183418D01*
G01X1154850Y1174259D01*
G01X1145954Y1162347D01*
G01X1140496Y1148519D01*
G01X1138858Y1133743D01*
G01X1141154Y1119055D01*
G01X1147225Y1105485D01*
G01X1156644Y1093982D01*
G01X1156644Y1080885D01*
G01X1156644Y1080885D01*
G01X999111Y923352D01*
G01X577627Y923352D01*
G01X568538Y939599D01*
G01X556475Y953778D01*
G01X541893Y965352D01*
G01X525346Y973882D01*
G01X507460Y979045D01*
G01X488913Y980646D01*
G01X470407Y978624D01*
G01X452643Y973056D01*
G01X436293Y964152D01*
G01X421979Y952251D01*
G01X410240Y937802D01*
G01X401523Y921352D01*
G01X396157Y903526D01*
G01X394345Y884998D01*
G01X32664Y884998D01*
G01X27577Y938820D01*
G01X25654Y1000000D01*
G01X25654Y1064998D01*
G01X58846Y1064998D01*
G01X60759Y1050464D01*
G01X66369Y1036921D01*
G01X75293Y1025291D01*
G01X86923Y1016367D01*
G01X100466Y1010757D01*
G01X115000Y1008844D01*
G01X129534Y1010757D01*
G01X143077Y1016367D01*
G01X154707Y1025291D01*
G01X163631Y1036921D01*
G01X169240Y1050464D01*
G01X171154Y1064998D01*
G01X169240Y1079532D01*
G01X163631Y1093075D01*
G01X154707Y1104705D01*
G01X143077Y1113629D01*
G01X129534Y1119239D01*
G01X115000Y1121152D01*
G01X100466Y1119239D01*
G01X86923Y1113629D01*
G01X75293Y1104705D01*
G01X66369Y1093075D01*
G01X60759Y1079532D01*
G01X58846Y1064998D01*
G01X58846Y1064998D01*
G01X25654Y1064998D01*
G01X25654Y1469997D01*
G01X58846Y1469997D01*
G01X60759Y1455463D01*
G01X66369Y1441920D01*
G01X75293Y1430290D01*
G01X86923Y1421366D01*
G01X100466Y1415756D01*
G01X115000Y1413843D01*
G01X129534Y1415756D01*
G01X143077Y1421366D01*
G01X154707Y1430290D01*
G01X163631Y1441920D01*
G01X169240Y1455463D01*
G01X171154Y1469997D01*
G01X171071Y1470624D01*
G01X178849Y1470624D01*
G01X180652Y1455868D01*
G01X186264Y1442101D01*
G01X195293Y1430290D01*
G01X207104Y1421262D01*
G01X220870Y1415650D01*
G01X235627Y1413846D01*
G01X250340Y1415979D01*
G01X263977Y1421897D01*
G01X275584Y1431187D01*
G01X284346Y1443197D01*
G01X289649Y1457086D01*
G01X291122Y1471879D01*
G01X328847Y1509603D01*
G01X330526Y1496361D01*
G01X335283Y1483890D01*
G01X342850Y1472893D01*
G01X352798Y1463993D01*
G01X364566Y1457693D01*
G01X377488Y1454348D01*
G01X390835Y1454147D01*
G01X403852Y1457102D01*
G01X415803Y1463046D01*
G01X426014Y1471643D01*
G01X623184Y1471643D01*
G01X619594Y1459143D01*
G01X618976Y1446153D01*
G01X621363Y1433368D01*
G01X626627Y1421476D01*
G01X634485Y1411113D01*
G01X644517Y1402836D01*
G01X656183Y1397089D01*
G01X668859Y1394180D01*
G01X681864Y1394264D01*
G01X694500Y1397338D01*
G01X706091Y1403237D01*
G01X716014Y1411643D01*
G01X1154998Y1411643D01*
G01X1164924Y1412950D01*
G01X1174175Y1416782D01*
G01X1182118Y1422877D01*
G01X1434248Y1675007D01*
G01X1873842Y1675007D01*
G01X1875810Y1660271D01*
G01X1881576Y1646569D01*
G01X1890735Y1634859D01*
G01X1902647Y1625963D01*
G01X1916475Y1620505D01*
G01X1931251Y1618867D01*
G01X1945939Y1621164D01*
G01X1959509Y1627234D01*
G01X1971011Y1636653D01*
G01X3747972Y1636653D01*
G01X3737780Y1630993D01*
G01X3728977Y1623351D01*
G01X3514993Y1623351D01*
G01X3505066Y1622044D01*
G01X3495816Y1618212D01*
G01X3487873Y1612117D01*
G01X3449106Y1573351D01*
G01X1971011Y1573351D01*
G01X1959509Y1582770D01*
G01X1945939Y1588840D01*
G01X1931251Y1591137D01*
G01X1916475Y1589499D01*
G01X1902647Y1584041D01*
G01X1890735Y1575145D01*
G01X1881576Y1563435D01*
G01X1875810Y1549733D01*
G01X1873842Y1534997D01*
G01X1875810Y1520261D01*
G01X1881576Y1506558D01*
G01X1890735Y1494849D01*
G01X1902647Y1485953D01*
G01X1916475Y1480495D01*
G01X1931251Y1478857D01*
G01X1945939Y1481154D01*
G01X1959509Y1487224D01*
G01X1971011Y1496643D01*
G01X2268181Y1496643D01*
G01X2264591Y1484143D01*
G01X2263973Y1471152D01*
G01X2266360Y1458368D01*
G01X2271624Y1446476D01*
G01X2279482Y1436113D01*
G01X2289513Y1427836D01*
G01X2301180Y1422089D01*
G01X2313855Y1419180D01*
G01X2326860Y1419264D01*
G01X2339497Y1422338D01*
G01X2351088Y1428236D01*
G01X2361011Y1436643D01*
G01X4105562Y1436643D01*
G01X4100296Y1422713D01*
G01X4098877Y1407889D01*
G01X4101405Y1393213D01*
G01X4107701Y1379717D01*
G01X4117323Y1368351D01*
G01X2796010Y1368351D01*
G01X2784508Y1377770D01*
G01X2770937Y1383841D01*
G01X2756249Y1386137D01*
G01X2741473Y1384499D01*
G01X2727645Y1379041D01*
G01X2715734Y1370145D01*
G01X2706574Y1358436D01*
G01X2700808Y1344733D01*
G01X2698840Y1329997D01*
G01X2700808Y1315262D01*
G01X2706574Y1301559D01*
G01X2715734Y1289849D01*
G01X2727645Y1280954D01*
G01X2741473Y1275495D01*
G01X2756249Y1273857D01*
G01X2770937Y1276154D01*
G01X2784508Y1282224D01*
G01X2796010Y1291643D01*
G01X2835565Y1291643D01*
G01X2830643Y1279111D01*
G01X2828845Y1265768D01*
G01X2830276Y1252381D01*
G01X2834852Y1239718D01*
G01X2842311Y1228509D01*
G01X2852223Y1219398D01*
G01X2864019Y1212908D01*
G01X2877022Y1209412D01*
G01X2890482Y1209112D01*
G01X2903627Y1212025D01*
G01X2915701Y1217983D01*
G01X2926009Y1226643D01*
G01X3213179Y1226643D01*
G01X3209589Y1214144D01*
G01X3208971Y1201153D01*
G01X3211358Y1188369D01*
G01X3216622Y1176476D01*
G01X3224480Y1166114D01*
G01X3234511Y1157837D01*
G01X3246178Y1152090D01*
G01X3258853Y1149180D01*
G01X3271858Y1149265D01*
G01X3284495Y1152339D01*
G01X3296086Y1158237D01*
G01X3306009Y1166644D01*
G01X5833973Y1166644D01*
G01X5843896Y1158237D01*
G01X5855487Y1152339D01*
G01X5868123Y1149265D01*
G01X5881128Y1149180D01*
G01X5893804Y1152090D01*
G01X5905470Y1157837D01*
G01X5915502Y1166114D01*
G01X5923360Y1176476D01*
G01X5928624Y1188369D01*
G01X5931011Y1201153D01*
G01X5930392Y1214144D01*
G01X5926803Y1226643D01*
G01X6289987Y1226643D01*
G01X6299914Y1227950D01*
G01X6309164Y1231782D01*
G01X6317108Y1237877D01*
G01X6343106Y1263875D01*
G01X6357899Y1265348D01*
G01X6371787Y1270651D01*
G01X6383797Y1279413D01*
G01X6393087Y1291020D01*
G01X6399005Y1304657D01*
G01X6401138Y1319370D01*
G01X6399335Y1334127D01*
G01X6393722Y1347893D01*
G01X6384694Y1359704D01*
G01X6372883Y1368732D01*
G01X6359117Y1374345D01*
G01X6344360Y1376148D01*
G01X6329647Y1374016D01*
G01X6316010Y1368097D01*
G01X6304403Y1358807D01*
G01X6295641Y1346797D01*
G01X6290338Y1332909D01*
G01X6288865Y1318116D01*
G01X6274101Y1303351D01*
G01X5854418Y1303351D01*
G01X5859416Y1316180D01*
G01X5861142Y1329838D01*
G01X5859493Y1343506D01*
G01X5854568Y1356363D01*
G01X5846663Y1367634D01*
G01X5836253Y1376643D01*
G01X7878969Y1376643D01*
G01X7888892Y1368237D01*
G01X7900483Y1362338D01*
G01X7913119Y1359264D01*
G01X7926124Y1359180D01*
G01X7938800Y1362089D01*
G01X7950466Y1367837D01*
G01X7960498Y1376113D01*
G01X7968356Y1386476D01*
G01X7973620Y1398368D01*
G01X7976006Y1411153D01*
G01X7975388Y1424143D01*
G01X7971799Y1436643D01*
G01X9153966Y1436643D01*
G01X9164084Y1428108D01*
G01X9175917Y1422178D01*
G01X9188811Y1419183D01*
G01X9202047Y1419289D01*
G01X9214890Y1422491D01*
G01X9226627Y1428609D01*
G01X9226627Y1425884D01*
G01X9027862Y1227118D01*
G01X9021766Y1219175D01*
G01X9017935Y1209924D01*
G01X9016628Y1199998D01*
G01X9016628Y1091312D01*
G01X9011782Y1091312D01*
G01X9001964Y1089359D01*
G01X8993641Y1083798D01*
G01X8988080Y1075476D01*
G01X8986128Y1065658D01*
G01X8986128Y985011D01*
G01X8988080Y975193D01*
G01X8993641Y966871D01*
G01X9001964Y961310D01*
G01X9011782Y959357D01*
G01X9098182Y959357D01*
G01X9108000Y961310D01*
G01X9116322Y966871D01*
G01X9121883Y975193D01*
G01X9123836Y985011D01*
G01X9123836Y1065658D01*
G01X9121883Y1075476D01*
G01X9116322Y1083798D01*
G01X9108000Y1089359D01*
G01X9098182Y1091312D01*
G01X9093336Y1091312D01*
G01X9093336Y1184111D01*
G01X9292102Y1382877D01*
G01X9297829Y1390196D01*
G01X9301627Y1398679D01*
G01X9301627Y1380884D01*
G01X9178198Y1257454D01*
G01X9172103Y1249511D01*
G01X9168271Y1240261D01*
G01X9166964Y1230334D01*
G01X9166964Y1091314D01*
G01X9162118Y1091314D01*
G01X9152300Y1089361D01*
G01X9143978Y1083800D01*
G01X9138417Y1075477D01*
G01X9136464Y1065660D01*
G01X9136464Y985013D01*
G01X9138417Y975195D01*
G01X9143978Y966872D01*
G01X9152300Y961311D01*
G01X9162118Y959359D01*
G01X9248518Y959359D01*
G01X9258336Y961311D01*
G01X9266659Y966872D01*
G01X9272220Y975195D01*
G01X9274172Y985013D01*
G01X9274172Y1065660D01*
G01X9272220Y1075477D01*
G01X9266659Y1083800D01*
G01X9258336Y1089361D01*
G01X9248518Y1091314D01*
G01X9243672Y1091314D01*
G01X9243672Y1214447D01*
G01X9366627Y1337402D01*
G01X9366627Y1320884D01*
G01X9327861Y1282118D01*
G01X9321766Y1274174D01*
G01X9317934Y1264924D01*
G01X9316627Y1254997D01*
G01X9316627Y1091314D01*
G01X9311781Y1091314D01*
G01X9301964Y1089361D01*
G01X9293641Y1083800D01*
G01X9288080Y1075477D01*
G01X9286127Y1065660D01*
G01X9286127Y985013D01*
G01X9288080Y975195D01*
G01X9293641Y966872D01*
G01X9301964Y961311D01*
G01X9311781Y959359D01*
G01X9398182Y959359D01*
G01X9407999Y961311D01*
G01X9416322Y966872D01*
G01X9421883Y975195D01*
G01X9423836Y985013D01*
G01X9423836Y1065660D01*
G01X9421883Y1075477D01*
G01X9416322Y1083800D01*
G01X9407999Y1089361D01*
G01X9398182Y1091314D01*
G01X9393335Y1091314D01*
G01X9393335Y1239111D01*
G01X9432102Y1277877D01*
G01X9438197Y1285820D01*
G01X9442028Y1295071D01*
G01X9443335Y1304997D01*
G01X9443335Y1649997D01*
G01X9442028Y1659923D01*
G01X9438197Y1669174D01*
G01X9432102Y1677117D01*
G01X9087102Y2022117D01*
G01X9079159Y2028212D01*
G01X9069908Y2032043D01*
G01X9059982Y2033350D01*
G01X8625437Y2033350D01*
G01X8622359Y2042580D01*
G01X8616065Y2050000D01*
G01X8620984Y2055241D01*
G01X8624256Y2061642D01*
G01X8628967Y2061642D01*
G01X8640469Y2052223D01*
G01X8654040Y2046152D01*
G01X8668728Y2043856D01*
G01X8683504Y2045494D01*
G01X8697332Y2050952D01*
G01X8709243Y2059848D01*
G01X8718403Y2071557D01*
G01X8724169Y2085260D01*
G01X8726137Y2099996D01*
G01X8724169Y2114731D01*
G01X8718403Y2128434D01*
G01X8709243Y2140144D01*
G01X8697332Y2149039D01*
G01X8683504Y2154498D01*
G01X8668728Y2156136D01*
G01X8654040Y2153839D01*
G01X8640469Y2147769D01*
G01X8628967Y2138350D01*
G01X8625657Y2138350D01*
G01X8625657Y2140004D01*
G01X8624528Y2147532D01*
G01X8621239Y2154397D01*
G01X8616081Y2159995D01*
G01X8621239Y2165593D01*
G01X8624528Y2172458D01*
G01X8625657Y2179986D01*
G01X8625657Y2249986D01*
G01X8623705Y2259803D01*
G01X8618143Y2268126D01*
G01X8609821Y2273687D01*
G01X8600003Y2275640D01*
G01X8440004Y2275640D01*
G01X8430968Y2273996D01*
G01X8423091Y2269275D01*
G01X8417381Y2262083D01*
G01X8414570Y2253340D01*
G01X8220999Y2253340D01*
G01X8209497Y2262759D01*
G01X8195926Y2268829D01*
G01X8181238Y2271126D01*
G01X8166462Y2269488D01*
G01X8152634Y2264029D01*
G01X8140723Y2255134D01*
G01X8131563Y2243424D01*
G01X8125797Y2229721D01*
G01X8123830Y2214986D01*
G01X8125797Y2200250D01*
G01X8131563Y2186547D01*
G01X8140723Y2174838D01*
G01X8152634Y2165942D01*
G01X8166462Y2160484D01*
G01X8181238Y2158846D01*
G01X8195926Y2161142D01*
G01X8209497Y2167213D01*
G01X8220999Y2176632D01*
G01X8414570Y2176632D01*
G01X8417643Y2167411D01*
G01X8423926Y2159995D01*
G01X8418768Y2154397D01*
G01X8415479Y2147532D01*
G01X8414350Y2140004D01*
G01X8414350Y2070004D01*
G01X8415481Y2062469D01*
G01X8418775Y2055599D01*
G01X8423942Y2050000D01*
G01X8417648Y2042580D01*
G01X8414570Y2033350D01*
G01X7945871Y2033350D01*
G01X7896107Y2083114D01*
G01X7894824Y2097075D01*
G01X7890123Y2110283D01*
G01X7882296Y2121914D01*
G01X7871832Y2131245D01*
G01X7859383Y2137693D01*
G01X7845725Y2140856D01*
G01X7831709Y2140537D01*
G01X7818209Y2136756D01*
G01X7806066Y2129749D01*
G01X7796038Y2119952D01*
G01X7788748Y2107977D01*
G01X7784652Y2094569D01*
G01X7207106Y2672115D01*
G01X7199163Y2678210D01*
G01X7189912Y2682042D01*
G01X7179986Y2683349D01*
G01X2726010Y2683349D01*
G01X2717900Y2689990D01*
G01X8414350Y2689990D01*
G01X8414350Y2619990D01*
G01X8415481Y2612455D01*
G01X8418775Y2605586D01*
G01X8423942Y2599986D01*
G01X8418775Y2594387D01*
G01X8415481Y2587517D01*
G01X8414350Y2579982D01*
G01X8414350Y2509983D01*
G01X8415479Y2502455D01*
G01X8418768Y2495589D01*
G01X8423926Y2489991D01*
G01X8418768Y2484394D01*
G01X8415479Y2477528D01*
G01X8414350Y2470000D01*
G01X8414350Y2400001D01*
G01X8416302Y2390183D01*
G01X8421864Y2381860D01*
G01X8430186Y2376299D01*
G01X8440004Y2374347D01*
G01X8600003Y2374347D01*
G01X8609039Y2375990D01*
G01X8616916Y2380711D01*
G01X8622626Y2387904D01*
G01X8625437Y2396646D01*
G01X8913962Y2396646D01*
G01X8923972Y2388180D01*
G01X8935673Y2382265D01*
G01X8948427Y2379225D01*
G01X8961537Y2379225D01*
G01X8974291Y2382265D01*
G01X8985992Y2388180D01*
G01X8996002Y2396646D01*
G01X9014090Y2396646D01*
G01X9630765Y1779972D01*
G01X9613083Y1780371D01*
G01X9595697Y1777130D01*
G01X9579347Y1770388D01*
G01X9564730Y1760431D01*
G01X9552469Y1747685D01*
G01X9543088Y1732692D01*
G01X9536986Y1716092D01*
G01X9534423Y1698593D01*
G01X9535509Y1680941D01*
G01X9540197Y1663887D01*
G01X9548287Y1648160D01*
G01X9559435Y1634430D01*
G01X9573165Y1623283D01*
G01X9588892Y1615192D01*
G01X9605945Y1610504D01*
G01X9623598Y1609419D01*
G01X9641097Y1611981D01*
G01X9657696Y1618084D01*
G01X9672689Y1627465D01*
G01X9685436Y1639725D01*
G01X9695392Y1654342D01*
G01X9702135Y1670692D01*
G01X9705375Y1688079D01*
G01X9704976Y1705760D01*
G01X9716626Y1694110D01*
G01X9716626Y1694110D01*
G01X9716626Y1091312D01*
G01X9711780Y1091312D01*
G01X9701963Y1089359D01*
G01X9693640Y1083798D01*
G01X9688079Y1075476D01*
G01X9686126Y1065658D01*
G01X9686126Y985011D01*
G01X9688079Y975193D01*
G01X9693640Y966871D01*
G01X9701963Y961310D01*
G01X9711780Y959357D01*
G01X9798181Y959357D01*
G01X9807998Y961310D01*
G01X9816321Y966871D01*
G01X9821882Y975193D01*
G01X9823835Y985011D01*
G01X9823835Y1065658D01*
G01X9821882Y1075476D01*
G01X9816321Y1083798D01*
G01X9807998Y1089359D01*
G01X9798181Y1091312D01*
G01X9793334Y1091312D01*
G01X9793334Y1709997D01*
G01X9792028Y1719923D01*
G01X9788196Y1729174D01*
G01X9782101Y1737117D01*
G01X9057097Y2462121D01*
G01X9049154Y2468216D01*
G01X9039903Y2472048D01*
G01X9029977Y2473354D01*
G01X8995992Y2473354D01*
G01X8985983Y2481816D01*
G01X8974285Y2487727D01*
G01X8961535Y2490765D01*
G01X8948429Y2490765D01*
G01X8935679Y2487727D01*
G01X8923981Y2481816D01*
G01X8913972Y2473354D01*
G01X8625437Y2473354D01*
G01X8622364Y2482576D01*
G01X8616081Y2489991D01*
G01X8622364Y2497407D01*
G01X8625437Y2506628D01*
G01X9003978Y2506628D01*
G01X9013987Y2498170D01*
G01X9025683Y2492261D01*
G01X9038430Y2489224D01*
G01X9051534Y2489224D01*
G01X9064281Y2492261D01*
G01X9075977Y2498170D01*
G01X9085986Y2506628D01*
G01X9134107Y2506628D01*
G01X9866626Y1774110D01*
G01X9866626Y1091312D01*
G01X9861780Y1091312D01*
G01X9851963Y1089359D01*
G01X9843640Y1083798D01*
G01X9838079Y1075476D01*
G01X9836126Y1065658D01*
G01X9836126Y985011D01*
G01X9838079Y975193D01*
G01X9843640Y966871D01*
G01X9851963Y961310D01*
G01X9861780Y959357D01*
G01X9948181Y959357D01*
G01X9957998Y961310D01*
G01X9966321Y966871D01*
G01X9971882Y975193D01*
G01X9973835Y985011D01*
G01X9973835Y1065658D01*
G01X9971882Y1075476D01*
G01X9966321Y1083798D01*
G01X9957998Y1089359D01*
G01X9948181Y1091312D01*
G01X9943334Y1091312D01*
G01X9943334Y1789996D01*
G01X9942027Y1799923D01*
G01X9938196Y1809173D01*
G01X9932101Y1817117D01*
G01X9254222Y2494995D01*
G01X9534347Y2494995D01*
G01X9536219Y2477187D01*
G01X9541753Y2460157D01*
G01X9550706Y2444649D01*
G01X9562688Y2431342D01*
G01X9577174Y2420817D01*
G01X9593533Y2413534D01*
G01X9611048Y2409811D01*
G01X9628955Y2409811D01*
G01X9646470Y2413534D01*
G01X9662828Y2420817D01*
G01X9677315Y2431342D01*
G01X9689297Y2444649D01*
G01X9698250Y2460157D01*
G01X9703783Y2477187D01*
G01X9705655Y2494995D01*
G01X9703783Y2512804D01*
G01X9698250Y2529834D01*
G01X9689297Y2545341D01*
G01X9677315Y2558649D01*
G01X9662828Y2569174D01*
G01X9646470Y2576457D01*
G01X9628955Y2580180D01*
G01X9611048Y2580180D01*
G01X9593533Y2576457D01*
G01X9577174Y2569174D01*
G01X9562688Y2558649D01*
G01X9550706Y2545341D01*
G01X9541753Y2529834D01*
G01X9536219Y2512804D01*
G01X9534347Y2494995D01*
G01X9534347Y2494995D01*
G01X9254222Y2494995D01*
G01X9177115Y2572103D01*
G01X9169171Y2578198D01*
G01X9159921Y2582030D01*
G01X9149994Y2583336D01*
G01X9086009Y2583336D01*
G01X9075997Y2591806D01*
G01X9064295Y2597723D01*
G01X9051539Y2600765D01*
G01X9038425Y2600765D01*
G01X9025669Y2597723D01*
G01X9013966Y2591806D01*
G01X9003955Y2583336D01*
G01X8625437Y2583336D01*
G01X8622359Y2592566D01*
G01X8616065Y2599986D01*
G01X8621232Y2605586D01*
G01X8624526Y2612455D01*
G01X8625657Y2619990D01*
G01X8625657Y2689990D01*
G01X8623705Y2699807D01*
G01X8618143Y2708130D01*
G01X8609821Y2713691D01*
G01X8600003Y2715644D01*
G01X8440004Y2715644D01*
G01X8430186Y2713691D01*
G01X8421864Y2708130D01*
G01X8416302Y2699807D01*
G01X8414350Y2689990D01*
G01X2717900Y2689990D01*
G01X2714508Y2692768D01*
G01X2700937Y2698838D01*
G01X2686249Y2701135D01*
G01X2671473Y2699497D01*
G01X2657645Y2694038D01*
G01X2645734Y2685143D01*
G01X2636574Y2673433D01*
G01X2630808Y2659730D01*
G01X2628841Y2644995D01*
G01X2630808Y2630259D01*
G01X2636574Y2616556D01*
G01X2645734Y2604847D01*
G01X2657645Y2595951D01*
G01X2671473Y2590493D01*
G01X2686249Y2588855D01*
G01X2700937Y2591151D01*
G01X2714508Y2597222D01*
G01X2726010Y2606641D01*
G01X4207537Y2606641D01*
G01X4204352Y2594179D01*
G01X4204086Y2581319D01*
G01X4206753Y2568736D01*
G01X4212213Y2557090D01*
G01X4220180Y2546992D01*
G01X4230237Y2538972D01*
G01X4241854Y2533450D01*
G01X4254423Y2530717D01*
G01X4267284Y2530916D01*
G01X4279762Y2534036D01*
G01X4291203Y2539914D01*
G01X4301007Y2548241D01*
G01X7102499Y2548241D01*
G01X7826989Y1823750D01*
G01X3710393Y1823750D01*
G01X3710393Y1823750D01*
G01X3700466Y1822444D01*
G01X3691216Y1818612D01*
G01X3683272Y1812517D01*
G01X3669106Y1798350D01*
G01X2596010Y1798350D01*
G01X2585685Y1807022D01*
G01X2573591Y1812982D01*
G01X2560424Y1815887D01*
G01X2546945Y1815571D01*
G01X2533929Y1812049D01*
G01X2522128Y1805527D01*
G01X2512222Y1796380D01*
G01X2504782Y1785136D01*
G01X2500237Y1772441D01*
G01X2498849Y1759030D01*
G01X2500698Y1745674D01*
G01X2505677Y1733144D01*
G01X2513500Y1722162D01*
G01X2523715Y1713361D01*
G01X1971011Y1713361D01*
G01X1959509Y1722780D01*
G01X1945939Y1728850D01*
G01X1931251Y1731147D01*
G01X1916475Y1729509D01*
G01X1902647Y1724051D01*
G01X1890735Y1715155D01*
G01X1881576Y1703446D01*
G01X1875810Y1689743D01*
G01X1873842Y1675007D01*
G01X1434248Y1675007D01*
G01X1639238Y1879996D01*
G01X2498841Y1879996D01*
G01X2500809Y1865261D01*
G01X2506575Y1851558D01*
G01X2515734Y1839848D01*
G01X2527645Y1830953D01*
G01X2541474Y1825494D01*
G01X2556250Y1823856D01*
G01X2570938Y1826153D01*
G01X2584508Y1832223D01*
G01X2596010Y1841642D01*
G01X4238976Y1841642D01*
G01X4249730Y1832694D01*
G01X4262361Y1826682D01*
G01X4276087Y1823978D01*
G01X4290056Y1824751D01*
G01X4303399Y1828954D01*
G01X4315290Y1836324D01*
G01X4324990Y1846404D01*
G01X4331897Y1858570D01*
G01X4335583Y1872065D01*
G01X4335818Y1886053D01*
G01X4332588Y1899665D01*
G01X4326094Y1912056D01*
G01X4316739Y1922457D01*
G01X4305103Y1930223D01*
G01X4291908Y1934871D01*
G01X4277974Y1936114D01*
G01X4264165Y1933874D01*
G01X4251338Y1928290D01*
G01X4257643Y1940474D01*
G01X4260805Y1953824D01*
G01X4260636Y1967542D01*
G01X4257359Y1979999D01*
G01X5553835Y1979999D01*
G01X5555748Y1965465D01*
G01X5561358Y1951922D01*
G01X5570282Y1940292D01*
G01X5581912Y1931368D01*
G01X5595455Y1925758D01*
G01X5609989Y1923845D01*
G01X5624523Y1925758D01*
G01X5638066Y1931368D01*
G01X5649696Y1940292D01*
G01X5658620Y1951922D01*
G01X5664229Y1965465D01*
G01X5666143Y1979999D01*
G01X5664229Y1994532D01*
G01X5658620Y2008076D01*
G01X5649696Y2019706D01*
G01X5638066Y2028629D01*
G01X5624523Y2034239D01*
G01X5609989Y2036153D01*
G01X5595455Y2034239D01*
G01X5581912Y2028629D01*
G01X5570282Y2019706D01*
G01X5561358Y2008076D01*
G01X5555748Y1994532D01*
G01X5553835Y1979999D01*
G01X5553835Y1979999D01*
G01X4257359Y1979999D01*
G01X4257146Y1980809D01*
G01X4250543Y1992835D01*
G01X4241221Y2002900D01*
G01X4229736Y2010404D01*
G01X4216775Y2014900D01*
G01X4203110Y2016119D01*
G01X4134233Y2084996D01*
G01X4203837Y2084996D01*
G01X4205751Y2070462D01*
G01X4211361Y2056919D01*
G01X4220285Y2045289D01*
G01X4231914Y2036365D01*
G01X4245458Y2030755D01*
G01X4259991Y2028842D01*
G01X4274525Y2030755D01*
G01X4288069Y2036365D01*
G01X4299698Y2045289D01*
G01X4308622Y2056919D01*
G01X4314232Y2070462D01*
G01X4316146Y2084996D01*
G01X4314232Y2099530D01*
G01X4308622Y2113073D01*
G01X4299698Y2124703D01*
G01X4288069Y2133627D01*
G01X4274525Y2139236D01*
G01X4259991Y2141150D01*
G01X4245458Y2139236D01*
G01X4231914Y2133627D01*
G01X4220285Y2124703D01*
G01X4211361Y2113073D01*
G01X4205751Y2099530D01*
G01X4203837Y2084996D01*
G01X4203837Y2084996D01*
G01X4134233Y2084996D01*
G01X4004243Y2214986D01*
G01X4203837Y2214986D01*
G01X4205751Y2200452D01*
G01X4211361Y2186909D01*
G01X4220285Y2175279D01*
G01X4231914Y2166355D01*
G01X4245458Y2160745D01*
G01X4259991Y2158832D01*
G01X4274525Y2160745D01*
G01X4288069Y2166355D01*
G01X4299698Y2175279D01*
G01X4308622Y2186909D01*
G01X4314232Y2200452D01*
G01X4316146Y2214986D01*
G01X4314232Y2229519D01*
G01X4308622Y2243063D01*
G01X4299698Y2254693D01*
G01X4288069Y2263617D01*
G01X4274525Y2269226D01*
G01X4259991Y2271140D01*
G01X4245458Y2269226D01*
G01X4231914Y2263617D01*
G01X4220285Y2254693D01*
G01X4211361Y2243063D01*
G01X4205751Y2229519D01*
G01X4203837Y2214986D01*
G01X4203837Y2214986D01*
G01X4004243Y2214986D01*
G01X3879233Y2339995D01*
G01X4203837Y2339995D01*
G01X4205751Y2325462D01*
G01X4211361Y2311918D01*
G01X4220285Y2300288D01*
G01X4231914Y2291364D01*
G01X4245458Y2285755D01*
G01X4259991Y2283841D01*
G01X4274525Y2285755D01*
G01X4288069Y2291364D01*
G01X4299698Y2300288D01*
G01X4308622Y2311918D01*
G01X4314039Y2324995D01*
G01X4723836Y2324995D01*
G01X4725750Y2310462D01*
G01X4731360Y2296918D01*
G01X4740284Y2285288D01*
G01X4751913Y2276365D01*
G01X4765457Y2270755D01*
G01X4779990Y2268841D01*
G01X4794524Y2270755D01*
G01X4808067Y2276365D01*
G01X4819697Y2285288D01*
G01X4828621Y2296918D01*
G01X4834231Y2310462D01*
G01X4836145Y2324995D01*
G01X4834231Y2339529D01*
G01X4828621Y2353072D01*
G01X4819697Y2364702D01*
G01X4808067Y2373626D01*
G01X4794524Y2379236D01*
G01X4779990Y2381149D01*
G01X4765457Y2379236D01*
G01X4751913Y2373626D01*
G01X4740284Y2364702D01*
G01X4731360Y2353072D01*
G01X4725750Y2339529D01*
G01X4723836Y2324995D01*
G01X4723836Y2324995D01*
G01X4314039Y2324995D01*
G01X4314232Y2325462D01*
G01X4316146Y2339995D01*
G01X4314232Y2354529D01*
G01X4308622Y2368072D01*
G01X4299698Y2379702D01*
G01X4288069Y2388626D01*
G01X4274525Y2394236D01*
G01X4259991Y2396149D01*
G01X4245458Y2394236D01*
G01X4231914Y2388626D01*
G01X4220285Y2379702D01*
G01X4211361Y2368072D01*
G01X4205751Y2354529D01*
G01X4203837Y2339995D01*
G01X4203837Y2339995D01*
G01X3879233Y2339995D01*
G01X3754233Y2464995D01*
G01X4203837Y2464995D01*
G01X4205751Y2450461D01*
G01X4211361Y2436918D01*
G01X4220285Y2425288D01*
G01X4231914Y2416364D01*
G01X4245458Y2410754D01*
G01X4259991Y2408841D01*
G01X4274525Y2410754D01*
G01X4288069Y2416364D01*
G01X4299698Y2425288D01*
G01X4308622Y2436918D01*
G01X4314232Y2450461D01*
G01X4316146Y2464995D01*
G01X4314232Y2479529D01*
G01X4308622Y2493072D01*
G01X4299698Y2504702D01*
G01X4288069Y2513626D01*
G01X4274525Y2519236D01*
G01X4259991Y2521149D01*
G01X4245458Y2519236D01*
G01X4231914Y2513626D01*
G01X4220285Y2504702D01*
G01X4211361Y2493072D01*
G01X4205751Y2479529D01*
G01X4203837Y2464995D01*
G01X4203837Y2464995D01*
G01X3754233Y2464995D01*
G01X3727113Y2492115D01*
G01X3719170Y2498211D01*
G01X3709919Y2502042D01*
G01X3699993Y2503349D01*
G01X2596010Y2503349D01*
G01X2584508Y2512768D01*
G01X2570938Y2518838D01*
G01X2556250Y2521135D01*
G01X2541474Y2519497D01*
G01X2527645Y2514039D01*
G01X2515734Y2505143D01*
G01X2506575Y2493434D01*
G01X2500809Y2479731D01*
G01X2498841Y2464995D01*
G01X2500809Y2450259D01*
G01X2506575Y2436557D01*
G01X2515734Y2424847D01*
G01X2527645Y2415951D01*
G01X2541474Y2410493D01*
G01X2556250Y2408855D01*
G01X2570938Y2411152D01*
G01X2584508Y2417222D01*
G01X2596010Y2426641D01*
G01X3684106Y2426641D01*
G01X4148869Y1961878D01*
G01X4149783Y1949736D01*
G01X4153292Y1938077D01*
G01X4159232Y1927449D01*
G01X4167323Y1918350D01*
G01X4167323Y1918350D01*
G01X2596010Y1918350D01*
G01X2584508Y1927769D01*
G01X2570938Y1933840D01*
G01X2556250Y1936136D01*
G01X2541474Y1934498D01*
G01X2527645Y1929040D01*
G01X2515734Y1920144D01*
G01X2506575Y1908435D01*
G01X2500809Y1894732D01*
G01X2498841Y1879996D01*
G01X1639238Y1879996D01*
G01X1840883Y2081642D01*
G01X1887437Y2081642D01*
G01X1879370Y2069304D01*
G01X1874792Y2055291D01*
G01X1874018Y2040570D01*
G01X1877102Y2026155D01*
G01X1883831Y2013040D01*
G01X1893741Y2002127D01*
G01X1906150Y1994169D01*
G01X1920202Y1989715D01*
G01X1934930Y1989072D01*
G01X1949317Y1992283D01*
G01X1949329Y1977614D01*
G01X1953140Y1963449D01*
G01X1960490Y1950754D01*
G01X1970877Y1940396D01*
G01X1983593Y1933081D01*
G01X1997769Y1929309D01*
G01X2012438Y1929337D01*
G01X2026599Y1933164D01*
G01X2039286Y1940527D01*
G01X2049633Y1950926D01*
G01X2056934Y1963649D01*
G01X2060691Y1977829D01*
G01X2060647Y1992498D01*
G01X2056805Y2006655D01*
G01X3593863Y2006655D01*
G01X3595392Y1991880D01*
G01X3600741Y1978022D01*
G01X3609537Y1966052D01*
G01X3621164Y1956807D01*
G01X3634808Y1950934D01*
G01X3649514Y1948844D01*
G01X3664254Y1950683D01*
G01X3677996Y1956323D01*
G01X3689778Y1965368D01*
G01X3698777Y1977186D01*
G01X3704362Y1990951D01*
G01X3706142Y2005698D01*
G01X3703994Y2020396D01*
G01X3698067Y2034016D01*
G01X3688776Y2045606D01*
G01X3676771Y2054354D01*
G01X3662892Y2059648D01*
G01X3648111Y2061119D01*
G01X3637100Y2072129D01*
G01X3629157Y2078224D01*
G01X3619907Y2082056D01*
G01X3609980Y2083363D01*
G01X2526355Y2083363D01*
G01X2534815Y2087160D01*
G01X2542115Y2092875D01*
G01X2602115Y2152875D01*
G01X2608210Y2160819D01*
G01X2612042Y2170069D01*
G01X2613349Y2179996D01*
G01X2613349Y2193980D01*
G01X2622251Y2204663D01*
G01X2628256Y2217205D01*
G01X2630995Y2230838D01*
G01X2630299Y2244726D01*
G01X2626212Y2258018D01*
G01X2618985Y2269898D01*
G01X2609060Y2279637D01*
G01X2597045Y2286639D01*
G01X3463939Y2286639D01*
G01X3466692Y2272323D01*
G01X3473037Y2259199D01*
G01X3482547Y2248150D01*
G01X3494580Y2239921D01*
G01X3508326Y2235067D01*
G01X3522858Y2233914D01*
G01X3537197Y2236542D01*
G01X3550377Y2242771D01*
G01X3561509Y2252184D01*
G01X3569843Y2264144D01*
G01X3574817Y2277847D01*
G01X3576097Y2292369D01*
G01X3573595Y2306731D01*
G01X3567481Y2319964D01*
G01X3558167Y2331178D01*
G01X3546280Y2339617D01*
G01X3532621Y2344711D01*
G01X3518111Y2346118D01*
G01X3512116Y2352113D01*
G01X3504172Y2358209D01*
G01X3494922Y2362040D01*
G01X3484995Y2363347D01*
G01X1971011Y2363347D01*
G01X1959509Y2372766D01*
G01X1945939Y2378836D01*
G01X1931251Y2381133D01*
G01X1916475Y2379495D01*
G01X1902647Y2374037D01*
G01X1890735Y2365141D01*
G01X1881576Y2353432D01*
G01X1875810Y2339729D01*
G01X1873842Y2324993D01*
G01X1875810Y2310257D01*
G01X1881576Y2296555D01*
G01X1890735Y2284845D01*
G01X1902647Y2275949D01*
G01X1916475Y2270491D01*
G01X1931251Y2268853D01*
G01X1945939Y2271150D01*
G01X1959509Y2277220D01*
G01X1971011Y2286639D01*
G01X2552944Y2286639D01*
G01X2541064Y2279739D01*
G01X2531215Y2270161D01*
G01X2523986Y2258477D01*
G01X2519811Y2245388D01*
G01X2518939Y2231677D01*
G01X2521422Y2218165D01*
G01X2527113Y2205660D01*
G01X2535669Y2194911D01*
G01X2499108Y2158350D01*
G01X1824996Y2158350D01*
G01X1815070Y2157043D01*
G01X1805819Y2153211D01*
G01X1797876Y2147116D01*
G01X1139111Y1488351D01*
G01X1082593Y1488351D01*
G01X1770883Y2176642D01*
G01X2118980Y2176642D01*
G01X2130482Y2167223D01*
G01X2144053Y2161152D01*
G01X2158741Y2158856D01*
G01X2173517Y2160494D01*
G01X2187345Y2165952D01*
G01X2199257Y2174848D01*
G01X2208416Y2186557D01*
G01X2214182Y2200260D01*
G01X2216150Y2214996D01*
G01X2214182Y2229731D01*
G01X2208416Y2243434D01*
G01X2199257Y2255144D01*
G01X2187345Y2264039D01*
G01X2173517Y2269497D01*
G01X2158741Y2271136D01*
G01X2144053Y2268839D01*
G01X2130482Y2262768D01*
G01X2118980Y2253350D01*
G01X1754996Y2253350D01*
G01X1745070Y2252043D01*
G01X1735819Y2248211D01*
G01X1727876Y2242116D01*
G01X1034111Y1548351D01*
G01X926668Y1548351D01*
G01X932119Y1552876D01*
G01X1503174Y2123931D01*
G01X1517753Y2126723D01*
G01X1531092Y2133237D01*
G01X1542258Y2143019D01*
G01X1550471Y2155385D01*
G01X1555156Y2169471D01*
G01X1555986Y2184293D01*
G01X1552904Y2198814D01*
G01X1546124Y2212020D01*
G01X1536121Y2222988D01*
G01X1523593Y2230951D01*
G01X1509416Y2235354D01*
G01X1494581Y2235888D01*
G01X1480125Y2232516D01*
G01X1467057Y2225473D01*
G01X1456291Y2215253D01*
G01X1448580Y2202568D01*
G01X1444461Y2188306D01*
G01X1444224Y2173464D01*
G01X889111Y1618351D01*
G01X889111Y1618351D01*
G01X344999Y1618351D01*
G01X335073Y1617044D01*
G01X325822Y1613212D01*
G01X317879Y1607117D01*
G01X236881Y1526120D01*
G01X222088Y1524647D01*
G01X208200Y1519343D01*
G01X196190Y1510581D01*
G01X186900Y1498975D01*
G01X180981Y1485337D01*
G01X178849Y1470624D01*
G01X171071Y1470624D01*
G01X169240Y1484531D01*
G01X163631Y1498074D01*
G01X154707Y1509704D01*
G01X143077Y1518628D01*
G01X129534Y1524238D01*
G01X115000Y1526151D01*
G01X100466Y1524238D01*
G01X86923Y1518628D01*
G01X75293Y1509704D01*
G01X66369Y1498074D01*
G01X60759Y1484531D01*
G01X58846Y1469997D01*
G01X58846Y1469997D01*
G01X25654Y1469997D01*
G01X25654Y1849988D01*
G01X109348Y1849988D01*
G01X111120Y1834265D01*
G01X116345Y1819332D01*
G01X124763Y1805935D01*
G01X135951Y1794747D01*
G01X149347Y1786330D01*
G01X164281Y1781104D01*
G01X180003Y1779332D01*
G01X195726Y1781104D01*
G01X210660Y1786330D01*
G01X224056Y1794747D01*
G01X235244Y1805935D01*
G01X243662Y1819332D01*
G01X248887Y1834265D01*
G01X250659Y1849988D01*
G01X248887Y1865710D01*
G01X243662Y1880644D01*
G01X235244Y1894040D01*
G01X224056Y1905228D01*
G01X210660Y1913646D01*
G01X195726Y1918871D01*
G01X180003Y1920643D01*
G01X164281Y1918871D01*
G01X149347Y1913646D01*
G01X135951Y1905228D01*
G01X124763Y1894040D01*
G01X116345Y1880644D01*
G01X111120Y1865710D01*
G01X109348Y1849988D01*
G01X109348Y1849988D01*
G01X25654Y1849988D01*
G01X25654Y2149987D01*
G01X109348Y2149987D01*
G01X111120Y2134265D01*
G01X116345Y2119331D01*
G01X124763Y2105934D01*
G01X135951Y2094747D01*
G01X149347Y2086329D01*
G01X164281Y2081103D01*
G01X180003Y2079332D01*
G01X195726Y2081103D01*
G01X210660Y2086329D01*
G01X224056Y2094747D01*
G01X235244Y2105934D01*
G01X241487Y2115871D01*
G01X257853Y2115871D01*
G01X257853Y2034996D01*
G01X259806Y2025179D01*
G01X265367Y2016856D01*
G01X273690Y2011295D01*
G01X283507Y2009342D01*
G01X284638Y2009342D01*
G01X284999Y2009339D01*
G01X291645Y2009339D01*
G01X291645Y1959996D01*
G01X291645Y1959996D01*
G01X292952Y1950069D01*
G01X296784Y1940819D01*
G01X302879Y1932876D01*
G01X357879Y1877876D01*
G01X365822Y1871781D01*
G01X375072Y1867949D01*
G01X384999Y1866642D01*
G01X479112Y1866642D01*
G01X481645Y1864109D01*
G01X481645Y1846012D01*
G01X472226Y1834510D01*
G01X466156Y1820939D01*
G01X463859Y1806251D01*
G01X465497Y1791475D01*
G01X470955Y1777647D01*
G01X479851Y1765736D01*
G01X491560Y1756576D01*
G01X505263Y1750810D01*
G01X519999Y1748842D01*
G01X534735Y1750810D01*
G01X548437Y1756576D01*
G01X560147Y1765736D01*
G01X569043Y1777647D01*
G01X574501Y1791475D01*
G01X576139Y1806251D01*
G01X573842Y1820939D01*
G01X567772Y1834510D01*
G01X558353Y1846012D01*
G01X558353Y1879996D01*
G01X557046Y1889923D01*
G01X553214Y1899173D01*
G01X547119Y1907117D01*
G01X522119Y1932117D01*
G01X514176Y1938212D01*
G01X504926Y1942043D01*
G01X494999Y1943350D01*
G01X400886Y1943350D01*
G01X368353Y1975883D01*
G01X368353Y2009339D01*
G01X374999Y2009339D01*
G01X375360Y2009342D01*
G01X499999Y2009342D01*
G01X509816Y2011295D01*
G01X518139Y2016856D01*
G01X523700Y2025179D01*
G01X525653Y2034996D01*
G01X525653Y2036002D01*
G01X616847Y2036002D01*
G01X617474Y2030361D01*
G01X619327Y2024996D01*
G01X617474Y2019631D01*
G01X616847Y2013990D01*
G01X616847Y1985989D01*
G01X618799Y1976172D01*
G01X624361Y1967849D01*
G01X632683Y1962288D01*
G01X642501Y1960335D01*
G01X685000Y1960335D01*
G01X693064Y1961636D01*
G01X864992Y1961636D01*
G01X874919Y1962943D01*
G01X884169Y1966774D01*
G01X892112Y1972869D01*
G01X951999Y2032756D01*
G01X966553Y2034173D01*
G01X980247Y2039299D01*
G01X992153Y2047787D01*
G01X1001465Y2059062D01*
G01X1007550Y2072358D01*
G01X1009995Y2086774D01*
G01X1008636Y2101333D01*
G01X1003564Y2115048D01*
G01X995123Y2126988D01*
G01X983886Y2136344D01*
G01X970614Y2142481D01*
G01X956207Y2144984D01*
G01X941643Y2143683D01*
G01X927909Y2138665D01*
G01X945885Y2156642D01*
G01X1128982Y2156642D01*
G01X1140484Y2147223D01*
G01X1154055Y2141152D01*
G01X1168743Y2138856D01*
G01X1183519Y2140494D01*
G01X1197347Y2145952D01*
G01X1209258Y2154848D01*
G01X1218418Y2166557D01*
G01X1224184Y2180260D01*
G01X1226152Y2194996D01*
G01X1224184Y2209731D01*
G01X1218418Y2223434D01*
G01X1209258Y2235144D01*
G01X1197347Y2244039D01*
G01X1183519Y2249497D01*
G01X1168743Y2251136D01*
G01X1154055Y2248839D01*
G01X1140484Y2242768D01*
G01X1128982Y2233350D01*
G01X929998Y2233350D01*
G01X920071Y2232043D01*
G01X910821Y2228211D01*
G01X902878Y2222116D01*
G01X769118Y2088356D01*
G01X693064Y2088356D01*
G01X693064Y2088356D01*
G01X685000Y2089657D01*
G01X642501Y2089657D01*
G01X632683Y2087704D01*
G01X624361Y2082143D01*
G01X618799Y2073820D01*
G01X616847Y2064003D01*
G01X616847Y2036002D01*
G01X525653Y2036002D01*
G01X525653Y2114996D01*
G01X523700Y2124813D01*
G01X518139Y2133136D01*
G01X517264Y2134011D01*
G01X514285Y2136002D01*
G01X616847Y2136002D01*
G01X618799Y2126184D01*
G01X624361Y2117861D01*
G01X632683Y2112300D01*
G01X642501Y2110348D01*
G01X685000Y2110348D01*
G01X693064Y2111648D01*
G01X745005Y2111648D01*
G01X754932Y2112955D01*
G01X764182Y2116787D01*
G01X772125Y2122882D01*
G01X1340884Y2691641D01*
G01X1694997Y2691641D01*
G01X1704923Y2692947D01*
G01X1714174Y2696779D01*
G01X1722117Y2702874D01*
G01X1813115Y2793872D01*
G01X1824029Y2794571D01*
G01X1824664Y2780420D01*
G01X1828821Y2766877D01*
G01X1836235Y2754806D01*
G01X1846434Y2744974D01*
G01X1858768Y2738007D01*
G01X856880Y1736119D01*
G01X842087Y1734646D01*
G01X828198Y1729343D01*
G01X816188Y1720581D01*
G01X806899Y1708974D01*
G01X800980Y1695337D01*
G01X798848Y1680624D01*
G01X800651Y1665867D01*
G01X806263Y1652101D01*
G01X815291Y1640290D01*
G01X815291Y1640290D01*
G01X827103Y1631262D01*
G01X840869Y1625649D01*
G01X855626Y1623846D01*
G01X870338Y1625978D01*
G01X883976Y1631897D01*
G01X895582Y1641187D01*
G01X904344Y1653197D01*
G01X909648Y1667085D01*
G01X911121Y1681878D01*
G01X1859237Y2629995D01*
G01X1978842Y2629995D01*
G01X1980755Y2615461D01*
G01X1986365Y2601918D01*
G01X1995289Y2590288D01*
G01X2006919Y2581364D01*
G01X2020462Y2575754D01*
G01X2034996Y2573841D01*
G01X2049530Y2575754D01*
G01X2063073Y2581364D01*
G01X2074703Y2590288D01*
G01X2083627Y2601918D01*
G01X2089237Y2615461D01*
G01X2091150Y2629995D01*
G01X2089237Y2644528D01*
G01X2083627Y2658072D01*
G01X2074703Y2669702D01*
G01X2063073Y2678626D01*
G01X2049530Y2684235D01*
G01X2034996Y2686149D01*
G01X2020462Y2684235D01*
G01X2006919Y2678626D01*
G01X1995289Y2669702D01*
G01X1986365Y2658072D01*
G01X1980755Y2644528D01*
G01X1978842Y2629995D01*
G01X1978842Y2629995D01*
G01X1859237Y2629995D01*
G01X2204236Y2974994D01*
G01X2423841Y2974994D01*
G01X2425809Y2960258D01*
G01X2431575Y2946556D01*
G01X2440734Y2934846D01*
G01X2452646Y2925950D01*
G01X2466474Y2920492D01*
G01X2481250Y2918854D01*
G01X2495938Y2921151D01*
G01X2509508Y2927221D01*
G01X2521010Y2936640D01*
G01X3504106Y2936640D01*
G01X3526273Y2914473D01*
G01X3534216Y2908378D01*
G01X3543466Y2904547D01*
G01X3553393Y2903240D01*
G01X4207154Y2903240D01*
G01X4194074Y2896871D01*
G01X4183069Y2887355D01*
G01X4174879Y2875332D01*
G01X4170052Y2861608D01*
G01X4168912Y2847105D01*
G01X4171536Y2832795D01*
G01X4177748Y2819640D01*
G01X4187132Y2808523D01*
G01X4199056Y2800189D01*
G01X4212721Y2795197D01*
G01X4227209Y2793884D01*
G01X4241549Y2796337D01*
G01X4254778Y2802391D01*
G01X4266007Y2811640D01*
G01X4948185Y2811640D01*
G01X4944901Y2800830D01*
G01X4943847Y2789581D01*
G01X4945067Y2778349D01*
G01X2666010Y2778349D01*
G01X2654508Y2787767D01*
G01X2640937Y2793838D01*
G01X2626249Y2796135D01*
G01X2611473Y2794496D01*
G01X2597645Y2789038D01*
G01X2585734Y2780143D01*
G01X2576574Y2768433D01*
G01X2570809Y2754730D01*
G01X2568841Y2739995D01*
G01X2570809Y2725259D01*
G01X2576574Y2711556D01*
G01X2585734Y2699846D01*
G01X2597645Y2690951D01*
G01X2611473Y2685493D01*
G01X2626249Y2683854D01*
G01X2640937Y2686151D01*
G01X2654508Y2692222D01*
G01X2666010Y2701641D01*
G01X4951855Y2701641D01*
G01X4959137Y2697054D01*
G01X4967258Y2694206D01*
G01X4975810Y2693240D01*
G01X5024190Y2693240D01*
G01X5032742Y2694206D01*
G01X5040863Y2697054D01*
G01X5048144Y2701641D01*
G01X8234984Y2701641D01*
G01X8244910Y2702947D01*
G01X8254161Y2706779D01*
G01X8262104Y2712874D01*
G01X8522103Y2972874D01*
G01X8528199Y2980817D01*
G01X8532030Y2990067D01*
G01X8533337Y2999994D01*
G01X8694331Y2999994D01*
G01X8694331Y2909994D01*
G01X8696284Y2900177D01*
G01X8701845Y2891854D01*
G01X8710168Y2886293D01*
G01X8719985Y2884340D01*
G01X8799985Y2884340D01*
G01X8809802Y2886293D01*
G01X8818125Y2891854D01*
G01X8823686Y2900177D01*
G01X8825639Y2909994D01*
G01X8825639Y2916640D01*
G01X8834293Y2916640D01*
G01X8846810Y2908844D01*
G01X8860925Y2904575D01*
G01X8875665Y2904128D01*
G01X8890013Y2907534D01*
G01X8902979Y2914557D01*
G01X8913670Y2924714D01*
G01X8921348Y2937304D01*
G01X8925484Y2951459D01*
G01X8925792Y2966202D01*
G01X8925792Y2966202D01*
G01X8922252Y2980517D01*
G01X8915107Y2993417D01*
G01X8904850Y3004012D01*
G01X8892188Y3011571D01*
G01X8877996Y3015573D01*
G01X8863250Y3015743D01*
G01X8848969Y3012068D01*
G01X8836137Y3004802D01*
G01X8825639Y2994446D01*
G01X8825639Y2999994D01*
G01X8823686Y3009811D01*
G01X8818125Y3018134D01*
G01X8809802Y3023695D01*
G01X8799985Y3025648D01*
G01X8719985Y3025648D01*
G01X8710168Y3023695D01*
G01X8701845Y3018134D01*
G01X8696284Y3009811D01*
G01X8694331Y2999994D01*
G01X8533337Y2999994D01*
G01X8533337Y3234994D01*
G01X8694331Y3234994D01*
G01X8694331Y3144994D01*
G01X8696284Y3135176D01*
G01X8701845Y3126854D01*
G01X8710168Y3121293D01*
G01X8719985Y3119340D01*
G01X8799985Y3119340D01*
G01X8809802Y3121293D01*
G01X8818125Y3126854D01*
G01X8823686Y3135176D01*
G01X8825639Y3144994D01*
G01X8825639Y3151640D01*
G01X8838967Y3151640D01*
G01X8850469Y3142221D01*
G01X8864040Y3136150D01*
G01X8878728Y3133854D01*
G01X8893504Y3135492D01*
G01X8907332Y3140950D01*
G01X8919243Y3149846D01*
G01X8928403Y3161555D01*
G01X8934168Y3175258D01*
G01X8936136Y3189994D01*
G01X8936136Y3189994D01*
G01X8934168Y3204729D01*
G01X8928403Y3218432D01*
G01X8919243Y3230142D01*
G01X8907332Y3239037D01*
G01X8893504Y3244495D01*
G01X8878728Y3246134D01*
G01X8864040Y3243837D01*
G01X8850469Y3237767D01*
G01X8838967Y3228348D01*
G01X8825639Y3228348D01*
G01X8825639Y3234994D01*
G01X8823686Y3244811D01*
G01X8818125Y3253134D01*
G01X8809802Y3258695D01*
G01X8799985Y3260648D01*
G01X8719985Y3260648D01*
G01X8710168Y3258695D01*
G01X8701845Y3253134D01*
G01X8696284Y3244811D01*
G01X8694331Y3234994D01*
G01X8533337Y3234994D01*
G01X8533337Y3449993D01*
G01X9108828Y3449993D01*
G01X9110741Y3435459D01*
G01X9116351Y3421916D01*
G01X9125275Y3410286D01*
G01X9136905Y3401362D01*
G01X9150448Y3395752D01*
G01X9164982Y3393839D01*
G01X9179515Y3395752D01*
G01X9193059Y3401362D01*
G01X9204689Y3410286D01*
G01X9213613Y3421916D01*
G01X9219222Y3435459D01*
G01X9221136Y3449993D01*
G01X9219222Y3464527D01*
G01X9213613Y3478070D01*
G01X9204689Y3489700D01*
G01X9193059Y3498624D01*
G01X9179515Y3504234D01*
G01X9164982Y3506147D01*
G01X9150448Y3504234D01*
G01X9136905Y3498624D01*
G01X9125275Y3489700D01*
G01X9116351Y3478070D01*
G01X9110741Y3464527D01*
G01X9108828Y3449993D01*
G01X9108828Y3449993D01*
G01X8533337Y3449993D01*
G01X8533337Y3606973D01*
G01X8532030Y3616900D01*
G01X8528199Y3626150D01*
G01X8522103Y3634093D01*
G01X8479228Y3676969D01*
G01X8486709Y3697216D01*
G01X8490297Y3718500D01*
G01X8490128Y3727000D01*
G01X8709390Y3727000D01*
G01X8711359Y3705749D01*
G01X8717200Y3685221D01*
G01X8726713Y3666116D01*
G01X8739575Y3649084D01*
G01X8755347Y3634706D01*
G01X8773493Y3623471D01*
G01X8793394Y3615761D01*
G01X8814373Y3611839D01*
G01X8835715Y3611839D01*
G01X8856694Y3615761D01*
G01X8876595Y3623471D01*
G01X8894741Y3634706D01*
G01X8910513Y3649084D01*
G01X8923375Y3666116D01*
G01X8932888Y3685221D01*
G01X8938729Y3705749D01*
G01X8940698Y3727000D01*
G01X8940698Y3727000D01*
G01X8938729Y3748251D01*
G01X8932888Y3768779D01*
G01X8923375Y3787884D01*
G01X8910513Y3804915D01*
G01X8894741Y3819294D01*
G01X8876595Y3830529D01*
G01X8856694Y3838239D01*
G01X8835715Y3842160D01*
G01X8814373Y3842160D01*
G01X8793394Y3838239D01*
G01X8773493Y3830529D01*
G01X8755347Y3819294D01*
G01X8739575Y3804915D01*
G01X8726713Y3787884D01*
G01X8717200Y3768779D01*
G01X8711359Y3748251D01*
G01X8709390Y3727000D01*
G01X8490128Y3727000D01*
G01X8489868Y3740080D01*
G01X8485436Y3761205D01*
G01X8477156Y3781139D01*
G01X8465316Y3799186D01*
G01X8450329Y3814720D01*
G01X8432716Y3827198D01*
G01X8413092Y3836185D01*
G01X8392139Y3841370D01*
G01X8370588Y3842571D01*
G01X8349188Y3839747D01*
G01X8328687Y3832995D01*
G01X8309797Y3822551D01*
G01X8293176Y3808780D01*
G01X8279405Y3792159D01*
G01X8268961Y3773269D01*
G01X8262209Y3752768D01*
G01X8259385Y3731368D01*
G01X8260586Y3709817D01*
G01X8265771Y3688864D01*
G01X8274758Y3669240D01*
G01X8287236Y3651627D01*
G01X8302770Y3636640D01*
G01X8320817Y3624800D01*
G01X8340751Y3616520D01*
G01X8361876Y3612088D01*
G01X8383456Y3611659D01*
G01X8404740Y3615247D01*
G01X8424987Y3622728D01*
G01X8456629Y3591086D01*
G01X8456629Y3015881D01*
G01X8219097Y2778349D01*
G01X5054933Y2778349D01*
G01X5056152Y2789581D01*
G01X5055099Y2800830D01*
G01X5051814Y2811640D01*
G01X6173972Y2811640D01*
G01X6185202Y2802391D01*
G01X6198430Y2796337D01*
G01X6212770Y2793884D01*
G01X6227258Y2795197D01*
G01X6240923Y2800189D01*
G01X6252848Y2808523D01*
G01X6262231Y2819640D01*
G01X6268443Y2832795D01*
G01X6271067Y2847105D01*
G01X6269928Y2861608D01*
G01X6265100Y2875332D01*
G01X6256910Y2887355D01*
G01X6245905Y2896871D01*
G01X6232826Y2903240D01*
G01X6287501Y2903240D01*
G01X6343002Y2847739D01*
G01X6350945Y2841644D01*
G01X6360195Y2837813D01*
G01X6370122Y2836506D01*
G01X7653969Y2836506D01*
G01X7665471Y2827087D01*
G01X7679042Y2821016D01*
G01X7693730Y2818720D01*
G01X7708506Y2820358D01*
G01X7722334Y2825816D01*
G01X7734245Y2834712D01*
G01X7743405Y2846421D01*
G01X7749171Y2860124D01*
G01X7751139Y2874860D01*
G01X7749171Y2889595D01*
G01X7743405Y2903298D01*
G01X7734245Y2915008D01*
G01X7722334Y2923903D01*
G01X7708506Y2929362D01*
G01X7693730Y2931000D01*
G01X7679042Y2928703D01*
G01X7665471Y2922633D01*
G01X7653969Y2913214D01*
G01X6386009Y2913214D01*
G01X6330508Y2968714D01*
G01X6322565Y2974809D01*
G01X6313314Y2978641D01*
G01X6303388Y2979948D01*
G01X6144182Y2979948D01*
G01X6315874Y3151640D01*
G01X6453972Y3151640D01*
G01X6465629Y3142125D01*
G01X6479394Y3136048D01*
G01X6494279Y3133844D01*
G01X6509214Y3135672D01*
G01X6523129Y3141400D01*
G01X6535022Y3150617D01*
G01X6544041Y3162662D01*
G01X6549537Y3176669D01*
G01X6551117Y3191633D01*
G01X6548667Y3206479D01*
G01X6542362Y3220142D01*
G01X6532655Y3231639D01*
G01X6538972Y3231639D01*
G01X6550474Y3222221D01*
G01X6564044Y3216150D01*
G01X6578732Y3213853D01*
G01X6593508Y3215492D01*
G01X6607336Y3220950D01*
G01X6619248Y3229845D01*
G01X6628407Y3241555D01*
G01X6634173Y3255258D01*
G01X6636141Y3269993D01*
G01X6634173Y3284729D01*
G01X6628407Y3298432D01*
G01X6619248Y3310142D01*
G01X6607336Y3319037D01*
G01X6593508Y3324495D01*
G01X6578732Y3326134D01*
G01X6564044Y3323837D01*
G01X6550474Y3317766D01*
G01X6538972Y3308347D01*
G01X6214988Y3308347D01*
G01X6205061Y3307041D01*
G01X6195811Y3303209D01*
G01X6187867Y3297114D01*
G01X5999101Y3108348D01*
G01X5526004Y3108348D01*
G01X5515286Y3117274D01*
G01X5502699Y3123282D01*
G01X5489018Y3126003D01*
G01X5475090Y3125268D01*
G01X5461772Y3121123D01*
G01X5449886Y3113824D01*
G01X5440166Y3103820D01*
G01X5433212Y3091729D01*
G01X5429452Y3078297D01*
G01X5429119Y3064353D01*
G01X5432233Y3050757D01*
G01X5438601Y3038348D01*
G01X5346005Y3038348D01*
G01X5336201Y3046675D01*
G01X5324760Y3052553D01*
G01X5312282Y3055673D01*
G01X5299421Y3055871D01*
G01X5286852Y3053138D01*
G01X5275234Y3047617D01*
G01X5265178Y3039597D01*
G01X5257211Y3029499D01*
G01X5251751Y3017853D01*
G01X5249084Y3005270D01*
G01X5249350Y2992410D01*
G01X5252535Y2979948D01*
G01X3569280Y2979948D01*
G01X3569280Y2979948D01*
G01X3547113Y3002114D01*
G01X3539170Y3008210D01*
G01X3529920Y3012041D01*
G01X3519993Y3013348D01*
G01X2521010Y3013348D01*
G01X2509508Y3022767D01*
G01X2495938Y3028837D01*
G01X2481250Y3031134D01*
G01X2466474Y3029496D01*
G01X2452646Y3024038D01*
G01X2440734Y3015142D01*
G01X2431575Y3003433D01*
G01X2425809Y2989730D01*
G01X2423841Y2974994D01*
G01X2204236Y2974994D01*
G01X2295882Y3066640D01*
G01X3478978Y3066640D01*
G01X3490480Y3057221D01*
G01X3504050Y3051150D01*
G01X3518738Y3048854D01*
G01X3533514Y3050492D01*
G01X3547342Y3055950D01*
G01X3559254Y3064846D01*
G01X3568413Y3076555D01*
G01X3574179Y3090258D01*
G01X3576147Y3104994D01*
G01X3574179Y3119729D01*
G01X3568413Y3133432D01*
G01X3559254Y3145142D01*
G01X3547342Y3154037D01*
G01X3533514Y3159496D01*
G01X3518738Y3161134D01*
G01X3504050Y3158837D01*
G01X3490480Y3152767D01*
G01X3478978Y3143348D01*
G01X2279995Y3143348D01*
G01X2270069Y3142041D01*
G01X2260818Y3138209D01*
G01X2252875Y3132114D01*
G01X1931983Y2811222D01*
G01X1926238Y2821854D01*
G01X1918350Y2831010D01*
G01X1918350Y3024994D01*
G01X1917043Y3034921D01*
G01X1913212Y3044171D01*
G01X1907117Y3052114D01*
G01X1844378Y3114853D01*
G01X1858611Y3113956D01*
G01X1872610Y3116674D01*
G01X1885473Y3122830D01*
G01X1896371Y3132028D01*
G01X1904601Y3143674D01*
G01X1909631Y3157018D01*
G01X1911137Y3171199D01*
G01X1909023Y3185302D01*
G01X1903425Y3198418D01*
G01X1894703Y3209701D01*
G01X1883421Y3218422D01*
G01X1870305Y3224021D01*
G01X1856202Y3226135D01*
G01X1842021Y3224628D01*
G01X1828677Y3219598D01*
G01X1817031Y3211369D01*
G01X1807832Y3200471D01*
G01X1801676Y3187607D01*
G01X1798959Y3173608D01*
G01X1799855Y3159376D01*
G01X1689231Y3270000D01*
G01X4703836Y3270000D01*
G01X4705750Y3255466D01*
G01X4711360Y3241923D01*
G01X4720284Y3230293D01*
G01X4731913Y3221369D01*
G01X4745457Y3215759D01*
G01X4759990Y3213846D01*
G01X4774524Y3215759D01*
G01X4788068Y3221369D01*
G01X4799697Y3230293D01*
G01X4808621Y3241923D01*
G01X4814231Y3255466D01*
G01X4816144Y3269993D01*
G01X5183835Y3269993D01*
G01X5185749Y3255460D01*
G01X5191359Y3241916D01*
G01X5200283Y3230287D01*
G01X5211912Y3221363D01*
G01X5225456Y3215753D01*
G01X5239990Y3213839D01*
G01X5254523Y3215753D01*
G01X5268067Y3221363D01*
G01X5279696Y3230287D01*
G01X5288620Y3241916D01*
G01X5294230Y3255460D01*
G01X5296144Y3269993D01*
G01X5294230Y3284527D01*
G01X5288620Y3298070D01*
G01X5279696Y3309700D01*
G01X5268067Y3318624D01*
G01X5254523Y3324234D01*
G01X5239990Y3326148D01*
G01X5225456Y3324234D01*
G01X5211912Y3318624D01*
G01X5200283Y3309700D01*
G01X5191359Y3298070D01*
G01X5185749Y3284527D01*
G01X5183835Y3269993D01*
G01X5183835Y3269993D01*
G01X4816144Y3269993D01*
G01X4816145Y3270000D01*
G01X4814231Y3284534D01*
G01X4808621Y3298077D01*
G01X4799697Y3309707D01*
G01X4788068Y3318631D01*
G01X4774524Y3324241D01*
G01X4759990Y3326154D01*
G01X4745457Y3324241D01*
G01X4731913Y3318631D01*
G01X4720284Y3309707D01*
G01X4711360Y3298077D01*
G01X4705750Y3284534D01*
G01X4703836Y3270000D01*
G01X4703836Y3270000D01*
G01X1689231Y3270000D01*
G01X1461120Y3498111D01*
G01X1459647Y3512905D01*
G01X1454343Y3526793D01*
G01X1445581Y3538803D01*
G01X1433975Y3548093D01*
G01X1420337Y3554011D01*
G01X1405625Y3556144D01*
G01X1390868Y3554340D01*
G01X1377101Y3548728D01*
G01X1365290Y3539700D01*
G01X1356262Y3527889D01*
G01X1350650Y3514122D01*
G01X1348847Y3499366D01*
G01X1350979Y3484653D01*
G01X1356898Y3471015D01*
G01X1366187Y3459409D01*
G01X1378197Y3450647D01*
G01X1392086Y3445343D01*
G01X1406879Y3443870D01*
G01X1841642Y3009107D01*
G01X1841642Y2899424D01*
G01X1827911Y2904643D01*
G01X1813297Y2906123D01*
G01X1798799Y2903761D01*
G01X1785409Y2897721D01*
G01X1774043Y2888415D01*
G01X1765481Y2876480D01*
G01X1760306Y2862732D01*
G01X1758874Y2848113D01*
G01X1679110Y2768349D01*
G01X1324997Y2768349D01*
G01X1315071Y2767042D01*
G01X1305820Y2763210D01*
G01X1297877Y2757115D01*
G01X729118Y2188356D01*
G01X693064Y2188356D01*
G01X685000Y2189657D01*
G01X642501Y2189657D01*
G01X632683Y2187704D01*
G01X624361Y2182143D01*
G01X618799Y2173820D01*
G01X616847Y2164003D01*
G01X616847Y2136002D01*
G01X514285Y2136002D01*
G01X508941Y2139572D01*
G01X499124Y2141525D01*
G01X283507Y2141525D01*
G01X273690Y2139572D01*
G01X265367Y2134011D01*
G01X259806Y2125688D01*
G01X257853Y2115871D01*
G01X241487Y2115871D01*
G01X243662Y2119331D01*
G01X248887Y2134265D01*
G01X250659Y2149987D01*
G01X248887Y2165709D01*
G01X243662Y2180643D01*
G01X235244Y2194040D01*
G01X224056Y2205228D01*
G01X210660Y2213645D01*
G01X195726Y2218871D01*
G01X180003Y2220642D01*
G01X164281Y2218871D01*
G01X149347Y2213645D01*
G01X135951Y2205228D01*
G01X124763Y2194040D01*
G01X116345Y2180643D01*
G01X111120Y2165709D01*
G01X109348Y2149987D01*
G01X109348Y2149987D01*
G01X25654Y2149987D01*
G01X25654Y2834315D01*
G01X27457Y2871007D01*
G01X32847Y2907346D01*
G01X40826Y2939200D01*
G01X1564000Y2939200D01*
G01X1564694Y2925254D01*
G01X1568807Y2911911D01*
G01X1576085Y2899994D01*
G01X1568807Y2888078D01*
G01X1564694Y2874734D01*
G01X1564000Y2860788D01*
G01X1566769Y2847102D01*
G01X1572829Y2834522D01*
G01X1581806Y2823827D01*
G01X1593144Y2815677D01*
G01X1606142Y2810576D01*
G01X1619997Y2808840D01*
G01X1619997Y2808840D01*
G01X1633852Y2810576D01*
G01X1646850Y2815677D01*
G01X1658188Y2823827D01*
G01X1667164Y2834522D01*
G01X1673224Y2847102D01*
G01X1675993Y2860788D01*
G01X1675300Y2874734D01*
G01X1671187Y2888078D01*
G01X1663909Y2899994D01*
G01X1671187Y2911911D01*
G01X1675300Y2925254D01*
G01X1675993Y2939200D01*
G01X1673224Y2952886D01*
G01X1667164Y2965466D01*
G01X1658188Y2976161D01*
G01X1646850Y2984311D01*
G01X1633852Y2989412D01*
G01X1619997Y2991148D01*
G01X1606142Y2989412D01*
G01X1593144Y2984311D01*
G01X1581806Y2976161D01*
G01X1572829Y2965466D01*
G01X1566769Y2952886D01*
G01X1564000Y2939200D01*
G01X40826Y2939200D01*
G01X41773Y2942982D01*
G01X54149Y2977571D01*
G01X69856Y3010780D01*
G01X88743Y3042290D01*
G01X110627Y3071797D01*
G01X131651Y3094994D01*
G01X789555Y3094994D01*
G01X791468Y3080460D01*
G01X797078Y3066917D01*
G01X806002Y3055287D01*
G01X817632Y3046363D01*
G01X831175Y3040753D01*
G01X845709Y3038840D01*
G01X860243Y3040753D01*
G01X873786Y3046363D01*
G01X885416Y3055287D01*
G01X894340Y3066917D01*
G01X899950Y3080460D01*
G01X901863Y3094994D01*
G01X1314180Y3094994D01*
G01X1316093Y3080460D01*
G01X1321703Y3066917D01*
G01X1330627Y3055287D01*
G01X1342257Y3046363D01*
G01X1355800Y3040753D01*
G01X1370334Y3038840D01*
G01X1384868Y3040753D01*
G01X1398411Y3046363D01*
G01X1410041Y3055287D01*
G01X1418965Y3066917D01*
G01X1424574Y3080460D01*
G01X1426488Y3094994D01*
G01X1424574Y3109528D01*
G01X1418965Y3123071D01*
G01X1410041Y3134701D01*
G01X1398411Y3143625D01*
G01X1384868Y3149234D01*
G01X1370334Y3151148D01*
G01X1355800Y3149234D01*
G01X1342257Y3143625D01*
G01X1330627Y3134701D01*
G01X1321703Y3123071D01*
G01X1316093Y3109528D01*
G01X1314180Y3094994D01*
G01X1314180Y3094994D01*
G01X901863Y3094994D01*
G01X899950Y3109528D01*
G01X894340Y3123071D01*
G01X885416Y3134701D01*
G01X873786Y3143625D01*
G01X860243Y3149234D01*
G01X845709Y3151148D01*
G01X831175Y3149234D01*
G01X817632Y3143625D01*
G01X806002Y3134701D01*
G01X797078Y3123071D01*
G01X791468Y3109528D01*
G01X789555Y3094994D01*
G01X789555Y3094994D01*
G01X131651Y3094994D01*
G01X135297Y3099017D01*
G01X763280Y3727000D01*
G01X1059299Y3727000D01*
G01X1061269Y3705749D01*
G01X1067109Y3685221D01*
G01X1076622Y3666116D01*
G01X1089484Y3649084D01*
G01X1105256Y3634706D01*
G01X1123402Y3623471D01*
G01X1143303Y3615761D01*
G01X1164282Y3611839D01*
G01X1185624Y3611839D01*
G01X1206603Y3615761D01*
G01X1226505Y3623471D01*
G01X1244650Y3634706D01*
G01X1260422Y3649084D01*
G01X1273284Y3666116D01*
G01X1282797Y3685221D01*
G01X1288638Y3705749D01*
G01X1290607Y3727000D01*
G01X1290607Y3727000D01*
G01X1509387Y3727000D01*
G01X1511357Y3705749D01*
G01X1517197Y3685221D01*
G01X1526710Y3666116D01*
G01X1539572Y3649084D01*
G01X1555344Y3634706D01*
G01X1573490Y3623471D01*
G01X1593391Y3615761D01*
G01X1614370Y3611839D01*
G01X1635712Y3611839D01*
G01X1656691Y3615761D01*
G01X1676593Y3623471D01*
G01X1694738Y3634706D01*
G01X1710510Y3649084D01*
G01X1723372Y3666116D01*
G01X1732885Y3685221D01*
G01X1738726Y3705749D01*
G01X1740695Y3727000D01*
G01X1740695Y3727000D01*
G01X1738726Y3748251D01*
G01X1732885Y3768779D01*
G01X1723372Y3787884D01*
G01X1710510Y3804915D01*
G01X1694738Y3819294D01*
G01X1685522Y3825000D01*
G01X2280984Y3825000D01*
G01X2280984Y3474993D01*
G01X2282910Y3455435D01*
G01X2288615Y3436628D01*
G01X2297879Y3419295D01*
G01X2310347Y3404103D01*
G01X2325539Y3391635D01*
G01X2342872Y3382371D01*
G01X2361679Y3376666D01*
G01X2381238Y3374739D01*
G01X4024992Y3374739D01*
G01X4044550Y3376666D01*
G01X4063357Y3382371D01*
G01X4080690Y3391635D01*
G01X4090882Y3400000D01*
G01X5653835Y3400000D01*
G01X5655748Y3385466D01*
G01X5661358Y3371923D01*
G01X5670282Y3360293D01*
G01X5681912Y3351369D01*
G01X5695455Y3345759D01*
G01X5709989Y3343846D01*
G01X5724522Y3345759D01*
G01X5738066Y3351369D01*
G01X5749696Y3360293D01*
G01X5758619Y3371923D01*
G01X5762222Y3380621D01*
G01X7638838Y3380621D01*
G01X7640641Y3365864D01*
G01X7646253Y3352098D01*
G01X7655281Y3340286D01*
G01X7655281Y3340286D01*
G01X7667093Y3331258D01*
G01X7680859Y3325646D01*
G01X7695616Y3323843D01*
G01X7710329Y3325975D01*
G01X7723966Y3331894D01*
G01X7735573Y3341183D01*
G01X7744335Y3353193D01*
G01X7749638Y3367082D01*
G01X7751111Y3381875D01*
G01X7875875Y3506639D01*
G01X8039984Y3506639D01*
G01X8049911Y3507946D01*
G01X8059161Y3511777D01*
G01X8067104Y3517873D01*
G01X8173102Y3623870D01*
G01X8187895Y3625343D01*
G01X8201784Y3630646D01*
G01X8213793Y3639408D01*
G01X8223083Y3651015D01*
G01X8229002Y3664653D01*
G01X8231134Y3679365D01*
G01X8229331Y3694122D01*
G01X8223719Y3707888D01*
G01X8214691Y3719700D01*
G01X8202879Y3728728D01*
G01X8189113Y3734340D01*
G01X8174356Y3736143D01*
G01X8159644Y3734011D01*
G01X8146006Y3728092D01*
G01X8134399Y3718802D01*
G01X8125637Y3706793D01*
G01X8120334Y3692904D01*
G01X8118861Y3678111D01*
G01X8024097Y3583347D01*
G01X7859988Y3583347D01*
G01X7850061Y3582040D01*
G01X7840811Y3578208D01*
G01X7832868Y3572113D01*
G01X7696870Y3436116D01*
G01X7682077Y3434643D01*
G01X7668189Y3429339D01*
G01X7656179Y3420577D01*
G01X7646889Y3408971D01*
G01X7640970Y3395333D01*
G01X7638838Y3380621D01*
G01X5762222Y3380621D01*
G01X5764229Y3385466D01*
G01X5766143Y3400000D01*
G01X5764229Y3414534D01*
G01X5758619Y3428077D01*
G01X5749696Y3439707D01*
G01X5738066Y3448631D01*
G01X5724522Y3454240D01*
G01X5709989Y3456154D01*
G01X5695455Y3454240D01*
G01X5681912Y3448631D01*
G01X5670282Y3439707D01*
G01X5661358Y3428077D01*
G01X5655748Y3414534D01*
G01X5653835Y3400000D01*
G01X5653835Y3400000D01*
G01X4090882Y3400000D01*
G01X4095882Y3404103D01*
G01X4108350Y3419295D01*
G01X4117614Y3436628D01*
G01X4123319Y3455435D01*
G01X4124675Y3469203D01*
G01X4652845Y3469203D01*
G01X4654827Y3454151D01*
G01X4660636Y3440126D01*
G01X4669878Y3428082D01*
G01X4681922Y3418840D01*
G01X4695948Y3413031D01*
G01X4710999Y3411049D01*
G01X4726050Y3413031D01*
G01X4740075Y3418840D01*
G01X4752119Y3428082D01*
G01X4761361Y3440126D01*
G01X4767170Y3454151D01*
G01X4769152Y3469203D01*
G01X5230848Y3469203D01*
G01X5232829Y3454151D01*
G01X5238639Y3440126D01*
G01X5247881Y3428082D01*
G01X5259924Y3418840D01*
G01X5273950Y3413031D01*
G01X5289001Y3411049D01*
G01X5304052Y3413031D01*
G01X5318078Y3418840D01*
G01X5330122Y3428082D01*
G01X5339363Y3440126D01*
G01X5345173Y3454151D01*
G01X5347154Y3469203D01*
G01X5345173Y3484254D01*
G01X5339363Y3498279D01*
G01X5330122Y3510323D01*
G01X5318078Y3519565D01*
G01X5304052Y3525374D01*
G01X5289001Y3527356D01*
G01X5273950Y3525374D01*
G01X5259924Y3519565D01*
G01X5247881Y3510323D01*
G01X5238639Y3498279D01*
G01X5232829Y3484254D01*
G01X5230848Y3469203D01*
G01X5230848Y3469203D01*
G01X4769152Y3469203D01*
G01X4767170Y3484254D01*
G01X4761361Y3498279D01*
G01X4752119Y3510323D01*
G01X4740075Y3519565D01*
G01X4726050Y3525374D01*
G01X4710999Y3527356D01*
G01X4695948Y3525374D01*
G01X4681922Y3519565D01*
G01X4669878Y3510323D01*
G01X4660636Y3498279D01*
G01X4654827Y3484254D01*
G01X4652845Y3469203D01*
G01X4652845Y3469203D01*
G01X4124675Y3469203D01*
G01X4125246Y3474993D01*
G01X4125246Y3825000D01*
G01X4125246Y3825000D01*
G01X4123319Y3844559D01*
G01X4117614Y3863366D01*
G01X4108350Y3880698D01*
G01X4095882Y3895890D01*
G01X4080690Y3908358D01*
G01X4063357Y3917623D01*
G01X4044550Y3923328D01*
G01X4024992Y3925254D01*
G01X2381238Y3925254D01*
G01X2361679Y3923328D01*
G01X2342872Y3917623D01*
G01X2325539Y3908358D01*
G01X2310347Y3895890D01*
G01X2297879Y3880698D01*
G01X2288615Y3863366D01*
G01X2282910Y3844559D01*
G01X2280984Y3825000D01*
G01X1685522Y3825000D01*
G01X1676593Y3830529D01*
G01X1656691Y3838239D01*
G01X1635712Y3842160D01*
G01X1614370Y3842160D01*
G01X1593391Y3838239D01*
G01X1573490Y3830529D01*
G01X1555344Y3819294D01*
G01X1539572Y3804915D01*
G01X1526710Y3787884D01*
G01X1517197Y3768779D01*
G01X1511357Y3748251D01*
G01X1509387Y3727000D01*
G01X1290607Y3727000D01*
G01X1288638Y3748251D01*
G01X1282797Y3768779D01*
G01X1273284Y3787884D01*
G01X1260422Y3804915D01*
G01X1244650Y3819294D01*
G01X1226505Y3830529D01*
G01X1206603Y3838239D01*
G01X1185624Y3842160D01*
G01X1164282Y3842160D01*
G01X1143303Y3838239D01*
G01X1123402Y3830529D01*
G01X1105256Y3819294D01*
G01X1089484Y3804915D01*
G01X1076622Y3787884D01*
G01X1067109Y3768779D01*
G01X1061269Y3748251D01*
G01X1059299Y3727000D01*
G01X763280Y3727000D01*
G01X900983Y3864703D01*
G01X928203Y3889373D01*
G01X957710Y3911257D01*
G01X989220Y3930144D01*
G01X1022429Y3945851D01*
G01X1057019Y3958227D01*
G01X1092654Y3967153D01*
G01X1128993Y3972543D01*
G01X1165685Y3974346D01*
G01X8834315Y3974346D01*
G01X8871007Y3972543D01*
G01X8907346Y3967153D01*
G01X8942981Y3958227D01*
G01X8977571Y3945851D01*
G01X9010780Y3930144D01*
G01X9042290Y3911257D01*
G01X9071797Y3889373D01*
G01X9099017Y3864703D01*
G01X9864703Y3099017D01*
G01X9889373Y3071797D01*
G01X9911257Y3042290D01*
G01X9930144Y3010780D01*
G01X9945851Y2977571D01*
G01X9958227Y2942982D01*
G01X9967153Y2907346D01*
G01X9972543Y2871007D01*
G01X9974346Y2834315D01*
G01X9974346Y1000000D01*
G37*
G36*
G01X3530880Y1546643D02*
G01X3728977Y1546643D01*
G01X3739732Y1537694D01*
G01X3752365Y1531681D01*
G01X3766092Y1528978D01*
G01X3780061Y1529753D01*
G01X3793406Y1533957D01*
G01X3805297Y1541329D01*
G01X3814996Y1551412D01*
G01X3821902Y1563579D01*
G01X3825585Y1577077D01*
G01X3825818Y1591066D01*
G01X3822585Y1604678D01*
G01X3816087Y1617068D01*
G01X3806728Y1627468D01*
G01X3795088Y1635231D01*
G01X3781891Y1639876D01*
G01X3767955Y1641114D01*
G01X3777123Y1647887D01*
G01X3783111Y1653874D01*
G01X3797509Y1655255D01*
G01X3811077Y1660269D01*
G01X3822915Y1668582D01*
G01X3832236Y1679643D01*
G01X3838422Y1692718D01*
G01X3841063Y1706939D01*
G01X3839984Y1721363D01*
G01X3835256Y1735034D01*
G01X3827193Y1747042D01*
G01X8048697Y1747042D01*
G01X8208861Y1586879D01*
G01X8210334Y1572085D01*
G01X8215637Y1558197D01*
G01X8224399Y1546187D01*
G01X8236006Y1536897D01*
G01X8249643Y1530979D01*
G01X8264356Y1528846D01*
G01X8279113Y1530649D01*
G01X8292879Y1536262D01*
G01X8304690Y1545290D01*
G01X8313719Y1557101D01*
G01X8319331Y1570867D01*
G01X8321134Y1585624D01*
G01X8319002Y1600337D01*
G01X8313083Y1613974D01*
G01X8303793Y1625581D01*
G01X8291783Y1634343D01*
G01X8277895Y1639646D01*
G01X8263102Y1641119D01*
G01X8102579Y1801642D01*
G01X8149097Y1801642D01*
G01X8202878Y1747861D01*
G01X8210822Y1741766D01*
G01X8220072Y1737934D01*
G01X8229999Y1736627D01*
G01X8414570Y1736627D01*
G01X8417381Y1727885D01*
G01X8423091Y1720692D01*
G01X8430968Y1715971D01*
G01X8440004Y1714328D01*
G01X8600003Y1714328D01*
G01X8609039Y1715971D01*
G01X8616916Y1720692D01*
G01X8622626Y1727885D01*
G01X8625437Y1736627D01*
G01X8667298Y1736627D01*
G01X8657639Y1725194D01*
G01X8651344Y1711616D01*
G01X8648859Y1696857D01*
G01X8650361Y1681966D01*
G01X8655743Y1668001D01*
G01X8664623Y1655953D01*
G01X8676370Y1646679D01*
G01X8690149Y1640837D01*
G01X8704983Y1638843D01*
G01X8719816Y1640837D01*
G01X8733595Y1646679D01*
G01X8745342Y1655953D01*
G01X8754222Y1668001D01*
G01X8759604Y1681966D01*
G01X8761106Y1696857D01*
G01X8758621Y1711616D01*
G01X8752326Y1725194D01*
G01X8742667Y1736627D01*
G01X9009110Y1736627D01*
G01X9220954Y1524784D01*
G01X9207284Y1529787D01*
G01X9192788Y1531108D01*
G01X9178440Y1528659D01*
G01X9165203Y1522605D01*
G01X9153966Y1513351D01*
G01X3497588Y1513351D01*
G01X3530880Y1546643D01*
G37*
G04 Copper End*

G04 Pad Start*
G54D10*
G01X500000Y500000D03*
G01X9500000Y500000D03*
G01X300000Y2700000D03*
G01X9300000Y3200000D03*
G54D11*
G01X8759985Y3189994D03*
G01X8619980Y3189994D03*
G01X8759985Y2954994D03*
G01X8619980Y2954994D03*
G54D12*
G01X329999Y2074993D03*
G01X329999Y2214998D03*
G54D13*
G01X8520004Y2544982D03*
G01X8520004Y2435000D03*
G01X8520004Y2324993D03*
G01X8520004Y2214986D03*
G01X8520004Y2105004D03*
G01X8520004Y1994996D03*
G01X8520004Y1884989D03*
G01X8520004Y1774981D03*
G01X8520004Y2654990D03*
G54D14*
G01X8620003Y2775005D03*
G54D15*
G01X9579996Y2775005D03*
G01X9579996Y1224995D03*
G54D16*
G01X8620003Y1314987D03*
G54D17*
G01X9205318Y874663D03*
G01X9205318Y1025336D03*
G01X9354981Y874663D03*
G01X9354981Y1025336D03*
G01X9904980Y874662D03*
G01X9904980Y1025335D03*
G01X9754980Y874662D03*
G01X9754980Y1025335D03*
G01X9054982Y874662D03*
G01X9054982Y1025335D03*
G54D19*
G01X1625041Y3727000D03*
G01X1174953Y3727000D03*
G54D20*
G01X1040079Y3473000D03*
G01X1759915Y3473000D03*
G54D19*
G01X8825044Y3727000D03*
G01X8374956Y3727000D03*
G54D20*
G01X8240082Y3473000D03*
G01X8959918Y3473000D03*
G54D21*
G01X476247Y1999990D03*
G01X476247Y2050002D03*
G01X476247Y2099989D03*
G01X476247Y2150002D03*
G01X663750Y2150002D03*
G01X663750Y2099989D03*
G01X663750Y2050002D03*
G01X663750Y1999990D03*
G54D22*
G01X569999Y2074996D03*
G54D23*
G01X289999Y884998D03*
G54D24*
G01X489999Y884998D03*
G54D25*
G01X4567997Y3837249D03*
G54D26*
G01X4567997Y3419241D03*
G54D25*
G01X5432003Y3837249D03*
G54D26*
G01X5432003Y3419241D03*
G54D27*
G01X8673000Y300000D03*
G54D19*
G01X8927000Y300000D03*
G04 Pad End*

G04 Via Start*
G54D28*
G01X2981751Y254999D03*
G01X3669993Y714999D03*
G01X1929996Y2324993D03*
G01X3519993Y2289995D03*
G01X1929996Y2045009D03*
G01X3649993Y2004996D03*
G01X1929996Y1675007D03*
G01X3784992Y1709997D03*
G01X854998Y1679997D03*
G01X3519993Y3104994D03*
G01X1929996Y1534997D03*
G01X3769992Y1584997D03*
G01X1619997Y2934994D03*
G01X1619997Y2864994D03*
G01X1370334Y3094994D03*
G01X8699987Y1149998D03*
G01X9134982Y784998D03*
G01X9212708Y784998D03*
G01X9194982Y1474997D03*
G01X2319995Y1474997D03*
G01X2554995Y1759996D03*
G01X8264983Y1584997D03*
G01X1854996Y3169994D03*
G01X2554995Y1879996D03*
G01X4279991Y1879996D03*
G01X4204992Y1959996D03*
G01X2554995Y2464995D03*
G01X5709989Y3400000D03*
G01X6214988Y2849994D03*
G01X4224992Y2849994D03*
G01X5304989Y2999994D03*
G01X6494987Y3189994D03*
G01X5484989Y3069994D03*
G01X6579987Y3269993D03*
G01X5000000Y2789994D03*
G01X4759990Y3270000D03*
G01X5239990Y3269993D03*
G01X7694985Y2874860D03*
G01X2479995Y2974994D03*
G01X7694988Y3379993D03*
G01X8174984Y3679993D03*
G01X7919984Y1414997D03*
G01X4154992Y1409997D03*
G01X8800013Y1154998D03*
G01X8909982Y1179998D03*
G01X5609989Y1979999D03*
G01X5804988Y1329997D03*
G01X2754994Y1329997D03*
G01X2884994Y1264997D03*
G01X6344987Y1319997D03*
G01X5874988Y1204998D03*
G01X3264993Y1204998D03*
G01X6399987Y1104998D03*
G01X3134994Y1104998D03*
G01X6214988Y1029998D03*
G01X3009994Y1029998D03*
G01X115000Y1064998D03*
G01X235000Y1469997D03*
G01X1499997Y2179996D03*
G01X384999Y1509997D03*
G01X2159996Y2214996D03*
G01X2574995Y2234996D03*
G01X674999Y1449997D03*
G01X2684995Y2644995D03*
G01X7839984Y2084996D03*
G01X4259991Y2084996D03*
G01X8179984Y2214986D03*
G01X4259991Y2214986D03*
G01X8954982Y2434995D03*
G01X4259991Y2339995D03*
G01X9044982Y2544995D03*
G01X4259991Y2464995D03*
G01X4259991Y2586595D03*
G01X519999Y1804996D03*
G01X1194998Y1134998D03*
G01X953881Y2088878D03*
G01X1169998Y2194996D03*
G01X1814996Y2849994D03*
G01X1404997Y3499993D03*
G01X1879996Y2789994D03*
G01X2624995Y2739995D03*
G01X8869982Y2959994D03*
G01X8669983Y2099996D03*
G01X8879982Y3189994D03*
G01X9164982Y3449993D03*
G01X115000Y1469997D03*
G01X2034996Y2629995D03*
G01X4779990Y2324995D03*
G01X8704983Y1694997D03*
G01X2004996Y1984996D03*
G01X533654Y2565654D03*
G01X533654Y3073654D03*
G01X1041654Y2057654D03*
G01X1041654Y2565654D03*
G01X1549654Y3581654D03*
G01X1549654Y533654D03*
G01X2057654Y3581654D03*
G01X2565654Y1041654D03*
G01X2565654Y2565654D03*
G01X3581654Y2565654D03*
G01X4089654Y533654D03*
G01X4597654Y533654D03*
G01X4597654Y3073654D03*
G01X5105654Y533654D03*
G01X5105654Y1549654D03*
G01X5613654Y533654D03*
G01X5613654Y1549654D03*
G01X6121654Y533654D03*
G01X6629654Y533654D03*
G01X6629654Y1549654D03*
G01X7137654Y533654D03*
G01X7137654Y1041654D03*
G01X7137654Y1549654D03*
G01X7137654Y3581654D03*
G01X7645654Y533654D03*
G01X7645654Y1041654D03*
G01X7645654Y1549654D03*
G01X7645654Y3581654D03*
G01X8153654Y533654D03*
G01X8153654Y1041654D03*
G01X8153654Y1549654D03*
G01X8153654Y3073654D03*
G01X8661654Y3073654D03*
G01X8661654Y3581654D03*
G01X9169654Y2057654D03*
G01X9677654Y3073654D03*
G01X845709Y3094994D03*
G01X1869996Y1914996D03*
G01X1379997Y2359995D03*
G01X2144996Y2784994D03*
G01X7374985Y1713397D03*
G01X6847755Y1714997D03*
G01X5354989Y1719997D03*
G04 Via End*

G04 Track Start*
G54D29*
G01X2981751Y254999D02*
G01X3349993Y254999D01*
G01X3669993Y574999D01*
G01X3669993Y714999D01*
G54D30*
G01X854998Y1679997D02*
G01X2279995Y3104994D01*
G01X3519993Y3104994D01*
G01X1929996Y1534997D02*
G01X3464993Y1534997D01*
G01X3514993Y1584997D01*
G01X3769992Y1584997D01*
G01X9194982Y1474997D02*
G01X2319995Y1474997D01*
G01X2554995Y1759996D02*
G01X3684993Y1759996D01*
G01X1929996Y2045009D02*
G01X3609980Y2045009D01*
G01X3649993Y2004996D01*
G01X1929996Y2324993D02*
G01X3484995Y2324993D01*
G01X3519993Y2289995D01*
G01X2554995Y1879996D02*
G01X4279991Y1879996D01*
G01X4204992Y1959996D02*
G01X3699993Y2464995D01*
G01X2554995Y2464995D01*
G01X6214988Y2849994D02*
G01X4224992Y2849994D01*
G01X5304989Y2999994D02*
G01X6109988Y2999994D01*
G01X6299987Y3189994D02*
G01X6494987Y3189994D01*
G01X6109988Y2999994D02*
G01X6299987Y3189994D01*
G01X5484989Y3069994D02*
G01X6014988Y3069994D01*
G01X6214988Y3269993D02*
G01X6579987Y3269993D01*
G01X6014988Y3069994D02*
G01X6214988Y3269993D01*
G01X7694985Y2874860D02*
G01X6370122Y2874860D01*
G01X6303388Y2941594D01*
G01X3553393Y2941594D01*
G01X3519993Y2974994D01*
G01X2479995Y2974994D01*
G01X7694988Y3379993D02*
G01X7859988Y3544993D01*
G01X8039984Y3544993D02*
G01X8174984Y3679993D01*
G01X7859988Y3544993D02*
G01X8039984Y3544993D01*
G01X7919984Y1414997D02*
G01X4159992Y1414997D01*
G01X4154992Y1409997D01*
G01X9024997Y1774981D02*
G01X8520004Y1774981D01*
G01X9054982Y1025335D02*
G01X9054982Y1199998D01*
G01X9264981Y1409997D01*
G01X9264981Y1534997D01*
G01X9024997Y1774981D01*
G01X9339981Y1589997D02*
G01X9044989Y1884989D01*
G01X8520004Y1884989D01*
G01X9404981Y1649997D02*
G01X9059982Y1994996D01*
G01X8520004Y1994996D01*
G01X9205318Y1025336D02*
G01X9205318Y1230334D01*
G01X9339981Y1364997D01*
G01X9339981Y1589997D01*
G01X9354981Y1025336D02*
G01X9354981Y1254997D01*
G01X9404981Y1304997D01*
G01X9404981Y1649997D01*
G01X9754980Y1709997D02*
G01X9754980Y1025335D01*
G01X9029977Y2435000D02*
G01X9754980Y1709997D01*
G01X9904980Y1025335D02*
G01X9904980Y1789996D01*
G01X5804988Y1329997D02*
G01X2754994Y1329997D01*
G01X5874988Y1204998D02*
G01X3264993Y1204998D01*
G01X2884994Y1264997D02*
G01X6289987Y1264997D01*
G01X6344987Y1319997D01*
G01X6399987Y1104998D02*
G01X3134994Y1104998D01*
G01X6214988Y1029998D02*
G01X3009994Y1029998D01*
G01X235000Y1469997D02*
G01X344999Y1579997D01*
G01X904998Y1579997D01*
G01X384999Y1509997D02*
G01X1049998Y1509997D01*
G01X904998Y1579997D02*
G01X1499997Y2174996D01*
G01X1499997Y2179996D01*
G01X1049998Y1509997D02*
G01X1754996Y2214996D01*
G01X2159996Y2214996D01*
G01X1824996Y2119996D02*
G01X1154998Y1449997D01*
G01X674999Y1449997D01*
G01X2574995Y2234996D02*
G01X2574995Y2179996D01*
G01X2514995Y2119996D01*
G01X1824996Y2119996D01*
G01X8520004Y1884989D02*
G01X7939991Y1884989D01*
G01X7179986Y2644995D02*
G01X2684995Y2644995D01*
G01X7939991Y1884989D02*
G01X7179986Y2644995D01*
G01X8520004Y1994996D02*
G01X7929984Y1994996D01*
G01X7839984Y2084996D01*
G01X8520004Y2214986D02*
G01X8179984Y2214986D01*
G01X9044982Y2544982D02*
G01X8520004Y2544982D01*
G01X9904980Y1789996D02*
G01X9149994Y2544982D01*
G01X9044982Y2544982D01*
G01X8520004Y2435000D02*
G01X9029977Y2435000D01*
G01X1929996Y1675007D02*
G01X3750003Y1675007D01*
G01X3784992Y1709997D01*
G01X3684993Y1759996D02*
G01X3710393Y1785396D01*
G01X8064584Y1785396D01*
G01X8264983Y1584997D01*
G01X8520004Y1774981D02*
G01X8229999Y1774981D01*
G01X8164984Y1839996D01*
G01X7864984Y1839996D01*
G01X7118386Y2586595D01*
G01X4259991Y2586595D01*
G01X519999Y1804996D02*
G01X519999Y1879996D01*
G01X494999Y1904996D01*
G01X384999Y1904996D01*
G01X329999Y1959996D02*
G01X329999Y2074993D01*
G01X384999Y1904996D02*
G01X329999Y1959996D01*
G01X1194998Y1134998D02*
G01X1194998Y1064998D01*
G01X1014998Y884998D01*
G01X489999Y884998D01*
G01X864992Y1999990D02*
G01X964998Y2099996D01*
G01X663750Y1999990D02*
G01X864992Y1999990D01*
G01X663750Y2050002D02*
G01X785005Y2050002D01*
G01X929998Y2194996D02*
G01X1169998Y2194996D01*
G01X785005Y2050002D02*
G01X929998Y2194996D01*
G01X663750Y2150002D02*
G01X745005Y2150002D01*
G01X1694997Y2729995D02*
G01X1814996Y2849994D01*
G01X745005Y2150002D02*
G01X1324997Y2729995D01*
G01X1694997Y2729995D01*
G01X1404997Y3499993D02*
G01X1879996Y3024994D01*
G01X1879996Y2789994D01*
G01X2624995Y2739995D02*
G01X4967409Y2739995D01*
G01X4975810Y2731594D01*
G01X5024190Y2731594D01*
G01X5032590Y2739995D01*
G01X8234984Y2739995D01*
G01X8494983Y3606973D02*
G01X8374956Y3727000D01*
G01X8234984Y2739995D02*
G01X8494983Y2999994D01*
G01X8494983Y3606973D01*
G01X8759985Y2954994D02*
G01X8864982Y2954994D01*
G01X8869982Y2959994D01*
G01X8669983Y2099996D02*
G01X8525011Y2099996D01*
G01X8520004Y2105004D01*
G01X8759985Y3189994D02*
G01X8879982Y3189994D01*
G54D29*
G01X9904980Y874662D02*
G01X9754980Y874662D01*
G01X9354981Y874662D01*
G01X9205318Y874662D01*
G01X9054982Y874662D01*
G01X8855319Y874662D01*
G01X8699987Y1029993D02*
G01X8699987Y1149998D01*
G01X8855319Y874662D02*
G01X8699987Y1029993D01*
G04 Track End*

M02*

