G04 Layer: BottomSolderMaskLayer*
G04 EasyEDA Pro v2.2.46.11, 2026-03-19 10:49:02*
G04 Gerber Generator version 0.3*
G04 Scale: 100 percent, Rotated: No, Reflected: No*
G04 Dimensions in millimeters*
G04 Leading zeros omitted, absolute positions, 4 integers and 5 decimals*
G04 Generated by one-click*
%FSLAX45Y45*%
%MOMM*%
%AMRoundRect*1,1,$1,$2,$3*1,1,$1,$4,$5*1,1,$1,0-$2,0-$3*1,1,$1,0-$4,0-$5*20,1,$1,$2,$3,$4,$5,0*20,1,$1,$4,$5,0-$2,0-$3,0*20,1,$1,0-$2,0-$3,0-$4,0-$5,0*20,1,$1,0-$4,0-$5,$2,$3,0*4,1,4,$2,$3,$4,$5,0-$2,0-$3,0-$4,0-$5,$2,$3,0*%
%ADD10C,4.1016*%
%ADD11RoundRect,0.09131X-0.40514X0.45514X0.40514X0.45514*%
%ADD12RoundRect,0.09131X-0.45514X-0.40514X-0.45514X0.40514*%
%ADD13RoundRect,0.09017X-0.80571X-0.35571X-0.80571X0.35571*%
%ADD14RoundRect,0.09424X-0.75368X-0.60368X-0.75368X0.60368*%
%ADD15RoundRect,0.09424X-1.10368X-0.60368X-1.10368X0.60368*%
%ADD16RoundRect,0.09554X-0.75303X-0.80303X-0.75303X0.80303*%
%ADD17RoundRect,0.0906X-0.43711X-0.40835X-0.43711X0.40835*%
%ADD18RoundRect,0.09138X-0.43711X-0.40835X-0.43711X0.40835*%
%ADD19C,1.9016*%
%ADD20C,2.1016*%
%ADD21RoundRect,0.08024X-0.22318X-0.15069X-0.22318X0.15069*%
%ADD22RoundRect,0.09131X-0.40514X-0.60514X-0.40514X0.60514*%
%ADD23RoundRect,0.09516X-0.75322X0.70322X0.75322X0.70322*%
%ADD24C,1.5016*%
%ADD25O,1.10002X1.90002*%
%ADD26O,1.10002X2.20002*%
%ADD27RoundRect,0.09645X-0.90257X0.90257X0.90257X0.90257*%
G75*


G04 Pad Start*
G54D10*
G01X500000Y500000D03*
G01X9500000Y500000D03*
G01X300000Y2700000D03*
G01X9300000Y3200000D03*
G54D11*
G01X8759985Y3189994D03*
G01X8619980Y3189994D03*
G01X8759985Y2954994D03*
G01X8619980Y2954994D03*
G54D12*
G01X329999Y2074993D03*
G01X329999Y2214998D03*
G54D13*
G01X8520004Y2544982D03*
G01X8520004Y2435000D03*
G01X8520004Y2324993D03*
G01X8520004Y2214986D03*
G01X8520004Y2105004D03*
G01X8520004Y1994996D03*
G01X8520004Y1884989D03*
G01X8520004Y1774981D03*
G01X8520004Y2654990D03*
G54D14*
G01X8620003Y2775005D03*
G54D15*
G01X9579996Y2775005D03*
G01X9579996Y1224995D03*
G54D16*
G01X8620003Y1314987D03*
G54D18*
G01X9205318Y874663D03*
G01X9205318Y1025336D03*
G01X9354981Y874663D03*
G01X9354981Y1025336D03*
G01X9904980Y874662D03*
G01X9904980Y1025335D03*
G01X9754980Y874662D03*
G01X9754980Y1025335D03*
G01X9054982Y874662D03*
G01X9054982Y1025335D03*
G54D19*
G01X1625041Y3727000D03*
G01X1174953Y3727000D03*
G54D20*
G01X1040079Y3473000D03*
G01X1759915Y3473000D03*
G54D19*
G01X8825044Y3727000D03*
G01X8374956Y3727000D03*
G54D20*
G01X8240082Y3473000D03*
G01X8959918Y3473000D03*
G54D21*
G01X476247Y1999990D03*
G01X476247Y2050002D03*
G01X476247Y2099989D03*
G01X476247Y2150002D03*
G01X663750Y2150002D03*
G01X663750Y2099989D03*
G01X663750Y2050002D03*
G01X663750Y1999990D03*
G54D22*
G01X569999Y2074996D03*
G54D23*
G01X289999Y884998D03*
G54D24*
G01X489999Y884998D03*
G54D25*
G01X4567997Y3837249D03*
G54D26*
G01X4567997Y3419241D03*
G54D25*
G01X5432003Y3837249D03*
G54D26*
G01X5432003Y3419241D03*
G54D27*
G01X8673000Y300000D03*
G54D19*
G01X8927000Y300000D03*
G04 Pad End*

M02*

